<?xml version="1.0" encoding="UTF-8"?>
<svg width="57px" height="59px" viewBox="0 0 57 59" version="1.1" xmlns="http://www.w3.org/2000/svg" xmlns:xlink="http://www.w3.org/1999/xlink">
    <!-- Generator: Sketch 51.1 (57501) - http://www.bohemiancoding.com/sketch -->
    <title>dark-logomark</title>
    <desc>Created with Sketch.</desc>
    <defs></defs>
    <g id="design" stroke="none" stroke-width="1" fill="none" fill-rule="evenodd">
        <g id="Welcome-1" transform="translate(-571.000000, -142.000000)" fill="#1186C9">
            <g id="dark-logomark" transform="translate(571.000000, 142.000000)">
                <polyline id="Fill-1" points="18.4057789 9.20290859 11.5 13.4058172 11.5 5 6.90577889 7.79224377 6.90577889 16.1980609 0 20.4009695 0 26 23 11.9951524 18.4057789 9.20290859"></polyline>
                <polyline id="Fill-3" points="7.20603015 36.2 0 31.9963636 0 37.5963636 7.20603015 41.8 7.20603015 50.2072727 12 53 12 25 7.20603015 27.7927273 7.20603015 36.2"></polyline>
                <polyline id="Fill-5" points="16 47.6666667 22.9057789 51.9203463 16 56.174026 20.6086683 59 27.5 54.7463203 34.4057789 59 39 56.174026 16 42 16 47.6666667"></polyline>
                <polyline id="Fill-6" points="37.6086683 48.7970914 44.5 44.6087258 44.5 53 49.1086683 50.2077562 49.1086683 41.8019391 56 37.5990305 56 32 33 46.0048476 37.6086683 48.7970914"></polyline>
                <polyline id="Fill-7" points="49.8090452 16.2 49.8090452 7.79272727 45 5 45 33 49.8090452 30.2072727 49.8090452 21.8 57 26.0036364 57 20.4036364 49.8090452 16.2"></polyline>
                <polyline id="Fill-8" points="39 11.3333333 32.0942211 7.07965368 39 2.82597403 34.4057789 0 27.5 4.25367965 20.6086683 0 16 2.82597403 39 17 39 11.3333333"></polyline>
            </g>
        </g>
    </g>
</svg>