<?xml version="1.0" encoding="UTF-8"?>
<svg width="32px" height="32px" viewBox="0 0 32 32" version="1.1" xmlns="http://www.w3.org/2000/svg" xmlns:xlink="http://www.w3.org/1999/xlink">
        <symbol id="logomark"><polyline points="10.6030151 5.20152355 7 7.40304709 7 3 4.60301508 4.46260388 4.60301508 8.86565097 1 11.0671745 1 14 13 6.66412742 10.6030151 5.20152355"></polyline><polyline points="4.60301508 19 1 16.7480519 1 19.7480519 4.60301508 22 4.60301508 26.5038961 7 28 7 13 4.60301508 14.4961039 4.60301508 19"></polyline><polyline points="9 25 12.6030151 27.2519481 9 29.5038961 11.4045226 31 15 28.7480519 18.6030151 31 21 29.5038961 9 22 9 25"></polyline><polyline points="20.4045226 25.7984765 24 23.6045706 24 28 26.4045226 26.5373961 26.4045226 22.134349 30 19.9328255 30 17 18 24.3358726 20.4045226 25.7984765"></polyline><polyline points="27.4045226 9 27.4045226 4.4961039 25 3 25 18 27.4045226 16.5038961 27.4045226 12 31 14.2519481 31 11.2519481 27.4045226 9"></polyline><polyline points="21 6 17.3969849 3.74805195 21 1.4961039 18.6030151 0 15 2.25194805 11.4045226 0 9 1.4961039 21 9 21 6"></polyline>
        </symbol>
</svg>