<?xml version="1.0" encoding="UTF-8"?>
<svg width="30px" height="31px" viewBox="0 0 30 31" version="1.1" xmlns="http://www.w3.org/2000/svg" xmlns:xlink="http://www.w3.org/1999/xlink">
    <!-- Generator: Sketch 49.3 (51167) - http://www.bohemiancoding.com/sketch -->
    <title>dark-logomark</title>
    <desc>Created with Sketch.</desc>
    <defs></defs>
    <g id="Symbols" stroke="none" stroke-width="1" fill="none" fill-rule="evenodd">
        <g id="nav---logistics" transform="translate(-20.000000, -18.000000)" fill="#FFFFFF">
            <g id="nav">
                <g id="dark-logomark" transform="translate(20.000000, 18.000000)">
                    <polyline id="Fill-1" points="9.60301508 5.20152355 6 7.40304709 6 3 3.60301508 4.46260388 3.60301508 8.86565097 0 11.0671745 0 14 12 6.66412742 9.60301508 5.20152355"></polyline>
                    <polyline id="Fill-3" points="3.60301508 19 0 16.7480519 0 19.7480519 3.60301508 22 3.60301508 26.5038961 6 28 6 13 3.60301508 14.4961039 3.60301508 19"></polyline>
                    <polyline id="Fill-5" points="8 25 11.6030151 27.2519481 8 29.5038961 10.4045226 31 14 28.7480519 17.6030151 31 20 29.5038961 8 22 8 25"></polyline>
                    <polyline id="Fill-6" points="19.4045226 25.7984765 23 23.6045706 23 28 25.4045226 26.5373961 25.4045226 22.134349 29 19.9328255 29 17 17 24.3358726 19.4045226 25.7984765"></polyline>
                    <polyline id="Fill-7" points="26.4045226 9 26.4045226 4.4961039 24 3 24 18 26.4045226 16.5038961 26.4045226 12 30 14.2519481 30 11.2519481 26.4045226 9"></polyline>
                    <polyline id="Fill-8" points="20 6 16.3969849 3.74805195 20 1.4961039 17.6030151 0 14 2.25194805 10.4045226 0 8 1.4961039 20 9 20 6"></polyline>
                </g>
            </g>
        </g>
    </g>
</svg>