<?xml version="1.0" encoding="UTF-8"?>
<svg width="32px" height="32px" viewBox="0 0 32 32" version="1.1" xmlns="http://www.w3.org/2000/svg" xmlns:xlink="http://www.w3.org/1999/xlink">
    <!-- Generator: Sketch 49.3 (51167) - http://www.bohemiancoding.com/sketch -->
    <title>ic-atom</title>
    <desc>Created with Sketch.</desc>
    <defs></defs>
    <g id="assets" stroke="none" stroke-width="1" fill="none" fill-rule="evenodd" opacity="0.5">
        <g id="spa-moon" fill="#000000" fill-rule="nonzero">
            <path d="M18.9494235,23.9505699 C19.0317306,24.2141608 18.884771,24.4945665 18.6211801,24.5768735 C18.3575892,24.6591806 18.0771835,24.512221 17.9948765,24.2486301 C17.9343462,24.05478 17.4304485,23.9070347 16.8450832,24.0665161 C16.270133,24.22316 15.9506408,24.5777276 16.004747,24.7510058 C16.0655689,24.9449836 16.5694949,25.0927662 17.1549931,24.9336087 C17.4214657,24.8611727 17.6962053,25.0184705 17.7686413,25.2849431 C17.8410773,25.5514157 17.6837795,25.8261553 17.4173069,25.8985913 C16.3771631,26.1813364 15.3068009,25.8674392 15.0503765,25.0496301 C14.7887278,24.2116919 15.530814,23.3881362 16.5822168,23.1016839 C17.6226729,22.818214 18.6939191,23.1323088 18.9494235,23.9505699 Z" id="Stroke-524"></path>
            <path d="M16.8622593,7.1806756 C16.9755188,7.43252259 16.8631714,7.72849985 16.6113244,7.84175931 C16.3594774,7.95501877 16.0635002,7.84267138 15.9502407,7.5908244 C15.6246124,6.86674806 13.7713901,6.7520299 11.8326957,7.5528536 C9.90246393,8.35044416 8.73279789,9.70292438 9.05034021,10.4093556 C9.37562041,11.1334218 11.2289283,11.2482879 13.1672665,10.447162 C13.4224706,10.3416847 13.7148607,10.4630623 13.820338,10.7182665 C13.9258153,10.9734706 13.8044377,11.2658607 13.5492335,11.371338 C11.1741352,12.3529792 8.76000337,12.2033538 8.13820432,10.8192435 C7.50760977,9.4163702 9.0664562,7.61388224 11.450858,6.62862422 C13.8262529,5.64741104 16.239919,5.7968218 16.8622593,7.1806756 Z" id="Stroke-525"></path>
            <path d="M8.60387067,19.978794 C8.8564062,19.8670782 9.15169024,19.9812351 9.26340603,20.2337707 C9.37512181,20.4863062 9.26096486,20.7815902 9.00842933,20.893306 C7.9523269,21.3605009 6.78526797,20.302422 6.2604566,18.7156047 C5.7448626,17.1572363 5.99119384,15.5488492 6.9914917,15.1067405 C8.04805046,14.639678 9.214592,15.6972697 9.73937819,17.2846005 C9.82605901,17.5467856 9.68378465,17.8295974 9.42159951,17.9162782 C9.15941437,18.002959 8.87660264,17.8606846 8.78992181,17.5984995 C8.42467131,16.4937193 7.73719191,15.8704475 7.39577654,16.0213736 C6.9999772,16.1963078 6.83551958,17.2701121 7.2098608,18.4015479 C7.57508398,19.5058351 8.26305462,20.129563 8.60387067,19.978794 Z" id="Stroke-526"></path>
            <path d="M22.8031125,16.0073291 C23.0471511,15.8781014 23.3497432,15.971174 23.4789709,16.2152125 C23.6081986,16.4592511 23.515126,16.7618432 23.2710875,16.8910709 C22.3993726,17.3526772 21.5453912,16.4234891 21.1745661,15.0800281 C20.8226035,13.8027541 20.9889625,12.5011404 21.7289161,12.1089332 C22.6004003,11.6469529 23.4550629,12.5768822 23.8251339,13.9198719 C23.8984929,14.1860919 23.7421481,14.461375 23.4759281,14.5347339 C23.2097081,14.6080929 22.934425,14.4517481 22.8610661,14.1855281 C22.6383217,13.3771875 22.2560894,12.9612935 22.1972616,12.9924786 C22.0054561,13.0941437 21.8974573,13.9391406 22.1385765,14.8141637 C22.3618384,15.6230184 22.7438739,16.0386982 22.8031125,16.0073291 Z" id="Stroke-527"></path>
            <path d="M28,16.5 C28,9.59664237 22.4033576,4 15.5,4 C8.59664237,4 3,9.59664237 3,16.5 C3,23.4033576 8.59664237,29 15.5,29 C22.4033576,29 28,23.4033576 28,16.5 Z M29,16.5 C29,23.9556424 22.9556424,30 15.5,30 C8.04435763,30 2,23.9556424 2,16.5 C2,9.04435763 8.04435763,3 15.5,3 C22.9556424,3 29,9.04435763 29,16.5 Z" id="Stroke-528"></path>
        </g>
    </g>
</svg>