<?xml version="1.0" encoding="UTF-8"?>
<svg width="32px" height="32px" viewBox="0 0 32 32" version="1.1" xmlns="http://www.w3.org/2000/svg" xmlns:xlink="http://www.w3.org/1999/xlink">
    <symbol id="credit-card"><path d="M25.5,11.5 C26.6046424,11.5 27.5,12.3953576 27.5,13.5 L27.5,27.5 C27.5,28.6046424 26.6046424,29.5 25.5,29.5 L4.5,29.5 C3.39535763,29.5 2.5,28.6046424 2.5,27.5 L2.5,13.5 C2.5,12.3953576 3.39535763,11.5 4.5,11.5 L25.5,11.5 Z M25.5,12.5 L4.5,12.5 C3.94764237,12.5 3.5,12.9476424 3.5,13.5 L3.5,27.5 C3.5,28.0523576 3.94764237,28.5 4.5,28.5 L25.5,28.5 C26.0523576,28.5 26.5,28.0523576 26.5,27.5 L26.5,13.5 C26.5,12.9476424 26.0523576,12.5 25.5,12.5 Z" ></path><path d="M11,14.5 C11.7761424,14.5 12.5,15.2238576 12.5,16 L12.5,19 C12.5,19.7761424 11.7761424,20.5 11,20.5 L7,20.5 C6.22385763,20.5 5.5,19.7761424 5.5,19 L5.5,16 C5.5,15.2238576 6.22385763,14.5 7,14.5 L11,14.5 Z M11,15.5 L7,15.5 C6.77614237,15.5 6.5,15.7761424 6.5,16 L6.5,19 C6.5,19.2238576 6.77614237,19.5 7,19.5 L11,19.5 C11.2238576,19.5 11.5,19.2238576 11.5,19 L11.5,16 C11.5,15.7761424 11.2238576,15.5 11,15.5 Z" ></path><path d="M6,23.5 C5.72385763,23.5 5.5,23.2761424 5.5,23 C5.5,22.7238576 5.72385763,22.5 6,22.5 L9,22.5 C9.27614237,22.5 9.5,22.7238576 9.5,23 C9.5,23.2761424 9.27614237,23.5 9,23.5 L6,23.5 Z" ></path><path d="M11,23.5 C10.7238576,23.5 10.5,23.2761424 10.5,23 C10.5,22.7238576 10.7238576,22.5 11,22.5 L14,22.5 C14.2761424,22.5 14.5,22.7238576 14.5,23 C14.5,23.2761424 14.2761424,23.5 14,23.5 L11,23.5 Z" ></path><path d="M16,23.5 C15.7238576,23.5 15.5,23.2761424 15.5,23 C15.5,22.7238576 15.7238576,22.5 16,22.5 L19,22.5 C19.2761424,22.5 19.5,22.7238576 19.5,23 C19.5,23.2761424 19.2761424,23.5 19,23.5 L16,23.5 Z" ></path><path d="M21,23.5 C20.7238576,23.5 20.5,23.2761424 20.5,23 C20.5,22.7238576 20.7238576,22.5 21,22.5 L24,22.5 C24.2761424,22.5 24.5,22.7238576 24.5,23 C24.5,23.2761424 24.2761424,23.5 24,23.5 L21,23.5 Z"></path><path d="M6,26.5 C5.72385763,26.5 5.5,26.2761424 5.5,26 C5.5,25.7238576 5.72385763,25.5 6,25.5 L14,25.5 C14.2761424,25.5 14.5,25.7238576 14.5,26 C14.5,26.2761424 14.2761424,26.5 14,26.5 L6,26.5 Z"></path><path d="M8.5,15 C8.5,14.7238576 8.72385763,14.5 9,14.5 C9.27614237,14.5 9.5,14.7238576 9.5,15 L9.5,20 C9.5,20.2761424 9.27614237,20.5 9,20.5 C8.72385763,20.5 8.5,20.2761424 8.5,20 L8.5,15 Z"></path><path d="M29.1025534,15.3008034 C28.9072912,15.4960655 28.5907088,15.4960655 28.3954466,15.3008034 C28.2001845,15.1055412 28.2001845,14.7889588 28.3954466,14.5936966 L29.2184466,13.7706966 C29.5936586,13.3954846 29.5936586,12.7881866 29.2184374,12.4132942 L19.5869466,2.78130339 C19.2117346,2.40609138 18.6044366,2.40609138 18.2225287,2.78819116 L10.3465287,10.3601912 C10.1474626,10.5515737 9.83094139,10.5453449 9.63955884,10.3462787 C9.4481763,10.1472126 9.4544051,9.83069139 9.65347125,9.63930884 L17.5222916,2.07435164 C18.2875634,1.30840862 19.5282654,1.30840862 20.2940626,2.07420579 L29.9253984,11.7060416 C30.6913414,12.4713134 30.6913414,13.7120154 29.9255534,14.4778034 L29.1025534,15.3008034 Z"></path><path d="M20.7841252,3.25789741 C20.9830872,3.0664066 21.2996118,3.07246321 21.4911026,3.27142522 C21.6825934,3.47038723 21.6765368,3.78691178 21.4775748,3.97840259 L14.8465748,10.3604026 C14.6476128,10.5518934 14.3310882,10.5458368 14.1395974,10.3468748 C13.9481066,10.1479128 13.9541632,9.83138822 14.1531252,9.63989741 L20.7841252,3.25789741 Z"></path><path d="M23.7900644,6.25227407 C23.9921321,6.0640634 24.3085153,6.07529674 24.4967259,6.27736443 C24.6849366,6.47943213 24.6737033,6.79581526 24.4716356,6.98402593 L20.8406356,10.3660259 C20.6385679,10.5542366 20.3221847,10.5430033 20.1339741,10.3409356 C19.9457634,10.1388679 19.9569967,9.82248474 20.1590644,9.63427407 L23.7900644,6.25227407 Z"></path></symbol>
</svg>