<?xml version="1.0" encoding="UTF-8"?>
<svg width="32px" height="32px" viewBox="0 0 32 32" version="1.1" xmlns="http://www.w3.org/2000/svg" xmlns:xlink="http://www.w3.org/1999/xlink">
        <symbol id="help"><path d="M25.3846154,26.3269231 C25.3846154,25.7636461 25.8405692,25.3076923 26.4038462,25.3076923 L27.9615385,25.3076923 C28.2586269,25.3076923 28.5,25.0663192 28.5,24.7692308 L28.5,14.3846154 C28.5,14.087527 28.2586269,13.8461538 27.9615385,13.8461538 L20.6923077,13.8461538 C20.4161653,13.8461538 20.1923077,13.6222962 20.1923077,13.3461538 C20.1923077,13.0700115 20.4161653,12.8461538 20.6923077,12.8461538 L27.9615385,12.8461538 C28.8109116,12.8461538 29.5,13.5352422 29.5,14.3846154 L29.5,24.7692308 C29.5,25.6186039 28.8109116,26.3076923 27.9615385,26.3076923 L26.4038462,26.3076923 C26.396518,26.3076923 26.3901077,27.525641 26.3846154,29.9615385 C26.3846154,30.3880849 25.8848402,30.6187613 25.5602388,30.3420379 L20.9933172,26.4484085 C20.893401,26.3576987 20.7643889,26.3076923 20.6310385,26.3076923 L13.4230769,26.3076923 C12.5737038,26.3076923 11.8846154,25.6186039 11.8846154,24.7692308 L11.8846154,18.5384615 C11.8846154,18.2623192 12.108473,18.0384615 12.3846154,18.0384615 C12.6607578,18.0384615 12.8846154,18.2623192 12.8846154,18.5384615 L12.8846154,24.7692308 C12.8846154,25.0663192 13.1259885,25.3076923 13.4230769,25.3076923 L20.6310385,25.3076923 C21.0133547,25.3076923 21.38188,25.4505363 21.6537804,25.6977121 L25.3846154,28.8782563 L25.3846154,26.3269231 Z"></path><path d="M10.3690654,16.9615385 C10.2356027,16.9615385 10.1063682,17.0116036 9.99507656,17.1125572 L5.43986502,20.9958841 C5.1152636,21.2726074 4.61548846,21.0419311 4.61548846,20.6153846 L4.61548846,16.9807692 C4.61548846,16.9734411 4.08984744,16.9670308 3.03856538,16.9615385 C2.18881364,16.9615385 1.50010385,16.2725908 1.50010385,15.4230769 L1.50010385,5.03846154 C1.50010385,4.18894769 2.18881364,3.5 3.03856538,3.5 L17.5770269,3.5 C18.4264001,3.5 19.1154885,4.18908839 19.1154885,5.03846154 L19.1154885,15.4230769 C19.1154885,16.2724501 18.4264001,16.9615385 17.5770269,16.9615385 L10.3690654,16.9615385 Z M5.61548846,19.5321656 L9.33411363,16.3623151 C9.61723461,16.1045826 9.98647878,15.9615385 10.3690654,15.9615385 L17.5770269,15.9615385 C17.8741153,15.9615385 18.1154885,15.7201653 18.1154885,15.4230769 L18.1154885,5.03846154 C18.1154885,4.74137314 17.8741153,4.5 17.5770269,4.5 L3.03856538,4.5 C2.74117572,4.5 2.50010385,4.74115514 2.50010385,5.03846154 L2.50010385,15.4230769 C2.50010385,15.7203833 2.74117572,15.9615385 3.03856538,15.9615385 L4.59625769,15.9615385 C5.15953468,15.9615385 5.61548846,16.4174922 5.61548846,16.9807692 L5.61548846,19.5321656 Z"></path><path d="M12.9230769,10.2307692 C12.9230769,8.26655419 12.124445,7.61538462 10.3076923,7.61538462 C8.5590082,7.61538462 7.69230769,8.34699677 7.69230769,10.2307692 C7.69230769,12.1949843 8.49093964,12.8461538 10.3076923,12.8461538 C12.124445,12.8461538 12.9230769,12.1949843 12.9230769,10.2307692 Z M13.9230769,10.2307692 C13.9230769,12.7974334 12.6368656,13.8461538 10.3076923,13.8461538 C7.97851902,13.8461538 6.69230769,12.7974334 6.69230769,10.2307692 C6.69230769,7.75362138 8.04071391,6.61538462 10.3076923,6.61538462 C12.6368656,6.61538462 13.9230769,7.6641051 13.9230769,10.2307692 Z"></path><path d="M10.9926005,11.6227842 C10.7973383,11.427522 10.7973383,11.1109395 10.9926005,10.9156774 C11.1878626,10.7204152 11.5044451,10.7204152 11.6997072,10.9156774 L13.7766303,12.9926005 C13.9718925,13.1878626 13.9718925,13.5044451 13.7766303,13.6997072 C13.5813682,13.8949694 13.2647857,13.8949694 13.0695235,13.6997072 L10.9926005,11.6227842 Z"></path><path d="M18.0241367,22.9159145 C17.900642,23.1629037 17.6003055,23.2630159 17.3533163,23.1395213 C17.106327,23.0160267 17.0062149,22.7156901 17.1297095,22.4687009 L20.2450941,16.2379317 C20.4293562,15.8694074 20.9552592,15.8694074 21.1395213,16.2379317 L24.2549059,22.4687009 C24.3784005,22.7156901 24.2782884,23.0160267 24.0312991,23.1395213 C23.7843099,23.2630159 23.4839733,23.1629037 23.3604787,22.9159145 L20.6923077,17.5795725 L18.0241367,22.9159145 Z"></path><path d="M18.6153846,21.1153846 C18.3392422,21.1153846 18.1153846,20.891527 18.1153846,20.6153846 C18.1153846,20.3392422 18.3392422,20.1153846 18.6153846,20.1153846 L22.7692308,20.1153846 C23.0453731,20.1153846 23.2692308,20.3392422 23.2692308,20.6153846 C23.2692308,20.891527 23.0453731,21.1153846 22.7692308,21.1153846 L18.6153846,21.1153846 Z"></path></symbol>
</svg>