<?xml version="1.0" encoding="UTF-8"?>
<svg width="32px" height="32px" viewBox="0 0 32 32" version="1.1" xmlns="http://www.w3.org/2000/svg" xmlns:xlink="http://www.w3.org/1999/xlink">
        <symbol id="logout"><path d="M18.5,19 C18.5,18.7238576 18.7238576,18.5 19,18.5 C19.2761424,18.5 19.5,18.7238576 19.5,19 L19.5,27 C19.5,27.8281424 18.8281424,28.5 18,28.5 L5,28.5 C4.17185763,28.5 3.5,27.8281424 3.5,27 L3.5,5 C3.5,4.17185763 4.17185763,3.5 5,3.5 L18,3.5 C18.8281424,3.5 19.5,4.17185763 19.5,5 L19.5,13 C19.5,13.2761424 19.2761424,13.5 19,13.5 C18.7238576,13.5 18.5,13.2761424 18.5,13 L18.5,5 C18.5,4.72414237 18.2758576,4.5 18,4.5 L5,4.5 C4.72414237,4.5 4.5,4.72414237 4.5,5 L4.5,27 C4.5,27.2758576 4.72414237,27.5 5,27.5 L18,27.5 C18.2758576,27.5 18.5,27.2758576 18.5,27 L18.5,19 Z"></path><path d="M23.6464466,11.3535534 C23.4511845,11.1582912 23.4511845,10.8417088 23.6464466,10.6464466 C23.8417088,10.4511845 24.1582912,10.4511845 24.3535534,10.6464466 L29.3535534,15.6464466 C29.5488155,15.8417088 29.5488155,16.1582912 29.3535534,16.3535534 L24.3535534,21.3535534 C24.1582912,21.5488155 23.8417088,21.5488155 23.6464466,21.3535534 C23.4511845,21.1582912 23.4511845,20.8417088 23.6464466,20.6464466 L28.2928932,16 L23.6464466,11.3535534 Z"></path><path d="M29,15.5 C29.2761424,15.5 29.5,15.7238576 29.5,16 C29.5,16.2761424 29.2761424,16.5 29,16.5 L9,16.5 C8.72385763,16.5 8.5,16.2761424 8.5,16 C8.5,15.7238576 8.72385763,15.5 9,15.5 L29,15.5 Z"></path></symbol>
</svg>