<?xml version="1.0" encoding="UTF-8"?>
<svg width="32px" height="32px" viewBox="0 0 32 32" version="1.1" xmlns="http://www.w3.org/2000/svg" xmlns:xlink="http://www.w3.org/1999/xlink">
        <symbol id="moving-box"><path d="M3,8.79864704 L3,23.201353 L15.5,29.9321222 L28,23.201353 L28,8.79864704 L15.5,2.06787781 L3,8.79864704 Z M2.26295009,8.05976445 L15.2629501,1.05976445 C15.4109383,0.980078517 15.5890617,0.980078517 15.7370499,1.05976445 L28.7370499,8.05976445 C28.8990048,8.14697095 29,8.31605878 29,8.5 L29,23.5 C29,23.6839412 28.8990048,23.853029 28.7370499,23.9402355 L15.7370499,30.9402355 C15.5890617,31.0199215 15.4109383,31.0199215 15.2629501,30.9402355 L2.26295009,23.9402355 C2.10099516,23.853029 2,23.6839412 2,23.5 L2,8.5 C2,8.31605878 2.10099516,8.14697095 2.26295009,8.05976445 Z"></path><path d="M13.7390145,26.4840723 C13.9821455,26.6149994 14.0731048,26.9182335 13.9421777,27.1613645 C13.8112506,27.4044955 13.5080165,27.4954548 13.2648855,27.3645277 L4.2658855,22.5185277 C4.02275446,22.3876006 3.9317952,22.0843665 4.0627223,21.8412355 C4.19364941,21.5981045 4.49688345,21.5071452 4.7400145,21.6380723 L13.7390145,26.4840723 Z"></path><path d="M15,15.5 C15,15.2238576 15.2238576,15 15.5,15 C15.7761424,15 16,15.2238576 16,15.5 L16,30.5 C16,30.7761424 15.7761424,31 15.5,31 C15.2238576,31 15,30.7761424 15,30.5 L15,15.5 Z"></path><path d="M28.2629501,8.05976445 C28.5060855,7.9288454 28.8093165,8.01981471 28.9402355,8.26295009 C29.0711546,8.50608547 28.9801853,8.8093165 28.7370499,8.94023555 L15.7370499,15.9402355 C15.5890617,16.0199215 15.4109383,16.0199215 15.2629501,15.9402355 L2.26295009,8.94023555 C2.01981471,8.8093165 1.9288454,8.50608547 2.05976445,8.26295009 C2.1906835,8.01981471 2.49391453,7.9288454 2.73704991,8.05976445 L15.5,14.9321222 L28.2629501,8.05976445 Z"></path><path d="M10.2497008,4.6406511 C10.0064464,4.50995336 9.91520117,4.20680525 10.0458989,3.96355082 C10.1765966,3.7202964 10.4797448,3.62905117 10.7229992,3.7597489 L23.7364992,10.7517489 C23.8986772,10.8388852 23.99985,11.0080955 23.99985,11.1922 L23.99985,17.5002 C23.99985,17.689586 23.8928488,17.8627176 23.7234568,17.9474136 L21.7234568,18.9474136 C21.3910063,19.1136389 20.99985,18.871891 20.99985,18.5002 L20.99985,12.5681558 L8.24970082,5.7176511 C8.0064464,5.58695336 7.91520117,5.28380525 8.0458989,5.04055082 C8.17659664,4.7972964 8.47974475,4.70605117 8.72299918,4.8367489 L21.7364992,11.8287489 C21.8986772,11.9158852 21.99985,12.0850955 21.99985,12.2692 L21.99985,17.691183 L22.99985,17.191183 L22.99985,11.4911558 L10.2497008,4.6406511 Z"></path><path d="M7,21.5 C7,21.7761424 6.77614237,22 6.5,22 C6.22385763,22 6,21.7761424 6,21.5 L6,16.5 C6,16.2238576 6.22385763,16 6.5,16 C6.77614237,16 7,16.2238576 7,16.5 L7,21.5 Z"></path><path d="M5.2773501,17.9160251 C5.04758575,18.0692014 4.73715108,18.0071144 4.58397485,17.7773501 C4.43079862,17.5475858 4.49288556,17.2371511 4.7226499,17.0839749 L6.2226499,16.0839749 C6.44344847,15.9367758 6.74077989,15.9877065 6.9,16.2 L8.4,18.2 C8.56568542,18.4209139 8.5209139,18.7343146 8.3,18.9 C8.0790861,19.0656854 7.76568542,19.0209139 7.6,18.8 L6.38379594,17.1783946 L5.2773501,17.9160251 Z"></path><path d="M12,24 C12,24.2761424 11.7761424,24.5 11.5,24.5 C11.2238576,24.5 11,24.2761424 11,24 L11,19 C11,18.7238576 11.2238576,18.5 11.5,18.5 C11.7761424,18.5 12,18.7238576 12,19 L12,24 Z"></path><path d="M10.2770659,20.4162145 C10.0471969,20.5692337 9.73680475,20.5069348 9.5837855,20.2770659 C9.43076625,20.0471969 9.49306522,19.7368047 9.72293414,19.5837855 L11.2251564,18.5837855 C11.4458315,18.4368864 11.7427996,18.4877507 11.9020089,18.6997158 L13.4042312,20.6997158 C13.5700736,20.9205119 13.5255249,21.2339443 13.3047288,21.3997867 C13.0839327,21.5656291 12.7705003,21.5210803 12.6046579,21.3002842 L11.3861041,19.6779494 L10.2770659,20.4162145 Z"></path></symbol>
</svg>