<?xml version="1.0" encoding="UTF-8"?>
<svg width="32px" height="32px" viewBox="0 0 32 32" version="1.1" xmlns="http://www.w3.org/2000/svg" xmlns:xlink="http://www.w3.org/1999/xlink">
    <!-- Generator: Sketch 49.3 (51167) - http://www.bohemiancoding.com/sketch -->
    <title>ic-molecule</title>
        <symbol id="molecule"><path d="M15,23.0001394 C14.9990765,19.6864088 12.3140948,17 9,17 C5.6859282,17 3,19.6873557 3,23 C3,26.3129297 5.68523045,28.9990396 9.0000696,29 C12.3144895,28.9999624 14.9990765,26.3142106 15,23.0001394 Z M9.00000001,30 C5.13280459,29.9989234 2,26.8651198 2,23 C2,19.1351898 5.13352448,16 9.00000001,16 C12.8664522,16 15.9989226,19.1341354 16,23.0001393 C15.9989227,26.8665309 12.8667854,30 9.00000001,30 Z" id="Stroke-175"></path><path d="M10.5858966,21.5858966 C10.7811588,21.3906345 11.0977412,21.3906345 11.2930034,21.5858966 C11.4882655,21.7811588 11.4882655,22.0977412 11.2930034,22.2930034 C10.902464,22.6835428 10.902567,23.3164603 11.2931543,23.7070475 C11.6833828,24.0976093 12.3161839,24.0976093 12.7068966,23.7068966 C12.9021588,23.5116345 13.2187412,23.5116345 13.4140034,23.7068966 C13.6092655,23.9021588 13.6092655,24.2187412 13.4140034,24.4140034 C12.6327161,25.1952907 11.3665172,25.1952907 10.5858966,24.4140034 C9.80498752,23.6330943 9.80478135,22.3670119 10.5858966,21.5858966 Z" id="Stroke-176"></path><path d="M7.85349661,25.8534966 C8.04875876,25.6582345 8.36534124,25.6582345 8.56060339,25.8534966 C8.75586554,26.0487588 8.75586554,26.3653412 8.56060339,26.5606034 C7.97484124,27.1463655 7.02525876,27.1463655 6.43949661,26.5606034 C5.85373446,25.9748412 5.85373446,25.0252588 6.43949661,24.4394966 C6.63475876,24.2442345 6.95134124,24.2442345 7.14660339,24.4394966 C7.34186554,24.6347588 7.34186554,24.9513412 7.14660339,25.1466034 C6.95136554,25.3418412 6.95136554,25.6582588 7.14660339,25.8534966 C7.34184124,26.0487345 7.65825876,26.0487345 7.85349661,25.8534966 Z" id="Stroke-177"></path><path d="M7.70705339,19.9999466 C7.90231554,20.1952088 7.90231554,20.5117912 7.70705339,20.7070534 C7.31629124,21.0978155 6.68370876,21.0978155 6.29294661,20.7070534 C5.90218446,20.3162912 5.90218446,19.6837088 6.29294661,19.2929466 C6.48820876,19.0976845 6.80479124,19.0976845 7.00005339,19.2929466 C7.19324229,19.4861355 7.19529352,19.7980821 7.00620709,19.9937929 C7.20191788,19.8047065 7.51386449,19.8067577 7.70705339,19.9999466 Z" id="Stroke-178"></path><path d="M14.5689098,26.6545947 C14.3004195,26.590038 14.1350986,26.3200501 14.1996553,26.0515598 C14.264212,25.7830695 14.5341999,25.6177486 14.8026902,25.6823053 C15.6776173,25.8926756 16.5811518,25.99995 17.4998,25.99995 C23.8511576,25.99995 28.9998,20.8513076 28.9998,14.49995 C28.9998,8.14859237 23.8511576,2.99995 17.4998,2.99995 C11.1487665,2.99995 5.9998,8.14876828 5.9998,14.49995 C5.9998,15.4198771 6.10802349,16.326309 6.31991069,17.2064184 C6.38454547,17.4748899 6.21930314,17.7449259 5.95083162,17.8095607 C5.6823601,17.8741955 5.41232409,17.7089531 5.34768931,17.4404816 C5.11740286,16.4839477 4.9998,15.4989585 4.9998,14.49995 C4.9998,7.59647709 10.5964882,1.99995 17.4998,1.99995 C24.4034424,1.99995 29.9998,7.59630763 29.9998,14.49995 C29.9998,21.4035924 24.4034424,26.99995 17.4998,26.99995 C16.5023411,26.99995 15.5203382,26.8833592 14.5689098,26.6545947 Z" id="Stroke-179"></path></symbol>
</svg>