<?xml version="1.0" encoding="UTF-8"?>
<svg width="32px" height="32px" viewBox="0 0 32 32" version="1.1" xmlns="http://www.w3.org/2000/svg" xmlns:xlink="http://www.w3.org/1999/xlink">
        <symbol id="moon"><g transform="translate(16.214152, 16.834103) rotate(19.000000) translate(-16.214152, -16.834103) translate(3.714152, 3.334103)"><path d="M17.4494235,21.4505699 C17.5317306,21.7141608 17.384771,21.9945665 17.1211801,22.0768735 C16.8575892,22.1591806 16.5771835,22.012221 16.4948765,21.7486301 C16.4343462,21.55478 15.9304485,21.4070347 15.3450832,21.5665161 C14.770133,21.72316 14.4506408,22.0777276 14.504747,22.2510058 C14.5655689,22.4449836 15.0694949,22.5927662 15.6549931,22.4336087 C15.9214657,22.3611727 16.1962053,22.5184705 16.2686413,22.7849431 C16.3410773,23.0514157 16.1837795,23.3261553 15.9173069,23.3985913 C14.8771631,23.6813364 13.8068009,23.3674392 13.5503765,22.5496301 C13.2887278,21.7116919 14.030814,20.8881362 15.0822168,20.6016839 C16.1226729,20.318214 17.1939191,20.6323088 17.4494235,21.4505699 Z"></path><path d="M16.3622593,7.6806756 C16.4755188,7.93252259 16.3631714,8.22849985 16.1113244,8.34175931 C15.8594774,8.45501877 15.5635002,8.34267138 15.4502407,8.0908244 C15.1246124,7.36674806 13.2713901,7.2520299 11.3326957,8.0528536 C9.40246393,8.85044416 8.23279789,10.2029244 8.55034021,10.9093556 C8.87562041,11.6334218 10.7289283,11.7482879 12.6672665,10.947162 C12.9224706,10.8416847 13.2148607,10.9630623 13.320338,11.2182665 C13.4258153,11.4734706 13.3044377,11.7658607 13.0492335,11.871338 C10.6741352,12.8529792 8.26000337,12.7033538 7.63820432,11.3192435 C7.00760977,9.9163702 8.5664562,8.11388224 10.950858,7.12862422 C13.3262529,6.14741104 15.739919,6.2968218 16.3622593,7.6806756 Z"></path><path d="M7.10387067,19.478794 C7.3564062,19.3670782 7.65169024,19.4812351 7.76340603,19.7337707 C7.87512181,19.9863062 7.76096486,20.2815902 7.50842933,20.393306 C6.45222488,20.8605461 5.28514641,19.802644 4.7604566,18.2156047 C4.2448626,16.6572363 4.49119384,15.0488492 5.4914917,14.6067405 C6.54805046,14.139678 7.714592,15.1972697 8.23937819,16.7846005 C8.32605901,17.0467856 8.18378465,17.3295974 7.92159951,17.4162782 C7.65941437,17.502959 7.37660264,17.3606846 7.28992181,17.0984995 C6.92467131,15.9937193 6.23719191,15.3704475 5.89577654,15.5213736 C5.4999772,15.6963078 5.33551958,16.7701121 5.70987819,17.9016005 C6.07504247,19.0061199 6.76290062,19.6296311 7.10387067,19.478794 Z"></path><path d="M20.3031125,15.5073291 C20.5471511,15.3781014 20.8497432,15.471174 20.9789709,15.7152125 C21.1081986,15.9592511 21.015126,16.2618432 20.7710875,16.3910709 C19.8993726,16.8526772 19.0453912,15.9234891 18.6745661,14.5800281 C18.3226035,13.3027541 18.4889625,12.0011404 19.2289161,11.6089332 C20.1004003,11.1469529 20.9550629,12.0768822 21.3251339,13.4198719 C21.3984929,13.6860919 21.2421481,13.961375 20.9759281,14.0347339 C20.7097081,14.1080929 20.434425,13.9517481 20.3610661,13.6855281 C20.1383217,12.8771875 19.7560894,12.4612935 19.6972616,12.4924786 C19.5054561,12.5941437 19.3974573,13.4391406 19.6385765,14.3141637 C19.8618384,15.1230184 20.2438739,15.5386982 20.3031125,15.5073291 Z"></path><path d="M1.5,15 C1.5,21.3513576 6.64864237,26.5 13,26.5 C19.3513576,26.5 24.5,21.3513576 24.5,15 C24.5,8.64864237 19.3513576,3.5 13,3.5 C6.64864237,3.5 1.5,8.64864237 1.5,15 Z M0.5,15 C0.5,8.09635763 6.09635763,2.5 13,2.5 C19.9036424,2.5 25.5,8.09635763 25.5,15 C25.5,21.9036424 19.9036424,27.5 13,27.5 C6.09635763,27.5 0.5,21.9036424 0.5,15 Z"></path><path d="M2.5,5.29289322 L5.29289322,2.5 L3.5,0.707106781 L0.707106781,3.5 L2.5,5.29289322 Z M3.20710678,6 L5.35355339,8.14644661 C5.54881554,8.34170876 5.54881554,8.65829124 5.35355339,8.85355339 C5.15829124,9.04881554 4.84170876,9.04881554 4.64644661,8.85355339 L-0.353553391,3.85355339 C-0.548815536,3.65829124 -0.548815536,3.34170876 -0.353553391,3.14644661 L3.14644661,-0.353553391 C3.34170876,-0.548815536 3.65829124,-0.548815536 3.85355339,-0.353553391 L6.35355339,2.14644661 C6.54881554,2.34170876 6.54881554,2.65829124 6.35355339,2.85355339 L3.20710678,6 Z"></path></g></symbol>
</svg>