<?xml version="1.0" encoding="UTF-8"?>
<svg width="32px" height="32px" viewBox="0 0 32 32" version="1.1" xmlns="http://www.w3.org/2000/svg" xmlns:xlink="http://www.w3.org/1999/xlink">
    <!-- Generator: Sketch 49.3 (51167) - http://www.bohemiancoding.com/sketch -->
    <title>ic-organism</title>
    <defs></defs>
        <symbol id="organism"><path d="M21,16 C21,13.2386424 18.7613576,11 16,11 C13.2386424,11 11,13.2386424 11,16 C11,18.7613576 13.2386424,21 16,21 C18.7613576,21 21,18.7613576 21,16 Z M22,16 C22,19.3136424 19.3136424,22 16,22 C12.6863576,22 10,19.3136424 10,16 C10,12.6863576 12.6863576,10 16,10 C19.3136424,10 22,12.6863576 22,16 Z" id="Stroke-194"></path><path d="M13,16 C13,16.2761424 12.7761424,16.5 12.5,16.5 C12.2238576,16.5 12,16.2761424 12,16 C12,13.7908576 13.7908576,12 16,12 C16.2761424,12 16.5,12.2238576 16.5,12.5 C16.5,12.7761424 16.2761424,13 16,13 C14.3431424,13 13,14.3431424 13,16 Z" id="Stroke-195"></path><path d="M6,23.5 C6,22.6716424 5.32835763,22 4.5,22 C3.67164237,22 3,22.6716424 3,23.5 C3,24.3283576 3.67164237,25 4.5,25 C5.32835763,25 6,24.3283576 6,23.5 Z M7,23.5 C7,24.8806424 5.88064237,26 4.5,26 C3.11935763,26 2,24.8806424 2,23.5 C2,22.1193576 3.11935763,21 4.5,21 C5.88064237,21 7,22.1193576 7,23.5 Z" id="Stroke-196"></path><path d="M27,15.5 C27,14.6716424 26.3283576,14 25.5,14 C24.6716424,14 24,14.6716424 24,15.5 C24,16.3283576 24.6716424,17 25.5,17 C26.3283576,17 27,16.3283576 27,15.5 Z M28,15.5 C28,16.8806424 26.8806424,18 25.5,18 C24.1193576,18 23,16.8806424 23,15.5 C23,14.1193576 24.1193576,13 25.5,13 C26.8806424,13 28,14.1193576 28,15.5 Z" id="Stroke-197"></path><path d="M4.18916781,21.4400619 C4.30478203,21.6908367 4.19521279,21.9878536 3.94443806,22.1034678 C3.69366333,22.219082 3.39664641,22.1095128 3.28103219,21.8587381 C3.13636969,21.5449557 3.00318771,21.2255007 2.88225119,20.9019697 C2.78556288,20.6433078 2.91686841,20.3552395 3.17553032,20.2585512 C3.43419222,20.1618629 3.72226049,20.2931684 3.81894881,20.5518303 C3.93120001,20.8521263 4.05485171,21.1487216 4.18916781,21.4400619 Z" id="Stroke-198"></path><path d="M3.11327657,17.7240895 C3.14951224,17.9978441 2.95696509,18.2491409 2.68321048,18.2853766 C2.40945586,18.3216122 2.15815909,18.1290651 2.12192343,17.8553105 C2.04097238,17.2437384 2.0001,16.6242947 2.0001,16.0002 C2.0001,15.2150553 2.06476777,14.4378953 2.19249076,13.674191 C2.2380406,13.4018313 2.49575722,13.2179656 2.76811695,13.2635154 C3.04047668,13.3090652 3.22434244,13.5667818 3.1787926,13.8391416 C3.06017694,14.5483897 3.0001,15.2703782 3.0001,16.0002 C3.0001,16.5803831 3.03808006,17.155992 3.11327657,17.7240895 Z M5.40635658,8.46325627 C5.24607968,8.68812496 4.93385749,8.74048695 4.7089888,8.58021005 C4.48412011,8.41993315 4.43175812,8.10771097 4.59203502,7.88284228 C5.40751155,6.73872768 6.39120371,5.72200184 7.50767066,4.86898427 C7.72709775,4.70133474 8.04088535,4.74330875 8.20853488,4.96273583 C8.37618441,5.18216292 8.3342104,5.49595051 8.11478332,5.66360004 C7.07767595,6.45598427 6.16383468,7.40051353 5.40635658,8.46325627 Z M13.4248291,3.25511874 C13.1540956,3.3095061 12.8905331,3.1341229 12.8361457,2.86338941 C12.7817584,2.59265591 12.9571416,2.32909338 13.2278751,2.27470602 C14.1202971,2.09542832 15.0331806,2.00302001 15.9589056,2.00026133 C16.4805741,2.00019894 16.9640212,2.02445139 17.4480839,2.07421041 C17.7227788,2.10244755 17.9225723,2.34802247 17.8943351,2.62271735 C17.866098,2.89741222 17.6205231,3.09720569 17.3458282,3.06896855 C16.8961286,3.02274188 16.4468394,3.00020298 15.9604565,3.00025911 C15.1013933,3.00282103 14.2534734,3.08865327 13.4248291,3.25511874 Z M22.8465002,4.94685935 C22.6118845,4.80122264 22.5397527,4.4929671 22.6853894,4.25835133 C22.8310261,4.02373556 23.1392817,3.95160378 23.3738974,4.09724049 C24.5674593,4.8381388 25.6441921,5.7553265 26.5663579,6.81530566 C26.7476064,7.02364093 26.7256483,7.33946099 26.517313,7.52070952 C26.3089778,7.70195805 25.9931577,7.67999991 25.8119092,7.47166465 C24.9552605,6.48699394 23.955037,5.63497871 22.8465002,4.94685935 Z M28.5548956,12.6141312 C28.4831642,12.347468 28.6411876,12.0731451 28.9078507,12.0014137 C29.1745138,11.9296823 29.4488368,12.0877057 29.5205682,12.3543688 C29.8335039,13.5177144 29.9957059,14.7234686 30.000015,15.9515973 C30.0000998,16.1822902 29.9965946,16.3715803 29.9888841,16.5655856 C29.977918,16.8415102 29.7453471,17.0563014 29.4694225,17.0453352 C29.193498,17.034369 28.9787068,16.8017981 28.989673,16.5258736 C28.9968365,16.3456297 29.0000951,16.1696576 29.0000181,15.9535364 C28.9960166,14.8137166 28.8454009,13.694091 28.5548956,12.6141312 Z M27.4438816,22.173274 C27.5752062,21.9303575 27.8785887,21.8398944 28.1215052,21.9712191 C28.3644217,22.1025438 28.4548848,22.4059262 28.3235601,22.6488427 C27.6553036,23.8849437 26.8037311,25.0142219 25.8002978,25.9979414 C25.6031082,26.1912569 25.2865413,26.1881164 25.0932258,25.9909268 C24.8999103,25.7937372 24.9030508,25.4771703 25.1002404,25.2838548 C26.0323556,24.3700522 26.8233288,23.3211354 27.4438816,22.173274 Z M20.180741,28.3134846 C20.4422312,28.2247292 20.7261612,28.3647585 20.8149165,28.6262487 C20.9036718,28.8877389 20.7636425,29.1716689 20.5021524,29.2604242 C19.1806235,29.7089791 17.7927177,29.9581608 16.3731567,29.9953223 C16.0971089,30.0025487 15.8674698,29.7846259 15.8602434,29.5085781 C15.8530169,29.2325303 16.0709397,29.0028912 16.3469875,28.9956647 C17.6657219,28.9611427 18.9541153,28.7298273 20.180741,28.3134846 Z M10.5810558,27.8205378 C10.8320019,27.9357797 10.9420118,28.2326337 10.8267699,28.4835797 C10.7115279,28.7345257 10.414674,28.8445357 10.1637279,28.7292937 C9.18511213,28.2798841 8.26212302,27.7185931 7.41262969,27.0578761 C7.1946561,26.8883411 7.15538887,26.5742033 7.32492389,26.3562297 C7.49445891,26.1382561 7.80859671,26.0989889 8.02657031,26.2685239 C8.81549477,26.8821318 9.67253565,27.4033181 10.5810558,27.8205378 Z" id="Stroke-199"></path><path d="M6.92447121,25.3080718 C7.12220473,25.5008309 7.1262373,25.8173877 6.93347821,26.0151212 C6.74071912,26.2128547 6.42416231,26.2168873 6.22642879,26.0241282 C5.97995217,25.7838523 5.74148006,25.5335797 5.51166655,25.2741296 C5.32856779,25.0674186 5.34770932,24.7514153 5.55442037,24.5683165 C5.76113141,24.3852178 6.07713469,24.4043593 6.26023345,24.6110704 C6.47391491,24.852308 6.69553965,25.0848995 6.92447121,25.3080718 Z" id="Stroke-200"></path><path d="M24.8891866,17.4165541 C24.9323178,17.1438009 25.1883927,16.9576555 25.4611459,17.0007866 C25.7338991,17.0439178 25.9200445,17.2999927 25.8769134,17.5727459 C25.8217235,17.921756 25.748583,18.2655824 25.6578652,18.6026096 C25.5860904,18.8692611 25.3117418,19.0272399 25.0450904,18.9554652 C24.7784389,18.8836904 24.6204601,18.6093418 24.6922348,18.3426904 C24.7737327,18.0399163 24.8395075,17.7307155 24.8891866,17.4165541 Z" id="Stroke-201"></path><path d="M23.5139303,20.9555988 C23.6661959,20.7252299 23.9763824,20.6619147 24.2067512,20.8141803 C24.4371201,20.9664459 24.5004353,21.2766324 24.3481697,21.5070012 C23.556218,22.7051775 22.513786,23.7220297 21.2961315,24.4836862 C21.0620171,24.6301274 20.7535157,24.5590542 20.6070745,24.3249397 C20.4606333,24.0908252 20.5317065,23.7823239 20.765821,23.6358827 C21.8620858,22.9501568 22.8008849,22.0343946 23.5139303,20.9555988 Z M15.2049843,24.9651936 C15.4800764,24.9892548 15.6835771,25.2317666 15.6595158,25.5068587 C15.6354545,25.7819508 15.3929428,25.9854515 15.1178507,25.9613902 C13.6726194,25.8349812 12.2894392,25.3985784 11.0468626,24.6888018 C10.8070816,24.5518357 10.7237338,24.2464219 10.8606999,24.006641 C10.997666,23.76686 11.3030798,23.6835122 11.5428607,23.8204783 C12.6607209,24.4590151 13.9045402,24.8514486 15.2049843,24.9651936 Z M7.70763696,19.5041561 C7.81524723,19.7584682 7.69632192,20.0518643 7.44200983,20.1594745 C7.18769774,20.2670848 6.89430169,20.1481595 6.78669141,19.8938474 C6.26982338,18.6723489 6.00005,17.3545031 6.00005,15.9998 C6.00005,15.9333655 6.00069849,15.8670033 6.00199398,15.8007195 C6.00739007,15.5246299 6.23557934,15.3051894 6.51166899,15.3105855 C6.78775864,15.3159816 7.00719913,15.5441709 7.00180304,15.8202605 C7.00063483,15.8800316 7.00005,15.9398798 7.00005,15.9998 C7.00005,17.2200166 7.24270805,18.4054038 7.70763696,19.5041561 Z M8.90356427,10.4637339 C8.73355395,10.681337 8.4193312,10.7199186 8.20172812,10.5499083 C7.98412504,10.3798979 7.94554348,10.0656752 8.1155538,9.8480721 C8.99992311,8.71613207 10.1189108,7.78438535 11.3936246,7.12172152 C11.6386375,6.99435083 11.9405141,7.08971868 12.0678848,7.33473157 C12.1952555,7.57974446 12.0998876,7.881621 11.8548747,8.0089917 C10.7075411,8.60543656 9.69990737,9.44446221 8.90356427,10.4637339 Z M17.4787417,7.12062953 C17.2062941,7.07560785 17.0219291,6.8182482 17.0669508,6.54580066 C17.1119724,6.27335313 17.3693321,6.08898805 17.6417796,6.13400973 C19.0685044,6.36977459 20.4158248,6.91145462 21.602823,7.71583006 C21.8314214,7.87074095 21.891157,8.18163665 21.7362461,8.41023506 C21.5813352,8.63883346 21.2704395,8.69856899 21.0418411,8.5436581 C19.9737364,7.81985142 18.7620201,7.33269001 17.4787417,7.12062953 Z" id="Stroke-202"></path><path d="M24.3977606,12.7558953 C24.2982967,12.498288 24.4264973,12.2088245 24.6841047,12.1093606 C24.941712,12.0098967 25.2311755,12.1380973 25.3306394,12.3957047 C25.4575654,12.7244378 25.5667433,13.0582931 25.6575941,13.396634 C25.7292067,13.663329 25.5710611,13.9375816 25.304366,14.0091941 C25.037671,14.0808067 24.7634184,13.9226611 24.6918059,13.655966 C24.6101902,13.3520181 24.512018,13.0518172 24.3977606,12.7558953 Z" id="Stroke-203"></path>
        </symbol>
</svg>