<?xml version="1.0" encoding="UTF-8"?>
<svg width="42px" height="54px" viewBox="0 0 42 54" version="1.1" xmlns="http://www.w3.org/2000/svg" xmlns:xlink="http://www.w3.org/1999/xlink">
    <!-- Generator: Sketch 51.1 (57501) - http://www.bohemiancoding.com/sketch -->
    <title>ic-paper-black</title>
    <desc>Created with Sketch.</desc>
    <defs></defs>
    <g id="design" stroke="none" stroke-width="1" fill="none" fill-rule="evenodd" opacity="0.800000012" stroke-linecap="round" stroke-linejoin="round">
        <g id="Welcome-2" transform="translate(-577.000000, -394.000000)" stroke="#000000" stroke-width="2">
            <g id="ic-paper-black" transform="translate(578.000000, 395.000000)">
                <path d="M3,0 L29,0 L40,11 L40,49 C40,50.656 38.656,52 37,52 L3,52 C1.344,52 0,50.656 0,49 L0,3 C0,1.344 1.344,0 3,0" id="Stroke-1"></path>
                <path d="M28,0 L28,9 C28,10.656 29.344,12 31,12 L40,12" id="Stroke-3"></path>
                <path d="M6,30 L34,30" id="Stroke-5"></path>
                <path d="M34,36 L6,36" id="Stroke-7"></path>
                <path d="M6,42 L28,42" id="Stroke-9"></path>
                <path d="M6,24.002 C6,20.688 8.687,18.002 12,18.002 C15.313,18.002 18,20.688 18,24.002" id="Stroke-11"></path>
                <path d="M16,14.002 C16,16.21 14.209,18.002 12,18.002 C9.791,18.002 8,16.21 8,14.002 C8,11.792 9.791,10.002 12,10.002 C14.209,10.002 16,11.792 16,14.002 Z" id="Stroke-13"></path>
            </g>
        </g>
    </g>
</svg>