<?xml version="1.0" encoding="UTF-8"?>
<svg width="32px" height="32px" viewBox="0 0 32 32" version="1.1" xmlns="http://www.w3.org/2000/svg" xmlns:xlink="http://www.w3.org/1999/xlink">

        <symbol id="paper"><path d="M20.1550554,2.5 L6.58918919,2.5 C5.98809913,2.5 5.5,2.98809913 5.5,3.58918919 L5.5,27.9567568 C5.5,28.5578468 5.98809913,29.0459459 6.58918919,29.0459459 L24.6,29.0459459 C25.2010901,29.0459459 25.6891892,28.5578468 25.6891892,27.9567568 L25.6891892,8.03413381 L20.1550554,2.5 Z M6.58918919,1.5 L20.3621622,1.5 C20.4947704,1.5 20.6219474,1.55267842 20.7157156,1.64644661 L26.5427426,7.47347364 C26.6365108,7.56724183 26.6891892,7.69441878 26.6891892,7.82702703 L26.6891892,27.9567568 C26.6891892,29.1101316 25.7533748,30.0459459 24.6,30.0459459 L6.58918919,30.0459459 C5.43581438,30.0459459 4.5,29.1101316 4.5,27.9567568 L4.5,3.58918919 C4.5,2.43581438 5.43581438,1.5 6.58918919,1.5 Z"></path><path d="M19.3324324,2 C19.3324324,1.72385763 19.5562901,1.5 19.8324324,1.5 C20.1085748,1.5 20.3324324,1.72385763 20.3324324,2 L20.3324324,6.76756757 C20.3324324,7.36865763 20.8205316,7.85675676 21.4216216,7.85675676 L26.1891892,7.85675676 C26.4653316,7.85675676 26.6891892,8.08061438 26.6891892,8.35675676 C26.6891892,8.63289913 26.4653316,8.85675676 26.1891892,8.85675676 L21.4216216,8.85675676 C20.2682468,8.85675676 19.3324324,7.92094237 19.3324324,6.76756757 L19.3324324,2 Z"></path><path d="M8.17837838,18.3918919 C7.902236,18.3918919 7.67837838,18.1680343 7.67837838,17.8918919 C7.67837838,17.6157495 7.902236,17.3918919 8.17837838,17.3918919 L23.0108108,17.3918919 C23.2869532,17.3918919 23.5108108,17.6157495 23.5108108,17.8918919 C23.5108108,18.1680343 23.2869532,18.3918919 23.0108108,18.3918919 L8.17837838,18.3918919 Z"></path><path d="M23.0108108,20.5702703 C23.2869532,20.5702703 23.5108108,20.7941279 23.5108108,21.0702703 C23.5108108,21.3464126 23.2869532,21.5702703 23.0108108,21.5702703 L8.17837838,21.5702703 C7.902236,21.5702703 7.67837838,21.3464126 7.67837838,21.0702703 C7.67837838,20.7941279 7.902236,20.5702703 8.17837838,20.5702703 L23.0108108,20.5702703 Z"></path><path d="M8.17837838,24.7486486 C7.902236,24.7486486 7.67837838,24.524791 7.67837838,24.2486486 C7.67837838,23.9725063 7.902236,23.7486486 8.17837838,23.7486486 L19.8324324,23.7486486 C20.1085748,23.7486486 20.3324324,23.9725063 20.3324324,24.2486486 C20.3324324,24.524791 20.1085748,24.7486486 19.8324324,24.7486486 L8.17837838,24.7486486 Z"></path><path d="M8.67837838,14.714573 C8.67837838,14.9907153 8.45452075,15.214573 8.17837838,15.214573 C7.902236,15.214573 7.67837838,14.9907153 7.67837838,14.714573 C7.67837838,12.6830763 9.32544971,11.0361946 11.3567568,11.0361946 C13.3880638,11.0361946 15.0351351,12.6830763 15.0351351,14.714573 C15.0351351,14.9907153 14.8112775,15.214573 14.5351351,15.214573 C14.2589928,15.214573 14.0351351,14.9907153 14.0351351,14.714573 C14.0351351,13.2353868 12.8358048,12.0361946 11.3567568,12.0361946 C9.87770869,12.0361946 8.67837838,13.2353868 8.67837838,14.714573 Z"></path><path d="M12.9756757,9.41727568 C12.9756757,8.52291763 12.2509897,7.79835676 11.3567568,7.79835676 C10.4625238,7.79835676 9.73783784,8.52291763 9.73783784,9.41727568 C9.73783784,10.3109788 10.4629284,11.0361946 11.3567568,11.0361946 C12.2505851,11.0361946 12.9756757,10.3109788 12.9756757,9.41727568 Z M13.9756757,9.41727568 C13.9756757,10.8632249 12.8029085,12.0361946 11.3567568,12.0361946 C9.910605,12.0361946 8.73783784,10.8632249 8.73783784,9.41727568 C8.73783784,7.97059422 9.91027776,6.79835676 11.3567568,6.79835676 C12.8032358,6.79835676 13.9756757,7.97059422 13.9756757,9.41727568 Z"></path></symbol>
</svg>