<?xml version="1.0" encoding="UTF-8"?>
<svg width="32px" height="32px" viewBox="0 0 32 32" version="1.1" xmlns="http://www.w3.org/2000/svg" xmlns:xlink="http://www.w3.org/1999/xlink">
        <symbol id="sign"><path d="M16.2340139,12.3459708 C16.0374633,12.1520058 16.0353672,11.8354302 16.2293323,11.6388795 C16.4232974,11.4423289 16.7398729,11.4402328 16.9364236,11.6341979 L20.5603298,15.2104323 C20.7568805,15.4043974 20.7589765,15.7209729 20.5650115,15.9175236 C20.3710464,16.1140742 20.0544708,16.1161703 19.8579202,15.9222052 L16.2340139,12.3459708 Z"></path><path d="M17.2383411,10.8559681 C16.5432991,11.5416336 15.4191416,11.5416336 14.7240995,10.8559681 C14.0252814,10.1665776 14.0252814,9.04555992 14.7239475,8.35631942 C15.4190259,7.67003207 16.5434147,7.67003207 17.2383411,8.3561694 C17.9371592,9.04555992 17.9371592,10.1665776 17.2383411,10.8559681 Z M16.5360526,10.1440757 C16.837922,9.84627867 16.837922,9.36585883 16.5359006,9.06791183 C16.2302915,8.76616793 15.7321491,8.76616793 15.426388,9.06806185 C15.1245186,9.36585883 15.1245186,9.84627867 15.426388,10.1440757 C15.7320334,10.4455977 16.2304072,10.4455977 16.5360526,10.1440757 Z"></path><path d="M27.2042854,5.07797986 C27.4008279,5.27195319 27.4029107,5.58852883 27.2089373,5.78507134 C27.014964,5.98161386 26.6983884,5.98369659 26.5018458,5.78972326 C25.2634844,4.56754953 17.9198513,6.60695088 15.4263693,9.06770176 C15.2298214,9.26166963 14.9132458,9.25957811 14.7192779,9.06303022 C14.5253101,8.86648232 14.5274016,8.54990674 14.7239495,8.35593887 C17.5554519,5.56160464 25.4678567,3.36424962 27.2042854,5.07797986 Z"></path><path d="M12.2675961,22.2771441 C12.0780303,22.3660467 11.8531477,22.3274217 11.7041099,22.1803619 L9.89215679,20.3924556 C9.7400227,20.2423405 9.70012534,20.0121257 9.79287315,19.8195714 C10.8200053,17.6871359 13.2428016,14.585829 16.2341727,11.6342499 C21.1685252,6.76453571 25.8708114,3.76193213 27.2042015,5.07789598 C28.5462752,6.40242991 25.501205,11.046703 20.560472,15.9222736 C17.5685559,18.8743905 14.4267475,21.2645452 12.2675961,22.2771441 Z M19.858095,15.2104684 C22.1076621,12.9905704 24.0226329,10.7240913 25.2395671,8.86805049 C26.3365074,7.19502158 26.7285456,6.01345912 26.501761,5.7896384 C26.2689363,5.55985653 25.0645118,5.94905711 23.3641675,7.03479701 C21.4829623,8.23602409 19.1860798,10.125993 16.9365657,12.3460392 C14.1692878,15.0765061 11.9065394,17.9313566 10.8536627,19.9363404 L12.1539606,21.2193817 C14.1867197,20.1826398 17.0849728,17.9467019 19.858095,15.2104684 Z"></path><path d="M10.7019355,22.2252115 C10.9523035,21.723295 11.2079207,21.3737968 11.3914425,21.1813649 C11.5820234,20.9815312 11.898517,20.9740303 12.0983507,21.1646112 C12.2981845,21.3551921 12.3056853,21.6716858 12.1151044,21.8715195 C11.9966692,21.9957048 11.7993508,22.2654927 11.5967833,22.671583 C11.252615,23.3615424 11.0454453,24.1730353 11.0454453,25.1026766 C11.0454453,25.364147 10.8439903,25.5814642 10.5832691,25.6012439 C10.4063818,25.6146634 10.0888805,25.6485881 9.67843629,25.7094 C8.99429868,25.8107626 8.3107958,25.9515627 7.67699898,26.1371087 C6.68103635,26.4286799 5.91019859,26.8029631 5.46079485,27.2464652 C4.98628496,27.7147438 4.28386713,27.0029789 4.75837702,26.5347004 C5.20711164,26.0918586 5.58555977,25.3328854 5.88056289,24.3517505 C6.06836426,23.7271521 6.21091511,23.05345 6.31355384,22.3791057 C6.375128,21.9745588 6.40947593,21.6616939 6.423052,21.4875751 C6.44334593,21.227297 6.66047101,21.0264422 6.92153906,21.0264422 C7.86642385,21.0264422 8.69132288,20.8212972 9.39254021,20.4806043 C9.80502825,20.2801932 10.0789951,20.0850501 10.2051967,19.9678481 C10.4075402,19.779934 10.7239065,19.7916313 10.9118206,19.9939748 C11.0997348,20.1963183 11.0880374,20.5126846 10.885694,20.7005987 C10.6909541,20.8814514 10.3372501,21.1333904 9.82954963,21.3800613 C9.11263037,21.7283831 8.2915635,21.956169 7.37306666,22.0126787 C7.35344806,22.1741571 7.32992885,22.3471875 7.30216807,22.529578 C7.19296002,23.2470832 7.04100485,23.9652305 6.83821098,24.6396917 C6.75128356,24.9287989 6.65728526,25.2026487 6.55557163,25.4599079 C6.81891675,25.3581408 7.09953488,25.2641918 7.39603815,25.1773895 C8.07864677,24.9775537 8.80557831,24.8278073 9.53187512,24.7201984 C9.71827867,24.6925806 9.89501892,24.6692252 10.0598087,24.6497861 C10.1178496,23.7432028 10.348985,22.9327768 10.7019355,22.2252115 Z"></path><path d="M19.0312922,26.390625 L19.8750422,26.390625 C20.027602,26.390625 20.177442,26.364974 20.3205879,26.318943 C19.9938916,25.9004159 19.7969172,25.4054492 19.7969172,24.9217344 C19.7969172,23.7963024 20.3476974,23.015625 21.1406672,23.015625 C21.9639822,23.015625 22.4844172,23.7779796 22.4844172,24.9217344 C22.4844172,25.4111396 22.2920586,25.9039859 21.9712105,26.3192386 C22.1116783,26.3650267 22.2580412,26.390625 22.4062922,26.390625 L25.3594172,26.390625 C25.6355596,26.390625 25.8594172,26.6144826 25.8594172,26.890625 C25.8594172,27.1667674 25.6355596,27.390625 25.3594172,27.390625 L22.4062922,27.390625 C21.9558287,27.390625 21.524645,27.2587627 21.1471173,27.0398619 C20.7674543,27.2592308 20.332022,27.390625 19.8750422,27.390625 L19.0312922,27.390625 C18.4733482,27.390625 17.9311377,27.2423381 17.4480158,26.9816838 C16.9467126,27.2462372 16.3439227,27.390625 15.6562922,27.390625 L9.32816719,27.390625 C9.05202481,27.390625 8.82816719,27.1667674 8.82816719,26.890625 C8.82816719,26.6144826 9.05202481,26.390625 9.32816719,26.390625 L15.6562922,26.390625 C15.9770519,26.390625 16.2691103,26.3517062 16.5308126,26.2768189 C15.9483861,25.6596506 15.5781672,24.8362403 15.5781672,23.9375 C15.5781672,22.4243201 16.2000367,21.328125 17.3437922,21.328125 C18.5214896,21.328125 19.1094172,22.3679161 19.1094172,23.9375 C19.1094172,24.8801289 18.8336278,25.6830851 18.3298311,26.276838 C18.5557445,26.350642 18.7920276,26.390625 19.0312922,26.390625 Z M21.4844172,24.9217344 C21.4844172,24.2671701 21.3126954,24.015625 21.1406672,24.015625 C20.9896983,24.015625 20.7969172,24.2888735 20.7969172,24.9217344 C20.7969172,25.1947011 20.9304166,25.4941536 21.14628,25.7510685 C21.3560854,25.4974155 21.4844172,25.2002548 21.4844172,24.9217344 Z M18.1094172,23.9375 C18.1094172,22.8468625 17.8161082,22.328125 17.3437922,22.328125 C16.9044654,22.328125 16.5781672,22.9033043 16.5781672,23.9375 C16.5781672,24.6548273 16.9231039,25.312287 17.4400151,25.7656253 C17.8775614,25.341518 18.1094172,24.7165936 18.1094172,23.9375 Z"></path></symbol>
</svg>