<?xml version="1.0" encoding="UTF-8"?>
<svg width="32px" height="32px" viewBox="0 0 32 32" version="1.1" xmlns="http://www.w3.org/2000/svg" xmlns:xlink="http://www.w3.org/1999/xlink">
    <symbol id="truck"><path d="M21.5,24 C21.5,22.0673576 23.0673576,20.5 25,20.5 C26.9326424,20.5 28.5,22.0673576 28.5,24 C28.5,25.9326424 26.9326424,27.5 25,27.5 C23.0673576,27.5 21.5,25.9326424 21.5,24 Z M22.5,24 C22.5,25.3803576 23.6196424,26.5 25,26.5 C26.3803576,26.5 27.5,25.3803576 27.5,24 C27.5,22.6196424 26.3803576,21.5 25,21.5 C23.6196424,21.5 22.5,22.6196424 22.5,24 Z"></path><path d="M3.5,24 C3.5,22.0673576 5.06735763,20.5 7,20.5 C8.93264237,20.5 10.5,22.0673576 10.5,24 C10.5,25.9326424 8.93264237,27.5 7,27.5 C5.06735763,27.5 3.5,25.9326424 3.5,24 Z M4.5,24 C4.5,25.3803576 5.61964237,26.5 7,26.5 C8.38035763,26.5 9.5,25.3803576 9.5,24 C9.5,22.6196424 8.38035763,21.5 7,21.5 C5.61964237,21.5 4.5,22.6196424 4.5,24 Z"></path><path d="M10.4891356,24.5 C10.2129932,24.5 9.98913557,24.2761424 9.98913557,24 C9.98913557,23.7238576 10.2129932,23.5 10.4891356,23.5 L22,23.5 C22.2761424,23.5 22.5,23.7238576 22.5,24 C22.5,24.2761424 22.2761424,24.5 22,24.5 L10.4891356,24.5 Z"></path><path d="M23.5,24 C23.5,23.1718576 24.1718576,22.5 25,22.5 C25.8281424,22.5 26.5,23.1718576 26.5,24 C26.5,24.8281424 25.8281424,25.5 25,25.5 C24.1718576,25.5 23.5,24.8281424 23.5,24 Z M24.5,24 C24.5,24.2758576 24.7241424,24.5 25,24.5 C25.2758576,24.5 25.5,24.2758576 25.5,24 C25.5,23.7241424 25.2758576,23.5 25,23.5 C24.7241424,23.5 24.5,23.7241424 24.5,24 Z"></path><path d="M5.5,24 C5.5,23.1718576 6.17185763,22.5 7,22.5 C7.82814237,22.5 8.5,23.1718576 8.5,24 C8.5,24.8281424 7.82814237,25.5 7,25.5 C6.17185763,25.5 5.5,24.8281424 5.5,24 Z M6.5,24 C6.5,24.2758576 6.72414237,24.5 7,24.5 C7.27585763,24.5 7.5,24.2758576 7.5,24 C7.5,23.7241424 7.27585763,23.5 7,23.5 C6.72414237,23.5 6.5,23.7241424 6.5,24 Z"></path><path d="M3.5,23.5 L4,23.5 C4.27614237,23.5 4.5,23.7238576 4.5,24 C4.5,24.2761424 4.27614237,24.5 4,24.5 L3,24.5 C2.72385763,24.5 2.5,24.2761424 2.5,24 L2.5,6 C2.5,5.72385763 2.72385763,5.5 3,5.5 L20,5.5 C20.2761424,5.5 20.5,5.72385763 20.5,6 L20.5,24 C20.5,24.2761424 20.2761424,24.5 20,24.5 C19.7238576,24.5 19.5,24.2761424 19.5,24 L19.5,6.5 L3.5,6.5 L3.5,23.5 Z"></path><path d="M28,24.5 C27.7238576,24.5 27.5,24.2761424 27.5,24 C27.5,23.7238576 27.7238576,23.5 28,23.5 L29,23.5 C29.2758576,23.5 29.5,23.2758576 29.5,23 L29.5,16.664 C29.5,16.3159444 29.4091734,15.9739606 29.2363762,15.6715655 L25.8538784,9.75206947 C25.7648539,9.59627657 25.598979,9.5 25.4195,9.5 L20,9.5 C19.7238576,9.5 19.5,9.27614237 19.5,9 C19.5,8.72385763 19.7238576,8.5 20,8.5 L25.4195,8.5 C25.9578627,8.5 26.4550675,8.78858596 26.7221238,9.25593448 L30.1046216,15.1754305 C30.3637544,15.6289129 30.5,16.14191 30.5,16.664 L30.5,23 C30.5,23.8281424 29.8281424,24.5 29,24.5 L28,24.5 Z"></path><path d="M27.9472136,15.7763932 C28.1134389,16.1088437 27.871691,16.5 27.5,16.5 L22,16.5 C21.7238576,16.5 21.5,16.2761424 21.5,16 L21.5,11 C21.5,10.7238576 21.7238576,10.5 22,10.5 L25,10.5 C25.189386,10.5 25.3625176,10.6070012 25.4472136,10.7763932 L27.9472136,15.7763932 Z M24.690983,11.5 L22.5,11.5 L22.5,15.5 L26.690983,15.5 L24.690983,11.5 Z"></path></symbol>
</svg>