<?xml version="1.0" encoding="UTF-8"?>
<svg width="56px" height="44px" viewBox="0 0 56 44" version="1.1" xmlns="http://www.w3.org/2000/svg" xmlns:xlink="http://www.w3.org/1999/xlink">
    <!-- Generator: Sketch 51.1 (57501) - http://www.bohemiancoding.com/sketch -->
    <title>ic-truck-black</title>
    <desc>Created with Sketch.</desc>
    <defs></defs>
    <g id="design" stroke="none" stroke-width="1" fill="none" fill-rule="evenodd" opacity="0.800000012" stroke-linecap="round" stroke-linejoin="round">
        <g id="Welcome-2" transform="translate(-230.000000, -394.000000)" stroke="#000000" stroke-width="2">
            <g id="ic-truck-black" transform="translate(231.000000, 395.000000)">
                <path d="M38,36 C38,39.313 40.687,42 44,42 C47.313,42 50,39.313 50,36 C50,32.687 47.313,30 44,30 C40.687,30 38,32.687 38,36 Z" id="Stroke-1"></path>
                <path d="M2,36 C2,39.313 4.687,42 8,42 C11.313,42 14,39.313 14,36 C14,32.687 11.313,30 8,30 C4.687,30 2,32.687 2,36 Z" id="Stroke-3"></path>
                <path d="M14,36 L38,36" id="Stroke-5"></path>
                <path d="M42,36 C42,37.104 42.896,38 44,38 C45.104,38 46,37.104 46,36 C46,34.896 45.104,34 44,34 C42.896,34 42,34.896 42,36 Z" id="Stroke-7"></path>
                <path d="M6,36 C6,37.104 6.896,38 8,38 C9.104,38 10,37.104 10,36 C10,34.896 9.104,34 8,34 C6.896,34 6,34.896 6,36 Z" id="Stroke-9"></path>
                <polyline id="Stroke-11" points="2 36 0 36 0 0 34 0 34 36"></polyline>
                <path d="M50,36 L52,36 C53.104,36 54,35.104 54,34 L54,21.328 C54,20.458 53.773,19.603 53.341,18.847 L46.576,7.008 C46.22,6.385 45.557,6 44.839,6 L34,6" id="Stroke-13"></path>
                <polygon id="Stroke-15" points="49 20 44 10 38 10 38 20"></polygon>
            </g>
        </g>
    </g>
</svg>