<?xml version="1.0" encoding="UTF-8"?>
<svg width="32px" height="32px" viewBox="0 0 32 32" version="1.1" xmlns="http://www.w3.org/2000/svg" xmlns:xlink="http://www.w3.org/1999/xlink">
        <symbol id="template"><path d="M29.5,10 C29.7761424,10 30,10.2238576 30,10.5 C30,10.7761424 29.7761424,11 29.5,11 L2.5,11 C2.22385763,11 2,10.7761424 2,10.5 C2,10.2238576 2.22385763,10 2.5,10 L29.5,10 Z"></path><path d="M28,5 C29.1046424,5 30,5.89535763 30,7 L30,26 C30,27.1046424 29.1046424,28 28,28 L4,28 C2.89535763,28 2,27.1046424 2,26 L2,7 C2,5.89535763 2.89535763,5 4,5 L28,5 Z M28,6 L4,6 C3.44764237,6 3,6.44764237 3,7 L3,26 C3,26.5523576 3.44764237,27 4,27 L28,27 C28.5523576,27 29,26.5523576 29,26 L29,7 C29,6.44764237 28.5523576,6 28,6 Z"></path><path d="M13,8 C13,8.553 12.553,9 12,9 C11.447,9 11,8.553 11,8 C11,7.447 11.447,7 12,7 C12.553,7 13,7.447 13,8 L13,8 Z" ></path><path d="M10,8 C10,8.553 9.553,9 9,9 C8.447,9 8,8.553 8,8 C8,7.447 8.447,7 9,7 C9.553,7 10,7.447 10,8 L10,8 Z" ></path><path d="M7,8 C7,8.553 6.553,9 6,9 C5.447,9 5,8.553 5,8 C5,7.447 5.447,7 6,7 C6.553,7 7,7.447 7,8 L7,8 Z" ></path><path d="M12,10.5 C12,10.2238576 12.2238576,10 12.5,10 C12.7761424,10 13,10.2238576 13,10.5 L13,27.5 C13,27.7761424 12.7761424,28 12.5,28 C12.2238576,28 12,27.7761424 12,27.5 L12,10.5 Z"></path><path d="M12.5,19 C12.2238576,19 12,18.7761424 12,18.5 C12,18.2238576 12.2238576,18 12.5,18 L29.5,18 C29.7761424,18 30,18.2238576 30,18.5 C30,18.7761424 29.7761424,19 29.5,19 L12.5,19 Z"></path></symbol>
</svg>