<?xml version="1.0" encoding="UTF-8"?>
<svg width="29px" height="23px" viewBox="0 0 29 23" version="1.1" xmlns="http://www.w3.org/2000/svg" xmlns:xlink="http://www.w3.org/1999/xlink">
    <!-- Generator: Sketch 49.3 (51167) - http://www.bohemiancoding.com/sketch -->
    <title>ic-truck-blue</title>
    <desc>Created with Sketch.</desc>
    <defs></defs>
    <g id="Symbols" stroke="none" stroke-width="1" fill="none" fill-rule="evenodd" stroke-linecap="round" stroke-linejoin="round">
        <g id="nav---logistics" transform="translate(-21.000000, -103.000000)" stroke="#1186C9">
            <g id="nav">
                <g id="ic-truck-blue" transform="translate(22.000000, 104.000000)">
                    <path d="M19,18 C19,19.6565 20.3435,21 22,21 C23.6565,21 25,19.6565 25,18 C25,16.3435 23.6565,15 22,15 C20.3435,15 19,16.3435 19,18 Z" id="Stroke-1"></path>
                    <path d="M1,18 C1,19.6565 2.3435,21 4,21 C5.6565,21 7,19.6565 7,18 C7,16.3435 5.6565,15 4,15 C2.3435,15 1,16.3435 1,18 Z" id="Stroke-3"></path>
                    <path d="M7.48913557,18 L19,18" id="Stroke-5"></path>
                    <path d="M21,18 C21,18.552 21.448,19 22,19 C22.552,19 23,18.552 23,18 C23,17.448 22.552,17 22,17 C21.448,17 21,17.448 21,18 Z" id="Stroke-7"></path>
                    <path d="M3,18 C3,18.552 3.448,19 4,19 C4.552,19 5,18.552 5,18 C5,17.448 4.552,17 4,17 C3.448,17 3,17.448 3,18 Z" id="Stroke-9"></path>
                    <polyline id="Stroke-11" points="1 18 0 18 0 0 17 0 17 18"></polyline>
                    <path d="M25,18 L26,18 C26.552,18 27,17.552 27,17 L27,10.664 C27,10.229 26.8865,9.8015 26.6705,9.4235 L23.288,3.504 C23.11,3.1925 22.7785,3 22.4195,3 L17,3" id="Stroke-13"></path>
                    <polygon id="Stroke-15" points="24.5 10 22 5 19 5 19 10"></polygon>
                </g>
            </g>
        </g>
    </g>
</svg>