<?xml version="1.0" encoding="UTF-8"?>
<svg width="62px" height="72px" viewBox="0 0 62 51" version="1.1" xmlns="http://www.w3.org/2000/svg" xmlns:xlink="http://www.w3.org/1999/xlink">
    <!-- Generator: Sketch 50.2 (55047) - http://www.bohemiancoding.com/sketch -->
    <title>sketch-no-pet</title>
    <desc>Created with Sketch.</desc>
    <defs></defs>
    <g id="design" stroke="none" stroke-width="1" fill="none" fill-rule="evenodd">
        <g id="Pets" transform="translate(-554.000000, -388.000000)">
            <g id="sketch-no-pet" transform="translate(554.000000, 388.000000)">
                <g id="Group-3">
                    <path d="M50.7202,3.55836494 C50.7253111,3.3707026 50.7306444,3.18326104 50.7357556,2.99537792 C49.5984222,2.71631299 48.4746444,2.31007922 47.3204222,2.19085844 C45.9766444,2.05176753 44.6055333,2.19792338 43.2484222,2.15774156 C41.5646444,2.10806623 39.8306444,1.69057273 38.2097556,1.96522208 C33.5324222,2.75737792 28.8244222,1.77402727 24.1313111,2.52909221 C20.5982,3.09737792 16.9517556,2.9457026 13.3648667,3.22852078 C12.7830889,3.27444286 12.1222,3.81137792 11.7206444,4.30172857 C11.0095333,5.17027403 11.3173111,5.61006623 12.4328667,5.76946883 C13.1217556,5.86749481 13.7802,6.19027403 14.4453111,6.43136494 C14.8215333,6.56758571 15.1815333,6.87071558 15.5524222,6.87645584 C16.8042,6.89566364 18.0584222,6.76010519 19.3097556,6.78637792 C21.3237556,6.82854675 23.3435333,7.1054039 25.3475333,7.01068961 C29.7968667,6.79962468 34.2528667,6.55433896 38.6770889,6.06244286 C41.8450889,5.71007922 44.9695333,4.95545584 48.1042,4.33462468 C48.9928667,4.15866364 49.8490889,3.82153377 50.7202,3.55836494 M50.4173111,6.2203 C48.9768667,6.56493636 47.1626444,7.16413117 45.3010889,7.41096234 C41.3886444,7.93001429 37.4550889,8.30445584 33.5226444,8.65902727 C31.1008667,8.87737792 28.6668667,9.03854675 26.2364222,9.06393636 C22.9599778,9.0985987 19.6817556,8.97650779 16.4044222,8.92374156 C14.8228667,8.89813117 13.1770889,9.19883247 11.8417556,7.96909221 C11.7059778,7.84391039 11.4324222,7.86642987 11.2817556,7.83331299 C9.92131111,9.72274156 8.10642222,11.2094688 7.07797778,13.6241312 C8.87731111,13.6241312 10.4442,13.6731442 12.0070889,13.6144169 C15.6084222,13.4786377 19.2064222,13.2408584 22.8086444,13.1393 C25.6786444,13.058274 28.5528667,13.1381961 31.4244222,13.0955857 C31.9546444,13.0878584 32.4770889,12.7365987 33.0099778,12.7167286 C35.2137556,12.6345987 37.4206444,12.5668195 39.6253111,12.5926506 C42.0153111,12.6204688 44.4033111,12.7814169 46.7933111,12.8423519 C49.6573111,12.9149883 52.5224222,12.9580403 55.3870889,12.9697416 C55.7262,12.971287 56.0666444,12.6944299 56.4755333,12.5167026 C55.5279778,11.1498584 54.7019778,9.90797532 53.8150889,8.71068961 C53.5639778,8.37223506 53.1415333,8.15454675 52.7857556,7.89778052 C52.1022,7.40411818 51.4099778,6.92193636 50.4173111,6.2203 M11.3373111,47.252339 C15.4804222,48.6379494 19.8859778,48.7386247 24.3117556,48.6909364 C25.7793111,48.675261 27.2473111,48.7342091 28.7146444,48.7189753 C32.7742,48.6763649 36.8344222,48.6445727 40.8926444,48.5467675 C43.7570889,48.4781052 46.6182,48.2831571 49.4826444,48.2103 C49.9555333,48.1981571 50.5866444,48.393326 50.8828667,48.7240532 C51.4670889,49.3760143 51.1182,50.1209234 50.2384222,50.193339 C47.9390889,50.3829883 45.6375333,50.5845597 43.3328667,50.656313 C40.6859778,50.7384429 38.0342,50.6479234 35.3862,50.7028974 C32.3835333,50.7651571 29.3833111,50.9680532 26.3810889,50.9945468 C23.6133111,51.0190532 20.8399778,50.962313 18.0768667,50.8048974 C16.2039778,50.698261 14.3402,50.3847545 12.4806444,50.1076766 C11.3637556,49.9414299 10.5826444,49.3442221 10.4799778,48.0970403 C8.99753333,48.1001312 8.60175556,46.795326 7.82108889,45.9638714 C6.92664444,45.0112091 6.06508889,44.0274169 5.20175556,43.0460532 C4.94131111,42.7502091 4.74442222,42.3987286 4.4822,42.1048714 C1.46597778,38.7284948 0.429977778,34.5659234 0.0777555556,30.2688974 C-0.246688889,26.310326 0.442866667,22.4301312 2.14886667,18.7636506 C3.0382,16.8523649 3.65153333,14.8088325 4.60664444,12.9339753 C5.7442,10.7007935 7.15797778,8.61928701 8.96486667,6.82832597 C9.15064444,6.6441961 9.16997778,6.14236494 9.07175556,5.85358571 C8.63264444,4.56291039 8.98642222,3.60517013 9.89197778,2.57214416 C11.1333111,1.15628701 12.7595333,0.996222078 14.3748667,0.860442857 C18.1195333,0.546274026 21.8730889,0.311585714 25.6277556,0.156819481 C27.9802,0.0594558442 30.3410889,0.185962338 32.6977556,0.172494805 C34.0210889,0.164988312 35.3435333,0.0378194805 36.6664222,0.0325207792 C39.6806444,0.0210402597 42.6950889,0.0508454545 45.7093111,0.0645337662 C46.6133111,0.0685077922 47.5193111,0.116416883 48.4202,0.0698324675 C50.2884222,-0.0268688312 51.7708667,0.895105195 53.0719778,1.99833896 C53.4835333,2.34739091 53.3146444,3.38218312 53.3917556,4.10545584 C53.4262,4.42558571 53.2784222,4.86361169 53.4419778,5.05591039 C54.7086444,6.54352078 56.0775333,7.94657273 57.3193111,9.45317013 C58.0706444,10.3645468 58.5579778,11.4944948 59.3286444,12.3851182 C60.9822,14.2957416 61.4277556,16.6190013 61.6113111,18.9636766 C61.8768667,22.3537416 62.0402,25.7658844 61.9642,29.1623519 C61.9239778,30.9539753 61.3424222,32.7467026 60.8957556,34.5116117 C60.5428667,35.9071571 60.1210889,37.3031442 59.5513111,38.6225208 C58.9219778,40.0801052 58.1239778,41.4707935 57.3357556,42.8541961 C56.4697556,44.3733779 55.5693111,45.8764429 54.6059778,47.3357935 C54.1922,47.9628065 53.6555333,48.5763519 53.0304222,48.9715468 C52.7142,49.1715727 51.9577556,49.0263 51.6135333,48.7626896 C51.0637556,48.3418844 51.2935333,47.7848584 51.6804222,47.2298195 C52.7542,45.6890013 53.7715333,44.1084429 54.7655333,42.5153 C54.9642,42.1969364 54.9444222,41.7491961 55.0539778,41.3694558 C55.1928667,40.8877156 55.1490889,40.4260662 55.9342,40.2216247 C56.4266444,40.0935727 56.7870889,39.1254558 57.0339778,38.4697416 C57.7595333,36.544326 58.4999778,34.6140532 59.0357556,32.6325597 C59.3955333,31.3017026 59.5106444,29.8845208 59.5686444,28.4991312 C59.6530889,26.4884948 59.5493111,24.4710143 59.5950889,22.4579494 C59.6504222,20.0141442 59.2002,17.6727805 58.2426444,15.436287 C58.1179778,15.1455208 57.5924222,14.8220792 57.2853111,14.8514429 C56.5428667,14.9227545 55.8215333,15.1998325 55.0882,15.3806506 C54.8035333,15.4508584 54.5082,15.5367416 54.2204222,15.5281312 C51.6150889,15.4490922 49.0082,15.3914688 46.4062,15.2464169 C43.9810889,15.1113 41.5642,14.8086117 39.1384222,14.7110273 C37.5326444,14.646339 35.8653111,14.5805468 34.3168667,14.922313 C30.4710889,15.7709883 26.6055333,15.3958844 22.7444222,15.4378325 C20.2522,15.4647675 17.7582,15.4442351 15.2679778,15.5332091 C12.3664222,15.6369753 9.46575556,15.8065338 6.57108889,16.0284169 C6.13331111,16.0621961 5.50753333,16.4423779 5.34553333,16.8212351 C3.98642222,20.0020013 2.62353333,23.190274 2.45331111,26.7223 C2.36953333,28.4620403 2.37664444,30.150339 2.7102,31.9075208 C3.1682,34.3201961 3.88508889,36.5772221 4.99086667,38.7503519 C5.93175556,40.5998195 7.4502,41.9395078 8.88486667,43.3697156 C9.58286667,44.0658325 10.2048667,44.8522481 10.7644222,45.6636117 C11.0519778,46.0804429 11.1268667,46.6418844 11.3373111,47.252339" id="Fill-1" fill="#1286C9"></path>
                    <path d="M5.52215199,15.0323645 C40.8403951,14.2399499 58.4995166,13.8437426 58.4995166,13.8437426 C58.4995166,13.8437426 61.2021845,20.9554407 61.2021845,26.4106361 C61.2021845,31.8658316 55.5386463,47.6963156 52.6467784,48.7233383 C49.7549104,49.750361 16.6943068,50.5254136 12.5835451,48.7233383 C8.47278326,46.9212629 -0.208162686,37.8418838 1.13003852,28.5554976 C2.02217266,22.3645734 3.48621048,17.8568623 5.52215199,15.0323645 Z" id="Path-2" fill-opacity="0.4" fill="#1186C9"></path>
                </g>
                <path d="M49.0988678,34.0778992 C48.6182618,34.1007801 48.2005677,34.1028415 47.786999,34.1463359 C47.4466557,34.1822034 46.8377506,34.2300267 46.8231055,34.3374229 C46.7684443,34.7377367 46.8030974,35.2355523 47.0163792,35.5558858 C47.1471536,35.75192 47.7168677,35.8269531 47.9973931,35.7185262 C48.6694164,35.4585902 49.2655329,35.0436408 49.0988678,34.0778992 M49.1962266,32.0017093 C50.6957999,31.9712013 51.0553262,32.3399765 50.9934456,33.8439361 C50.9212516,35.5863938 49.7143735,37.2587656 48.0780441,37.8503725 C46.6877932,38.3529292 45.2600015,37.569823 45.0256802,35.797682 C44.7371104,33.6157449 46.9283025,31.9470835 49.1962266,32.0017093" id="Fill-4" fill="#1286C9"></path>
                <path d="M44.7173774,23.8693591 C43.8523598,23.9515336 43.1504675,24.204756 43.1411784,25.1095683 C43.1386862,25.3467131 43.7649064,25.8477987 43.9092271,25.7866145 C44.7001586,25.4498778 45.0613001,24.8219577 44.7173774,23.8693591 M47,25.7801388 C46.7775151,26.0641766 46.4351784,26.5869223 46.0083336,27.0303965 C44.8277136,28.2572077 42.6647164,28.345188 41.5522919,27.1491922 C41.2122207,26.7836498 40.8796262,26.0210797 41.0427516,25.65978 C41.7258391,24.1498242 41.8207691,22.3118404 43.3854134,21.2569703 C44.1801965,20.7210499 44.8263543,21.1116019 45.3839259,21.6238525 C46.4893269,22.6394217 46.8497887,23.9856985 47,25.7801388" id="Fill-6" fill="#1286C9"></path>
                <path d="M37,32.9328936 C37.0529288,31.6172833 37.5211982,30.5716334 38.7984227,30.0533897 C39.1069813,29.928466 39.7733291,30.0332768 39.9323466,30.2585418 C40.6553213,31.2838553 41.3408529,32.3522998 41.8736076,33.4788484 C42.2880238,34.3551026 41.6286098,35.4412018 40.6918398,35.7464717 C39.0672269,36.2761127 37.9293738,35.9753124 37.511953,34.8496576 C37.2824409,34.2310727 37.1668759,33.5729323 37,32.9328936" id="Fill-8" fill="#1286C9"></path>
            </g>
        </g>
    </g>
</svg>
