<?xml version="1.0" encoding="UTF-8"?>
<svg width="81px" height="72px" viewBox="0 0 81 72" version="1.1" xmlns="http://www.w3.org/2000/svg" xmlns:xlink="http://www.w3.org/1999/xlink">
    <!-- Generator: Sketch 50.2 (55047) - http://www.bohemiancoding.com/sketch -->
    <title>sketch-dog</title>
    <desc>Created with Sketch.</desc>
    <defs></defs>
    <g id="design" stroke="none" stroke-width="1" fill="none" fill-rule="evenodd">
        <g id="Pets" transform="translate(-319.000000, -376.000000)">
            <g id="sketch-dog" transform="translate(319.000000, 376.000000)">
                <path d="M19.3238426,68.42385 C19.3238426,67.92585 19.2510287,67.3449214 19.3428,66.7912071 C19.451159,66.13785 19.7223798,65.5129929 19.882441,64.86585 C19.9666723,64.5251357 19.8647761,64.10985 20.0205287,63.8207786 C20.5106218,62.91135 20.2839941,61.9354929 20.372534,60.9945643 C20.4453479,60.2231357 20.377058,59.43885 20.3708106,58.66035 C20.3682255,58.2977786 20.3731803,57.9352071 20.3593931,57.57285 C20.3425899,57.1305643 20.3001511,56.6889214 20.2861484,56.2466357 C20.2730074,55.8439929 20.2833479,55.4407071 20.2833479,55.0089214 C18.7510261,54.9945643 17.8212495,54.0519214 16.8548505,53.02935 C16.8001324,53.2777071 16.727534,53.4720643 16.7187016,53.6689929 C16.6665686,54.82635 16.6305926,55.9845643 16.5862149,57.1425643 C16.5577787,57.8846357 16.4929356,58.6271357 16.4998293,59.3689929 C16.5134011,60.8422071 16.7615713,62.3092071 16.418183,63.7871357 C16.0965527,65.1692786 16.0009037,66.6079929 15.2059835,67.85235 C14.9623372,68.2337786 15.123691,68.63535 15.485175,68.60085 C15.7596271,68.5744929 16.0243851,68.4469929 16.2930207,68.3629929 C16.4382176,68.3175643 16.5819064,68.2309929 16.7273186,68.22885 C17.0997894,68.2230643 17.4735527,68.2440643 17.8453771,68.2734214 C18.2973399,68.3089929 18.7480101,68.3642786 19.3238426,68.42385 M57.6866059,63.2677071 C58.3147867,62.9222786 58.8835101,63.0757071 59.4543878,63.2171357 C59.5728718,63.2467071 59.7023426,63.2621357 59.8223346,63.2482071 C60.3020872,63.1922786 60.7786085,63.0832071 61.2590074,63.0641357 C62.7195926,63.0062786 64.1909489,63.0694929 65.6407628,62.9186357 C67.1293532,62.7637071 68.6366856,62.5414929 70.0638798,62.11185 C71.6429489,61.63635 73.1757016,60.9637071 74.6595527,60.2372786 C75.5094064,59.8211357 76.2334516,59.14185 76.9898106,58.5502071 C77.1862787,58.39635 77.2739569,58.1124214 77.441558,57.91335 C77.6933904,57.61485 78.0688771,57.3806357 78.2183824,57.0431357 C78.5165314,56.3685643 78.6537574,55.6247786 78.9363957,54.94185 C79.3431191,53.95935 79.0053319,53.0329929 78.7524223,52.1235643 C78.6233824,51.6592071 78.1701271,51.2942786 77.9370367,50.8464214 C77.1694755,49.3727786 75.9854968,48.4530643 74.3631271,48.09285 C74.0210314,48.0169929 73.6651484,48.0041357 73.3215447,47.93385 C72.7069356,47.8082786 72.101159,47.5751357 71.4837495,47.5442786 C70.7211431,47.5065643 69.9376404,47.5620643 69.1879596,47.7054214 C68.6610287,47.80635 68.0341404,47.6756357 67.6192309,48.1639929 C67.4766191,48.3315643 67.2726112,48.5252786 67.2719649,48.7074214 C67.271534,48.8310643 67.5627894,48.9836357 67.7476245,49.0744929 C68.2215606,49.3072071 68.7183319,49.4940643 69.1890367,49.7325643 C69.9990367,50.14335 70.7971883,50.5781357 71.5987867,51.0060643 C72.0983585,51.2726357 72.753683,51.42885 73.0576484,51.8402786 C73.6410207,52.6299214 74.7735128,53.2714929 74.1817388,54.5647071 C74.1552415,54.6227786 74.1996191,54.7091357 74.1845394,54.7764214 C74.0434356,55.4036357 74.0738106,56.0812071 73.4499383,56.5387071 C73.1623452,56.7495643 73.0242574,57.1511357 72.7672548,57.4172786 C72.5371803,57.6555643 72.264667,57.9030643 71.9619941,58.01385 C71.0074436,58.3624929 70.0304888,58.6511357 69.0604277,58.9571357 C68.8919649,59.0102786 68.7146697,59.0379214 68.5406059,59.0719929 C67.9434463,59.1892071 67.3029862,59.2054929 66.7575287,59.4405643 C65.6564888,59.9147786 64.5662202,60.22335 63.3510048,60.0221357 C62.9727176,59.9595643 62.5644862,60.0836357 62.1689649,60.1125643 C61.4509516,60.16485 60.7305686,60.3019929 60.0345287,59.95785 C59.6892016,59.7872786 59.3154383,59.67435 58.882433,59.5074214 C58.7055686,60.8364214 58.710308,62.20335 57.6866059,63.2677071 M20.6842548,20.82585 C20.6624968,20.7857786 20.640308,20.7461357 20.6183346,20.7060643 C20.8865394,20.7060643 21.1635766,20.6649214 21.4205793,20.7187071 C21.6491457,20.7664929 21.9119649,20.8712786 22.0560846,21.0390643 C22.208175,21.2162786 21.735316,22.2339214 21.5209676,22.3935643 C20.9712016,22.8030643 20.4285447,23.2226357 19.9018293,23.6602071 C19.7281963,23.8042071 19.6441803,24.06285 19.4630074,24.18885 C18.9636511,24.5355643 18.4324117,24.8370643 17.9177601,25.1621357 C17.2794543,25.5649929 16.6458878,25.9757786 16.0080128,26.3792786 C15.4707415,26.7189214 14.9248532,27.0454929 14.3955527,27.3971357 C14.3018426,27.4592786 14.2141644,27.6176357 14.2201963,27.7267071 C14.2628505,28.5247071 14.3089516,29.3235643 14.3938293,30.1181357 C14.5788798,31.8476357 14.7611298,33.5715643 14.6859463,35.3199214 C14.6247654,36.7410643 14.6753904,38.1679929 14.6947787,39.5919214 C14.7064117,40.4606357 14.7051191,41.3336357 14.7955979,42.1959214 C14.906542,43.2514929 15.0045606,44.3269929 15.2938771,45.3416357 C15.7189117,46.8322071 16.2277468,48.31185 16.8548505,49.7284929 C17.2934569,50.7189214 17.7680394,51.7470643 18.7040633,52.4349214 C18.9524489,52.6172786 19.1515021,52.86585 19.3966564,53.0537786 C19.5698585,53.1864214 19.7824835,53.2676357 20.0896803,53.4317786 C20.070292,53.1735643 20.0735234,53.0426357 20.048534,52.9172786 C19.9033372,52.1865643 19.6993293,51.4631357 19.6148824,50.7257786 C19.507816,49.7925643 19.1818771,48.9607071 18.799066,48.1087071 C18.4584782,47.3507786 18.3499037,46.4822786 18.2064303,45.6510643 C18.1807947,45.5017071 18.470542,45.1650643 18.6418053,45.1451357 C18.9541723,45.1084929 19.3899782,44.8562786 19.5778293,45.4260643 C19.8861032,46.3620643 20.2284144,47.2875643 20.5778346,48.2094214 C21.117691,49.6335643 21.2652574,51.13185 21.4640952,52.62285 C21.6855527,54.2835643 21.9541883,55.9312071 21.8619862,57.6259929 C21.7967122,58.8214929 21.9151963,60.02985 21.992534,61.22985 C22.0808585,62.6057786 21.6721963,63.91035 21.4556936,65.24085 C21.3158824,66.1001357 21.0528479,66.9390643 20.900542,67.79685 C20.8688745,67.9751357 21.0455234,68.3317071 21.1898585,68.3702786 C21.5233372,68.4592071 21.9076564,68.4622071 22.2495367,68.3925643 C22.7734516,68.2860643 23.2695766,68.0374929 23.7945686,67.94685 C24.2407149,67.8699214 24.7107734,67.9309929 25.3051324,67.9309929 C25.601558,67.5015643 25.5675207,66.8407071 25.5593346,66.2012786 C25.5483479,65.3522786 25.4740261,64.50435 25.4382654,63.6555643 C25.3981963,62.7026357 25.404659,61.7462786 25.3303372,60.7959214 C25.2006511,59.1379929 25.0052601,57.4852071 24.8805287,55.82685 C24.8428293,55.32435 24.9436484,54.8111357 24.9884569,54.3032786 C25.0931537,53.1174214 25.166183,51.9274929 25.3189197,50.74785 C25.5224968,49.1737071 25.9535633,47.6539929 26.644433,46.2182786 C26.7308186,46.0391357 26.9171617,45.87135 27.0987654,45.78285 C27.3831271,45.6439929 27.703034,45.5775643 28.1106191,45.4477071 C28.1310846,45.6274929 28.2030367,45.8445643 28.1664144,46.0414929 C28.1151431,46.3174929 27.9733931,46.5757071 27.8872229,46.8467786 C27.5716245,47.8359214 27.1767495,48.8107071 26.9753266,49.8227786 C26.7605473,50.9032071 26.7144463,52.0185643 26.6259064,53.1212786 C26.5636484,53.8950643 26.5354277,54.6727071 26.5274569,55.44885 C26.5227176,55.9414929 26.5834676,56.4347786 26.6157814,56.9400643 C26.9643399,56.8007786 27.1653319,56.9589214 27.3708479,57.2734929 C27.6377601,57.6827786 27.9227681,58.1452071 28.4695181,58.2206357 C30.1636245,58.4539929 31.5744463,59.4277071 33.1520074,59.9632071 C33.6050473,60.11685 34.0130633,60.4380643 34.4723505,60.5289214 C35.2233239,60.6776357 35.9794676,60.7449214 36.6143266,61.2412071 C36.7450899,61.3436357 36.9631005,61.3359214 37.2241963,61.3991357 C37.0156644,60.3767786 36.8288904,59.4604929 36.6421165,58.5444214 C36.6169117,58.4220643 36.5733957,58.30035 36.5708106,58.1777786 C36.5509915,57.30435 36.5283718,56.4307071 36.5305261,55.5574929 C36.5316032,55.1357786 36.5191085,54.6971357 36.6253133,54.2959929 C37.0135101,52.8300643 37.6438452,51.44535 38.4911138,50.2031357 C39.1149862,49.2881357 39.5762122,48.1515643 40.8814755,47.8391357 C41.3601511,47.7244929 41.7645048,47.6745643 42.0021191,48.08985 C42.2362867,48.4989214 41.9211191,48.8400643 41.5820394,49.0537071 C40.8127548,49.5377786 40.2556644,50.1690643 39.8112415,50.9737071 C39.085042,52.2881357 38.2657787,53.5397786 38.1923186,55.1085643 C38.1427707,56.1641357 38.1164888,57.20685 38.3021856,58.2585643 C38.5544489,59.6867786 38.7274356,61.1319214 39.3879303,62.4495643 C39.7606165,63.19335 39.9691484,64.0539214 40.8028452,64.4964214 C40.9232681,64.5602786 41.039167,64.7792786 41.0279649,64.9159929 C40.9810021,65.4907071 40.1339489,66.0986357 39.5456218,66.0090643 C39.0454037,65.9332071 38.5494941,65.8121357 38.046691,65.7714214 C36.6961883,65.6625643 35.3312521,65.4939214 34.0763984,66.2274214 C33.4706218,66.5816357 32.7730739,66.8454214 32.2879356,67.3222071 C31.6629862,67.93635 31.2099463,68.7229929 30.635191,69.4997786 C31.1386404,69.6949929 31.5048638,69.8949214 31.8954303,69.9731357 C32.3784144,70.0702071 32.8833718,70.04985 33.3754037,70.1092071 C34.1888505,70.20735 35.0018665,70.4359929 35.8110048,70.41885 C37.6447069,70.37985 39.4777628,70.24785 41.3071564,70.10385 C41.9157335,70.05585 42.5075074,69.8227071 43.1158691,69.7354929 C43.6636963,69.65685 44.1503426,69.1912071 44.7615048,69.4759929 C44.8254862,69.5059929 44.9480633,69.3997071 45.047159,69.3682071 C45.5850766,69.1974214 46.1199782,69.0146357 46.6641431,68.86635 C47.1925819,68.7227786 47.8089144,68.7401357 48.2494596,68.4675643 C49.2229676,67.86585 50.1751484,67.2547071 51.3181963,67.0342071 C52.0655074,66.8899929 52.7201856,66.6345643 53.2891245,66.07485 C53.6443612,65.7251357 54.240659,65.6304214 54.6475979,65.3169214 C55.1086085,64.9616357 55.6286457,64.5566357 55.8563505,64.0537071 C56.2740606,63.1316357 56.478284,62.1157071 56.8044383,61.1497071 C57.2107309,59.9469214 57.1982362,58.7734929 56.6818612,57.6054214 C56.6137867,57.4511357 56.6142176,57.25935 56.6124941,57.0847071 C56.6062468,56.4197786 56.7538133,55.77885 56.4386457,55.0980643 C55.9834516,54.1147071 55.7240793,53.0434929 55.3339436,52.0271357 C55.0586298,51.3099214 54.7031777,50.6231357 54.3875793,49.9207071 C54.2600473,49.6367786 54.1885261,49.3164214 54.0133851,49.0665643 C53.3076511,48.0596357 52.8664596,46.9277786 52.3694729,45.8175643 C51.9071697,44.7847071 51.4250473,43.7522786 50.8494303,42.7796357 C50.1161218,41.54085 49.1701883,40.4179929 48.9144782,38.9407071 C48.9015527,38.8657071 48.7615261,38.81085 48.6785872,38.7495643 C48.5693665,38.6692071 48.4168452,38.61585 48.3543718,38.50935 C48.0172309,37.9350643 47.7677681,37.2971357 47.3640606,36.7766357 C46.7742255,36.0152786 46.0848638,35.32935 45.4265234,34.6217786 C44.9312601,34.0890643 44.4319037,33.5589214 43.9094968,33.0534214 C43.3312947,32.4934929 43.2380154,31.5630643 42.4396484,31.1764929 C42.4006564,31.1576357 42.3950553,31.0796357 42.3616644,31.0387071 C41.992425,30.5846357 41.6268479,30.1271357 41.2476989,29.6809929 C40.70655,29.04435 40.1281324,28.4366357 39.614558,27.7785643 C39.0669463,27.0765643 38.5548798,26.3447786 38.0658638,25.6007786 C37.2840846,24.4110643 36.5361271,23.1999214 35.7681351,22.0014214 C35.6985527,21.8927786 35.5865314,21.81135 35.4943293,21.7170643 C35.4068665,21.8186357 35.2974303,21.9082071 35.2353878,22.0232786 C34.7980739,22.8319929 34.4236644,23.6809929 33.9169835,24.4434214 C33.6750606,24.8074929 33.222667,25.0916357 32.8038798,25.2667071 C32.2517441,25.4972786 31.6248559,25.5634929 31.3954277,26.3019214 C31.008308,26.1337071 30.6601803,25.9652786 30.2993426,25.8300643 C29.7144622,25.6104214 29.6246298,25.01835 29.2993372,24.60285 C28.433542,23.4969214 27.5259543,22.4141357 26.5429676,21.4112786 C25.8019037,20.6552786 25.2209011,19.8399214 24.863941,18.85335 C24.7745394,18.6067071 24.6349436,18.3780643 24.5246457,18.1384929 C24.250409,17.5447071 23.9513984,16.9601357 23.7176617,16.3509214 C23.5644941,15.9521357 23.5808665,15.5456357 24.0922867,15.3585643 C24.5183984,15.2027786 25.041667,15.4037786 25.2592468,15.8415643 C25.6832043,16.6944214 26.0858346,17.5575643 26.5061298,18.4121357 C26.6536963,18.71235 26.7670101,19.0639929 27.000316,19.2812786 C27.8960553,20.1152786 28.4376351,21.2419929 29.4057574,22.0247786 C30.0201511,22.5214929 30.5156298,23.1722786 30.7103745,23.9852786 C30.7297628,24.0664929 30.8086085,24.1337786 30.8251963,24.1571357 C31.1565207,24.06735 31.4206324,24.0174214 31.667941,23.92335 C31.9566112,23.8136357 32.2722096,23.7154929 32.5027149,23.5249929 C33.1227096,23.0115643 33.4617894,22.2977786 33.6748452,21.5471357 C33.9691165,20.5104214 34.1978984,19.4552786 34.4512388,18.4074214 C34.7037176,17.36235 34.7472335,16.2986357 34.6328426,15.2385643 C34.4650261,13.6826357 33.8672202,12.2402786 33.3131457,10.7951357 C33.0365394,10.0734214 32.6255074,9.40249286 32.2750101,8.70863571 C32.0697096,8.30235 31.9133106,7.85963571 31.6463984,7.49835 C31.2605713,6.97592143 30.7976218,6.50963571 30.3611697,6.02492143 C29.707784,5.29892143 29.1056697,4.51377857 28.3753771,3.87392143 C27.7633532,3.33756429 26.9518452,3.03113571 26.3156936,2.51642143 C25.7006537,2.01842143 25.1666138,2.14099286 24.5681617,2.45235 C24.3676005,2.55649286 24.1463585,2.62356429 23.930933,2.69663571 C23.0631989,2.99085 22.1659516,3.21799286 21.3341936,3.59042143 C20.5722335,3.93156429 19.8815793,4.42977857 19.1560261,4.85299286 C19.0857973,4.89370714 18.9907947,4.89220714 18.9078559,4.91235 C18.6250021,4.98199286 18.2979862,4.98606429 18.068558,5.13649286 C17.5034968,5.50699286 16.9584702,5.91713571 16.450066,6.36199286 C15.5989197,7.10685 14.8266191,7.89735 14.8927548,9.17556429 C14.9194676,9.69477857 14.9046032,10.2772071 14.6943479,10.7329929 C14.3494516,11.4799929 13.897058,12.2036357 13.3634489,12.8302071 C12.8768027,13.4019214 12.2126457,13.8212786 11.6445686,14.3272071 C10.8268133,15.0549214 10.1958319,15.9827786 9.16006596,16.4797071 C8.69173085,16.7042786 8.29922553,17.0846357 7.87182128,17.3936357 C7.11201543,17.9430643 6.34208457,18.4796357 5.60188245,19.0534929 C5.48598351,19.1432786 5.40886117,19.4497071 5.47305798,19.5757071 C5.91855798,20.4484929 6.15035585,21.4387071 6.87289309,22.1651357 C6.93773617,22.2300643 6.94527606,22.3567071 6.96768032,22.4572071 C7.10318298,23.0711357 6.84855,23.5312071 6.43299415,23.9717786 C5.72704468,24.71985 5.06353404,25.5075643 4.27701543,26.3972786 C4.90584255,26.8524214 5.45776277,27.31935 6.07172553,27.6817071 C7.1835367,28.33785 8.44291436,28.5844929 9.65252872,28.1910643 C10.7094064,27.84735 11.685284,27.2259214 12.6542681,26.6559214 C13.7128691,26.0329929 14.7339862,25.3447071 15.7510101,24.6544929 C16.8731617,23.8929214 17.9912202,23.1229929 19.072441,22.3054929 C19.6519356,21.8674929 20.149784,21.32235 20.6842548,20.82585 M38.1263984,63.8767071 C37.9708612,63.7759929 37.8256644,63.6510643 37.6576324,63.5782071 C36.5193239,63.08385 35.4325021,62.4907071 34.1828186,62.2359214 C33.4232282,62.0809929 32.7314968,61.6059214 32.0029277,61.2894214 C31.160183,60.9234214 30.3211005,60.5445643 29.459183,60.2295643 C29.051167,60.0802071 28.5694755,60.1279929 28.164691,59.9737071 C27.6862309,59.79135 27.2549489,59.4870643 26.703675,59.1797786 C26.7665793,60.00435 26.8228053,60.7477071 26.8796777,61.49085 C26.9447362,62.3359929 26.9996697,63.1819929 27.0787309,64.02585 C27.1431431,64.7132786 27.3658931,65.4124929 27.2892016,66.0804214 C27.1539144,67.2577071 27.3682628,68.5224214 26.6194436,69.5801357 C26.4081112,69.8790643 26.1567096,70.1702786 25.8654543,70.3882071 C25.43805,70.7074929 25.0558851,70.51035 25.0102149,70.0016357 C24.9916883,69.7929214 24.9542043,69.5857071 24.9289995,69.4046357 C23.6711298,69.6281357 22.4171378,69.8869929 21.1512973,70.0564929 C20.6937335,70.1177786 20.1952388,70.0114929 19.7374596,69.89535 C19.2962681,69.7834929 18.7798931,69.8977071 18.5306457,70.2797786 C18.2408984,69.8584929 17.5144835,69.7609929 16.8236138,69.9382071 C16.2370101,70.0886357 15.6215394,70.1606357 15.0155473,70.18785 C14.6678505,70.2037071 14.3100287,70.0714929 13.9612548,69.98685 C13.0191989,69.7579929 12.6258319,68.8554214 13.3065766,67.9524214 C13.4481112,67.7649214 13.5265261,67.5259929 13.61205,67.3024929 C13.7415207,66.96435 13.8776697,66.6251357 13.9647016,66.2754214 C14.131441,65.6044929 14.2572495,64.9234929 14.4194649,64.2514929 C14.4631963,64.0717071 14.5775872,63.9090643 14.6592335,63.7384929 C15.0810367,62.8564929 15.0879303,61.9652786 14.9862495,60.9872786 C14.8569941,59.7407786 15.0409676,58.4636357 15.0577707,57.1991357 C15.0706963,56.2312071 14.9985287,55.2609214 15.0306271,54.2942786 C15.0558319,53.53035 15.1504037,52.7644929 15.281167,52.0110643 C15.3268372,51.74835 15.5730686,51.5194929 15.7354995,51.2629929 C15.4623399,50.7424929 15.1404941,50.1647786 14.8548399,49.5697071 C14.7169676,49.28235 14.6506165,48.9615643 14.5459197,48.6577071 C14.3505287,48.0887786 14.129933,47.5269214 13.9597468,46.9507071 C13.8205819,46.4801357 13.7232096,45.9954214 13.6368239,45.5117786 C13.4476803,44.4551357 13.2005872,43.4010643 13.1210952,42.3352071 C13.0452654,41.3184214 13.1674117,40.2881357 13.173659,39.2636357 C13.1790447,38.4062786 13.1322973,37.5487071 13.127558,36.6911357 C13.1221723,35.6972786 13.1415606,34.7036357 13.1419915,33.7097786 C13.1422069,33.3611357 13.1249729,33.0120643 13.1038612,32.66385 C13.033417,31.4944929 12.9588798,30.3255643 12.8808957,29.1566357 C12.8742176,29.0572071 12.8283319,28.96035 12.7723213,28.7617071 C12.0383665,29.1367071 11.3619303,29.5275643 10.6480101,29.8301357 C10.2384862,30.0030643 9.77187447,30.0724929 9.32400479,30.1187786 C8.29039309,30.2257071 7.29706596,29.9276357 6.33497553,29.6364214 C5.68525213,29.4399214 5.13117766,28.9502786 4.50665904,28.6489929 C3.61242766,28.2174214 3.08506596,27.4734214 2.60940638,26.6574214 C2.53896223,26.53635 2.32245957,26.4855643 2.16347553,26.4324214 C1.81340904,26.3154214 1.60767766,26.1534214 1.7565367,25.7317071 C1.80436117,25.59585 1.75050479,25.3562786 1.65076277,25.2497786 C1.27312181,24.8462786 0.862951596,24.4725643 0.455151064,24.0979929 C-0.0941840426,23.5929214 -0.138561702,23.2346357 0.279579255,22.6069929 C0.863382447,21.7312071 1.40366968,20.8224214 2.04046755,19.9864929 C2.37760851,19.5439929 2.94783989,19.2782786 3.29122819,18.8387786 C3.81686649,18.1652786 4.64410053,17.9927786 5.26452606,17.4956357 C5.52734521,17.2852071 5.76539043,17.0432786 6.03639574,16.8446357 C6.42523883,16.5596357 6.83691702,16.3057071 7.23286915,16.03035 C7.59543032,15.7781357 7.9732867,15.5409214 8.30396489,15.2512071 C9.25894628,14.41485 10.1818293,13.54185 11.1406883,12.7095643 C11.7845952,12.1504929 12.3427628,11.55135 12.7811537,10.8009214 C13.372066,9.78927857 13.3343665,8.66556429 13.5775819,7.59135 C13.7652176,6.76206429 14.0721989,6.01313571 14.8906005,5.51577857 C15.4632016,5.16756429 15.9022388,4.60292143 16.4028878,4.13685 C16.9981085,3.58313571 17.6932867,3.20449286 18.4518,2.90985 C19.4808878,2.50999286 20.4862787,2.05035 21.5101963,1.63677857 C22.606066,1.19406429 23.7055979,0.757992857 24.8163319,0.354707143 C25.2583851,0.194207143 25.7342601,0.0570642857 26.1969941,0.0487071429 C26.4804941,0.0437785714 26.7965234,0.265778571 27.0490021,0.45135 C27.6024303,0.857421429 28.0908,1.35799286 28.6670633,1.72485 C29.6899037,2.37585 30.4305367,3.28527857 31.167292,4.20885 C31.8200314,5.02720714 32.4912973,5.83163571 33.1196936,6.66799286 C33.3698027,7.00035 33.5262016,7.40235 33.7265473,7.77220714 C33.8086245,7.92349286 33.8898399,8.07585 33.9792415,8.22306429 C34.1143133,8.44527857 34.278683,8.65270714 34.3907043,8.88542143 C34.6569702,9.43827857 34.9260367,9.99220714 35.1472787,10.5637071 C35.7881697,12.2182071 36.3769277,13.9039929 36.3665872,15.6949929 C36.3594782,16.8971357 36.1380207,18.0979929 36.0225527,19.3001357 C36.0087654,19.4415643 36.011566,19.6222071 36.086534,19.7282786 C36.5488372,20.3801357 37.0331138,21.0165643 37.5120048,21.65685 C37.8784436,22.1471357 38.2812894,22.6147071 38.607659,23.1300643 C39.0841803,23.88285 39.4226138,24.7346357 39.9700101,25.4269929 C40.9208984,26.6295643 41.9941484,27.7357071 42.9995394,28.8969214 C43.307167,29.2522071 43.5589995,29.6552786 43.8386218,30.0349929 C44.3534888,30.7344214 44.8267787,31.4700643 45.3967947,32.1219214 C46.0297149,32.8457786 46.7964144,33.45435 47.4228718,34.1827071 C48.2429968,35.1367071 49.0517043,36.1147071 49.7354649,37.1662071 C50.283292,38.0087786 50.6288346,38.9807786 51.0814436,39.8865643 C51.2757574,40.2759214 51.5021697,40.6502786 51.7333213,41.0194929 C52.1607255,41.7019929 52.6486644,42.35085 53.025659,43.05885 C53.5241537,43.9950643 53.9323851,44.9784214 54.3936112,45.9345643 C54.7725447,46.7199214 55.1715128,47.4956357 55.5640181,48.2745643 C55.5874995,48.3210643 55.6564356,48.3564214 55.659667,48.4001357 C55.7230021,49.2427071 56.4250739,49.7529214 56.7337787,50.4527786 C57.140933,51.37485 57.4039676,52.3622786 57.6975926,53.33085 C57.9356378,54.11685 58.160542,54.9099214 58.3300819,55.7124214 C58.4655846,56.3535643 58.4765713,57.0206357 58.610566,57.6619929 C58.6558053,57.8779929 58.8699383,58.1272071 59.0739463,58.2307071 C60.3729622,58.8885643 61.763534,58.9427786 63.1806032,58.77285 C63.7460952,58.7051357 64.321066,58.69485 64.8790181,58.5907071 C65.4966431,58.4754214 66.103066,58.29435 66.7086271,58.1216357 C67.527675,57.88785 68.3273346,57.5546357 69.1606005,57.4147071 C69.8469463,57.2992071 70.4012362,57.0002786 70.9201963,56.60685 C71.3053771,56.3147786 71.6980979,55.9894929 71.9643638,55.5964929 C72.3221856,55.0680643 72.5182229,54.4474929 72.3170154,53.7907071 C72.2763,53.6576357 72.143167,53.5470643 72.0378239,53.4405643 C71.9126617,53.3137071 71.7672495,53.20635 71.6392867,53.0820643 C71.5787521,53.02335 71.5466537,52.8924214 71.4869809,52.8825643 C70.5253213,52.7227071 69.8329436,52.0312071 68.9917069,51.6334929 C67.9572335,51.1440643 66.9544277,50.5817786 65.9692867,49.9987071 C65.1689809,49.5249214 65.0446803,48.7324929 65.7090527,48.07035 C66.2452468,47.5359214 66.8549011,47.0029929 67.5360766,46.70535 C68.192909,46.41885 68.9839516,46.4407071 69.7142441,46.3159929 C71.6392867,45.9874929 73.5020713,46.35435 75.3043213,46.9451357 C76.8275952,47.4442071 78.131566,48.3362786 79.051433,49.7051357 C79.2097707,49.9410643 79.4900394,50.0919214 79.6813372,50.3102786 C80.3911644,51.1200643 80.7408,52.0672071 80.8730713,53.1384214 C80.9848771,54.0442071 80.8243851,54.9517071 80.6007734,55.7516357 C80.140409,57.3992786 79.4419995,59.0027786 77.8213532,59.9531357 C77.538284,60.1189929 77.347417,60.4327071 77.0783505,60.6304929 C75.8054011,61.5664929 74.4376644,62.3010643 72.8704436,62.6505643 C72.3883213,62.7579214 71.959409,63.0836357 71.4815952,63.2325643 C70.5804702,63.5134929 69.6679277,63.7665643 68.7482761,63.9791357 C67.8049277,64.1970643 66.847792,64.3584214 65.8947495,64.5332786 C65.6383931,64.5802071 65.3738505,64.6095643 65.1136165,64.6054929 C64.3014622,64.5922071 63.4875846,64.5101357 62.6786617,64.5467786 C61.7706431,64.5881357 60.8686564,64.7484214 59.9610686,64.8187071 C59.5903213,64.8474214 59.2070793,64.8041357 58.8382707,64.7417786 C58.4731245,64.67985 58.1168106,64.47435 57.7620048,64.4861357 C57.5801856,64.4921357 57.3257681,64.8086357 57.2520926,65.0329929 C57.0991404,65.4984214 57.0028452,65.9002071 56.3942681,66.0225643 C56.0336457,66.0952071 55.5146856,66.1965643 55.5189941,66.8032071 C55.5196404,66.9159214 55.3373904,67.0759929 55.2042574,67.1359929 C54.1124809,67.6282071 53.0398771,68.1866357 51.9045846,68.5494214 C51.2186697,68.7684214 50.6857069,69.1399929 50.0932867,69.49035 C49.3987548,69.9009214 48.5568718,70.06335 47.7804782,70.3384929 C47.2613027,70.5221357 46.7731484,70.74735 46.1716803,70.5977786 C45.907784,70.5322071 45.5719356,70.7666357 45.2656005,70.8540643 C44.3431484,71.1176357 43.4267282,71.4105643 42.4922122,71.6231357 C41.963558,71.7435643 41.4045287,71.7476357 40.8579941,71.77185 C38.9051617,71.8582071 36.9523293,71.9439214 34.9986351,71.9989929 C34.5511963,72.0114214 34.0985872,71.9107071 33.650933,71.8451357 C32.7205101,71.7082071 31.7797468,71.6107071 30.8663426,71.3989929 C30.2405314,71.2539214 29.6183824,71.0049214 29.0584915,70.6899214 C28.5108798,70.3819929 28.4617628,69.9369214 28.8256165,69.3922071 C29.3605181,68.59185 29.8805553,67.7732786 30.4996883,67.0402071 C30.9096431,66.5546357 31.4587628,66.1717071 31.9865553,65.8009929 C33.6623505,64.6237071 35.571667,64.1096357 37.5886963,63.9360643 C37.7494037,63.9221357 37.9167894,63.9804214 38.0807282,64.0050643 C38.0962388,63.9624214 38.1113186,63.91935 38.1263984,63.8767071" id="Fill-1" fill="#1286C9"></path>
                <path d="M39.1328125,25.9345703 C37.1022135,25.9199219 36.0869141,27.2091471 36.0869141,29.8022461 C36.0869141,33.6918945 39.1328125,37.3862305 39.1328125,41.5664063 C39.1328125,45.746582 47.4672852,47.5776367 49.6391602,45.421875 C51.0870768,43.9847005 51.7745768,42.6995443 51.7016602,41.5664063 L39.1328125,25.9345703 Z" id="Path-3" fill-opacity="0.4" fill="#1186C9"></path>
                <path d="M38.5074441,52.1943417 C38.5074441,52.1943417 46.4176855,50.6415499 46.4176855,56.3143962 C46.4176855,60.0962937 43.7809383,62.4792402 38.5074441,63.4632358 C37.5024814,60.6233895 37,58.7128502 37,57.7316179 C37,53.7000644 38.5074441,52.1943417 38.5074441,52.1943417 Z" id="Path-4" fill-opacity="0.4" fill="#1186C9"></path>
                <path d="M16.2,12.0633172 C16.205845,11.3099368 16.2593161,10.6070973 17.1243786,10.2576131 C17.6558421,10.0429761 18.2178296,10.1986847 18.4544446,10.7408691 C18.4821543,10.8043139 18.5118123,10.8875449 18.5652834,10.9170091 C19.2474185,11.2916561 19.1110348,11.9910546 18.9711873,12.4732352 C18.8341542,12.9459529 18.3130817,13.3126424 17.9452787,13.7118071 C17.8922405,13.7692301 17.7491459,13.7765423 17.6562751,13.7599822 C16.9265139,13.6300816 16.2244625,12.8050839 16.2,12.0633172" id="Fill-4" fill="#1286C9"></path>
            </g>
        </g>
    </g>
</svg>