<?xml version="1.0" encoding="UTF-8"?>
<svg width="84px" height="84px" viewBox="0 0 84 75" version="1.1" xmlns="http://www.w3.org/2000/svg" xmlns:xlink="http://www.w3.org/1999/xlink">
    <!-- Generator: Sketch 50.2 (55047) - http://www.bohemiancoding.com/sketch -->
    <title>sketch-calendar</title>
    <desc>Created with Sketch.</desc>
    <defs></defs>
    <g id="design" stroke="none" stroke-width="1" fill="none" fill-rule="evenodd">
        <g id="Move-In-Date" transform="translate(-314.000000, -415.000000)">
            <g id="Group-2" transform="translate(256.000000, 362.000000)">
                <g id="sketch-calendar" transform="translate(58.000000, 53.000000)">
                    <g id="sketch">
                        <path d="M57.0793373,39.6944902 L66.542336,39.6944902 L66.542336,30.9453598 C65.6504344,31.0935013 64.7545541,31.3147261 63.8474006,31.3779331 C61.6268198,31.5328782 59.401155,31.6149596 57.0793373,31.7310587 L57.0793373,39.6944902 Z M13.2835419,20.3081378 C9.91067278,20.9187005 6.73939336,21.4928313 3.41891106,22.0939568 L3.41891106,29.9860609 C5.39192564,29.9860609 7.39809641,29.9665282 9.40338301,29.9950591 C10.244003,30.0069105 11.0848441,30.1063299 11.9228117,30.1910449 C12.8262074,30.282783 13.2556907,30.031491 13.1823049,29.0004258 C13.0536589,27.1963909 13.0269129,25.3822604 13.0300075,23.5725192 C13.0317758,22.5708629 13.1800945,21.5692065 13.2835419,20.3081378 Z M29.686353,42.2574488 C31.7351848,42.0254701 33.7550601,41.7807622 35.7795773,41.5746809 C36.7658636,41.4743836 37.7590021,41.4192968 38.7501512,41.3929606 C40.3275019,41.351042 40.4375805,41.2285783 40.4333807,39.7054637 C40.4309492,38.7255347 40.5187026,37.7445084 40.5861202,36.7654574 C40.6827153,35.3617338 40.7978778,33.9593271 40.9044197,32.563724 C36.9380547,32.6809204 33.1670903,32.7926301 29.3004149,32.9069734 C29.429061,36.0243107 29.5579281,39.1449399 29.686353,42.2574488 Z M54.9166693,31.7727578 C51.1837239,31.9687436 47.3526363,32.1572674 43.5255273,32.404609 C43.315317,32.418216 43.0016595,32.9047787 42.9676191,33.1973309 C42.8084694,34.5690119 42.6952962,35.9483744 42.6340678,37.3277369 C42.5821231,38.5012374 42.6234578,39.6786885 42.6234578,40.8550421 C46.7228896,40.4630705 50.7252843,40.0803167 54.9166693,39.6795663 L54.9166693,31.7727578 Z M14.0635966,55.7111161 C14.0635966,54.541127 14.0912267,53.4529999 14.0576285,52.3666285 C13.9970632,50.4164272 13.9179304,48.4664454 13.8047572,46.5186583 C13.776685,46.0349487 13.7435288,45.4641099 12.952201,45.5227082 C10.6913906,45.6899435 8.42660154,45.8093346 6.16557016,45.9774479 C3.97372471,46.1400744 3.9105069,46.2340071 4.15232607,48.3742685 C4.16868313,48.5193375 4.17133562,48.6663817 4.17133562,48.812548 C4.17221979,51.397234 4.17199875,53.982359 4.17199875,56.7059689 C7.49999645,56.3712788 10.715042,56.048001 14.0635966,55.7111161 Z M66.6718662,29.0781178 C66.857762,25.3787489 67.6170388,21.8531993 66.5394625,18.1819224 C63.9946141,18.3120675 61.3297403,18.4692073 58.6626561,18.5732356 C57.8370668,18.6052781 57.6268566,18.9832036 57.6005526,19.7364211 C57.4957791,22.7718964 57.3315454,25.8049576 57.2108568,28.8397745 C57.1993627,29.1277178 57.3390608,29.4211478 57.3693435,29.5486593 C60.5812945,29.3860328 63.6097812,29.2328434 66.6718662,29.0781178 Z M69.1077413,28.6569568 C70.3959699,28.5810206 71.7483006,28.5573179 73.0847162,28.3995197 C73.7737019,28.3183162 74.4335102,27.8293394 75.1079072,27.8260473 C76.2122295,27.8205606 77.3150045,28.0885322 78.4235266,28.1899269 C79.3070286,28.2706915 80.1991513,28.3112932 81.0839795,28.2779339 C81.2338455,28.2724472 81.5015265,27.7953217 81.4856116,27.5510527 C81.3547551,25.5582745 81.305905,23.5448661 80.9559966,21.5861056 C80.690526,20.1016175 79.9708156,18.7975329 78.0610188,18.7365205 C75.0530889,18.6403931 72.0484746,18.4549418 69.1077413,18.3103118 L69.1077413,28.6569568 Z M3.53827336,44.151466 C4.81699724,43.9682094 5.822072,43.7515936 6.83620944,43.6940927 C8.89078826,43.5773352 10.9500089,43.5279547 13.0076823,43.4924007 C13.6246086,43.4816467 13.8334926,43.3249459 13.7914947,42.6643443 C13.6968891,41.1770031 13.733803,39.6819805 13.6681537,38.1924446 C13.5932207,36.4922185 13.4948573,34.7915535 13.3279712,33.0985698 C13.3023304,32.8376212 12.8766048,32.4421381 12.5987559,32.407901 C11.2791394,32.2459329 9.94382897,32.0819896 8.61979163,32.1192993 C7.06233469,32.1631931 5.50576191,32.379809 3.96178848,32.6087151 C3.71400119,32.6453664 3.35105139,33.1378548 3.35304076,33.4172388 C3.36807157,35.3048914 3.49119157,37.1914466 3.530979,39.0790992 C3.56612457,40.7507944 3.53827336,42.4242453 3.53827336,44.151466 Z M57.0419813,41.7320401 L57.0419813,54.96558 C57.9761018,54.8964473 58.8366156,54.7733252 59.6960241,54.7812261 C61.5443714,54.7983447 63.3922766,54.8973252 65.2406239,54.9219057 C65.4652018,54.9247588 65.8778859,54.693219 65.8907063,54.5433217 C66.0058688,53.2243132 66.1988379,51.8864304 66.0832333,50.5788343 C65.8657287,48.1146367 65.8787701,45.7013559 66.5558196,43.2975123 C66.7030331,42.7751761 66.5025486,42.1564931 66.472708,41.7320401 L57.0419813,41.7320401 Z M39.9806881,43.2654698 C36.6478275,43.6047688 33.2196981,43.9541634 29.9348035,44.2888536 C29.9348035,47.7808244 29.9445293,51.1610854 29.9272881,54.5413465 C29.9233093,55.2987339 30.1419191,55.6773179 30.9984542,55.6490064 C33.6993577,55.559463 36.4029138,55.5502453 39.1031542,55.4440224 C39.3801189,55.4330489 39.8502737,54.9954278 39.8714937,54.7276756 C39.9751621,53.4268831 39.9716254,52.1168728 39.9775935,50.8097156 C39.9888666,48.3325694 39.9806881,45.8554231 39.9806881,43.2654698 Z M27.2968967,42.404493 C27.2968967,39.3925009 27.2980019,36.531284 27.2935811,33.6698476 C27.29336,33.5263149 27.2962335,33.3263786 27.2100274,33.2489061 C26.8941594,32.9642548 26.5449142,32.5011753 26.2016371,32.4950302 C22.9421622,32.4384072 19.68114,32.4853735 16.421223,32.4436744 C15.7592043,32.4351151 15.570214,32.6453664 15.5991704,33.2421025 C15.6570833,34.4443535 15.7185327,35.6479214 15.730911,36.8512697 C15.752131,38.914717 15.7368792,40.9788226 15.7368792,43.1419088 C19.7925448,42.8829354 23.5869396,42.6410806 27.2968967,42.404493 Z M27.2814238,19.7539787 C26.4909801,19.8507645 25.6382028,20.0177804 24.7801205,20.0491644 C21.9994211,20.1512175 19.2167322,20.2282511 16.4342644,20.2587573 C15.7052703,20.2668776 15.3480675,20.437405 15.3562461,21.2209092 C15.3750346,23.0282362 15.3418784,24.8360021 15.3348051,26.6433291 C15.3301632,27.8995694 15.3341419,29.1555903 15.3341419,30.3431369 L27.2814238,30.3431369 L27.2814238,19.7539787 Z M40.5518588,19.7682441 L29.4113777,19.7682441 L29.4113777,30.4831581 L41.1621538,30.4831581 C40.9475227,26.7153149 40.7488066,23.2270751 40.5518588,19.7682441 Z M27.7396424,44.6731438 C26.1322301,44.6731438 24.712924,44.6408818 23.2958282,44.6808252 C21.3332026,44.7361314 19.3725663,44.8682517 17.4099407,44.9215826 C16.4782517,44.9472605 15.9024391,45.4452356 15.9313955,46.3867575 C16.0118545,49.0083143 16.1542051,51.6289933 16.1824984,54.250989 C16.1981923,55.6845603 16.1157439,55.6472506 17.4994624,55.623109 C20.0518262,55.5783374 22.6052952,55.5818489 25.1583222,55.5680223 C26.013752,55.5636329 26.8691818,55.5673639 27.7396424,55.5673639 L27.7396424,44.6731438 Z M42.9921547,30.2617139 C47.1216481,30.0580467 51.0097644,29.8662309 55.1164906,29.6634415 C55.2694512,26.0968513 55.4204224,22.5752522 55.5766986,18.9375541 C51.1675879,19.0865735 47.0478203,19.2257168 42.9921547,19.3626655 L42.9921547,30.2617139 Z M66.0852227,57.076652 C63.1192906,57.076652 60.5094561,57.080383 57.8996215,57.0740184 C57.179469,57.0724821 57.018772,57.4001493 57.018993,58.0995969 C57.0196561,60.6373166 56.9531227,63.1756947 56.8649272,65.712317 C56.799499,67.5931661 56.6801367,69.4729178 56.5464067,71.3502553 C56.4915885,72.1190551 56.7349549,72.3613489 57.5397663,72.3130657 C58.4358677,72.2592958 59.3445684,72.4076568 60.2473011,72.4741559 C62.168813,72.6163718 64.0901039,72.7623187 66.0208996,72.9073877 C65.9395564,72.5882798 65.712547,72.1072038 65.8128998,72.0260003 C66.4609929,71.5027863 66.124789,70.9394094 66.0500771,70.3356503 C65.9517137,69.5387585 66.0166999,68.7227728 65.9965851,67.9153465 C65.979786,67.2374069 65.9254098,66.5603451 65.9178944,65.8824055 C65.9112632,65.2718428 65.9369039,64.6606217 65.9671866,64.050498 C65.9777966,63.8382715 66.0790335,63.6288981 66.0799177,63.4182079 C66.0887593,61.3205235 66.0852227,59.2228391 66.0852227,57.076652 Z M42.3524612,42.7846133 C42.2991902,43.2893919 42.2523295,43.5391476 42.2494559,43.7893422 C42.2096685,47.2525626 42.2240362,50.7177581 42.1121893,54.1785643 C42.0774858,55.2513286 42.4377831,55.4596047 43.4192065,55.4484117 C45.8283355,55.4216365 48.2385698,55.5311515 50.6483619,55.5381745 C51.987209,55.542125 53.3260561,55.4508259 54.6927544,55.4012259 C54.8311263,54.4974527 55.0355895,53.7830812 55.0338212,53.0693681 C55.0260847,49.830884 54.9294897,46.5921804 54.9332474,43.3534769 C54.9343526,42.3419444 54.4491669,41.994964 53.5614651,42.005279 C53.0877736,42.0112047 52.6171767,42.1411303 52.14238,42.1718559 C48.9041251,42.3810099 45.664986,42.5787514 42.3524612,42.7846133 Z M41.5335032,72.2549064 L54.5258683,72.2549064 C54.6969542,67.207998 54.8603037,62.3790223 55.0238743,57.5515829 C54.5265314,57.4679652 54.2811756,57.3911511 54.0355987,57.3911511 C50.7692715,57.3922484 47.5018391,57.3610838 44.2366172,57.4295581 C42.3060425,57.4699404 41.966081,57.0406591 42.0204572,59.7822655 C42.0456559,61.0655005 41.9570183,62.3706825 42.1654602,63.625606 C42.4117002,65.1068021 41.4329294,66.7561114 42.7675767,68.0867518 C42.8095746,68.1286703 42.7386203,68.2923942 42.7072325,68.3951057 C42.346272,69.5885779 41.982217,70.7811723 41.5335032,72.2549064 Z M81.6197836,54.5764615 L81.6197836,30.2432785 C80.8505599,30.3960289 80.3441543,30.6302023 79.8806308,30.5645811 C78.1817074,30.3244821 76.4900784,29.724015 74.8355843,30.7351085 C74.753578,30.7851474 74.6191849,30.7592501 74.5095484,30.7555191 C72.6744636,30.6912147 70.8389367,30.6244961 68.7876735,30.5505351 L68.7876735,39.7034884 C71.0462734,39.7034884 73.2856428,39.7166566 75.5250121,39.6966849 C76.3508224,39.6894424 77.2124413,39.734653 77.9907277,39.5180372 C78.7537622,39.3060301 79.2829351,39.197393 80.1083033,39.6014354 C81.0055099,40.0405928 81.1303982,40.7646209 80.9487023,41.2628155 C80.7999415,41.6714667 79.8735574,42.0921887 79.352121,42.0278843 C76.2361019,41.6427163 73.1253878,41.5663411 69.9879277,41.6135269 C68.8953206,41.6299871 68.6446598,41.9157357 68.5898415,42.8225814 C68.3873677,46.1710195 68.1504114,49.5172629 67.9678313,52.8667983 C67.9273808,53.6057503 68.0564689,54.3541395 68.1055401,55.0641216 C72.6121299,54.9014951 76.9878634,54.7434774 81.6197836,54.5764615 Z M40.0752938,57.6343227 C38.6710185,57.6343227 37.4174933,57.6409067 36.1637471,57.6327864 C34.4131,57.621374 32.662232,57.5950377 30.9113639,57.5831864 C30.3802017,57.5794554 29.8194199,57.5840643 29.8154412,58.3287225 C29.8043891,60.545798 29.7442659,62.7650682 29.8275984,64.9790712 C29.889711,66.6321115 30.1615918,68.2768119 30.2966481,69.9287548 C30.3189732,70.1993601 30.1896641,70.6464184 30.002221,70.730475 C29.7303403,70.8522803 29.1755266,70.847013 29.0347233,70.6681458 C28.6003772,70.1164008 28.0241225,69.4656753 28.0031236,68.8371162 C27.8895084,65.446979 27.362767,62.0487215 28.0037867,58.6585843 C28.1432638,57.9213881 27.9071917,57.5704572 27.0855812,57.5981103 C25.4870106,57.6520997 23.8860085,57.6520997 22.2863327,57.649905 C20.6101765,57.6474908 18.9340204,57.6198377 17.2580853,57.5950377 C16.4979243,57.5836253 16.1769724,57.9955686 16.223391,58.6912852 C16.2742305,59.4550372 16.3504898,60.2214229 16.4839987,60.9748598 C16.96189,63.6782786 16.2777672,66.4767274 17.1793946,69.1454701 C17.4212138,69.8613779 17.2514541,70.5162733 16.4616736,70.6927263 C15.7963393,70.8410873 15.1190688,70.6398343 14.9320678,69.839431 C14.7899383,69.2299656 14.6951116,68.6025039 14.6555452,67.9781146 C14.4594815,64.8748234 14.3107207,61.7684596 14.0735434,58.6686799 C14.0507762,58.3704216 13.5432654,57.8842978 13.2461859,57.8733244 C12.3752832,57.8417208 11.4924443,57.9753774 10.6222047,58.098719 C8.59083522,58.3871012 6.56388657,58.707087 4.29047688,59.0512143 C4.67597289,62.8737054 5.08998324,66.9773361 5.51327731,71.1727049 C6.14236083,71.1727049 6.81012657,71.087551 7.44937799,71.1860926 C12.5322225,71.9695968 17.6413709,71.5618234 22.7416777,71.57565 C24.1234068,71.5791615 25.505136,71.6836287 26.886202,71.7529809 C28.7383069,71.8462552 30.5888646,72.0062481 32.4416328,72.031487 C33.8260144,72.0505808 35.2119433,71.861618 36.5983143,71.8416464 C37.6414081,71.8262835 38.6864913,71.9320676 39.685598,71.9814481 C39.8168965,67.1445715 39.9462057,62.3862648 40.0752938,57.6343227 Z M81.4517923,56.8846167 L68.0527112,56.8846167 C68.1680948,62.2490967 68.28171,67.5207413 68.393999,72.7335683 C70.1236471,72.7335683 71.8742941,72.7331293 73.6247201,72.7337877 C74.6908022,72.7342267 75.7621894,72.8035789 76.8211982,72.7177665 C77.7431615,72.6429276 78.6447889,72.3240392 79.5669732,72.2456887 C80.2159504,72.190602 81.0077203,72.1622905 81.5125786,72.4759117 C82.1538194,72.8742479 81.4990951,74.1522157 80.5227557,74.3951678 C80.1021141,74.4998545 79.6485374,74.4844917 79.2091073,74.5027076 C75.3068443,74.6642368 71.4050234,74.9218933 67.5016553,74.9449376 C64.7689218,74.9613978 62.0357462,74.6172704 59.299476,74.5121448 C58.132378,74.4671536 56.8887997,74.0613555 55.8110023,74.9344031 C55.7044604,75.0208738 55.397213,75.0226296 55.2995128,74.9350615 C54.3861702,74.1168812 53.26107,74.3934121 52.244059,74.4239183 C48.5327757,74.5349695 44.840944,74.556697 41.1334184,74.1379502 C38.791707,73.8732706 36.388325,73.8886334 34.0331301,74.0598192 C30.8832916,74.2891643 27.7937975,73.7556352 24.6768942,73.679699 C20.6079661,73.5798406 16.5324068,73.7872388 12.4610472,73.7418087 C9.60033081,73.7097662 6.74049857,73.4968813 3.8826557,73.3228424 C2.77501778,73.255246 2.38554302,72.1870905 2.8596766,71.2484217 C3.13929383,70.694921 3.0513194,69.9180009 3.00291135,69.2503762 C2.92444169,68.1646633 2.67997002,67.0899237 2.61586805,66.0039913 C2.41626776,62.6074895 2.09509476,59.2057205 2.14261864,55.8105355 C2.2071627,51.2078323 1.62096119,46.66263 1.34267021,42.0906524 C1.24762245,40.5319838 1.45805376,38.957294 1.42202403,37.3922607 C1.38289972,35.7012523 1.1397543,34.013536 1.12848119,32.3236249 C1.11212414,29.8930061 1.0851571,27.4476828 1.32852356,25.0350604 C1.51265096,23.2117123 1.19258317,21.455741 1.09775645,19.6725557 C1.0230445,18.2640038 0.66274719,16.8721316 0.550679255,15.4631408 C0.327648591,12.6657894 0.200991931,9.86097594 0.00735975858,7.06121031 C-0.0496688949,6.23666539 0.216685862,5.69040713 1.08847272,5.62390803 C1.80155193,5.56947973 2.48655889,6.51012373 2.49562159,7.24556424 C2.52258862,9.50916719 2.57453333,11.7743064 2.70693706,14.03352 C2.8088371,15.7712753 3.04468816,17.5013492 3.22793139,19.2338372 C3.24229907,19.3703469 3.3125902,19.5009309 3.39990151,19.7642937 C4.48985613,19.5694052 5.54997016,19.3242584 6.6240098,19.1985027 C9.45245418,18.8679824 12.2824458,18.5293418 15.120616,18.3046056 C19.295644,17.9740853 23.4775242,17.7234518 27.6589623,17.4822554 C28.3035187,17.4451651 28.9620007,17.7170872 29.6136305,17.7155509 C32.3079028,17.7102836 35.0039434,17.7065526 37.6955632,17.6036217 C40.7863836,17.4853279 43.9105812,17.4901562 46.9487938,17.0029351 C48.9149561,16.6875582 50.8444255,16.8547936 52.7756633,16.7920254 C53.7690229,16.7602024 54.6494304,16.8703759 55.5386795,16.3142415 C55.8169705,16.1402026 56.408919,16.1720256 56.6962727,16.356599 C57.4334454,16.8304325 58.0563398,16.55456 58.7815763,16.3763512 C59.3830296,16.2284291 60.0616264,16.4123441 60.7059618,16.4119052 C65.0739587,16.4081742 69.4421768,16.36033 73.8095106,16.4002733 C75.6350906,16.4171724 77.4604496,16.5982343 79.2833772,16.7358414 C80.3441543,16.8157281 80.8238139,16.2696893 80.7462285,15.0604153 C80.6253189,13.1716653 80.5181138,11.281818 80.4389811,9.39109288 C80.390573,8.2388808 80.6403497,7.02038908 80.3454806,5.94279644 C79.6361591,3.35196527 79.7289964,2.84652823 76.5263291,2.81426629 C73.95584,2.78836896 71.3769512,2.75896011 68.8146405,2.92619547 C64.7240504,3.19350867 60.6447333,3.62695989 56.5594482,3.97964652 C55.7924349,4.04570668 55.0207797,4.06238632 54.2511139,4.10320755 C52.3680632,4.20372434 50.4852334,4.37381279 48.6017406,4.38324995 C47.2350423,4.39027296 45.8672388,4.09464826 44.4998773,4.0922341 C41.4006574,4.08652791 38.3014374,4.18221638 35.2017754,4.2287438 C33.840382,4.24915441 32.475231,4.31411723 31.1173744,4.24761813 C26.0040262,3.99808191 20.9054877,4.15829426 15.8049599,4.56848176 C11.9692303,4.87705513 8.1244381,5.09169578 4.28030898,5.26946565 C3.6857079,5.29689927 3.03606755,4.96791528 2.48235911,4.67316846 C2.23611911,4.54170655 1.96003854,3.9649421 2.05707566,3.80385187 C2.25203408,3.47925727 2.68748543,3.10725737 3.03496234,3.09562551 C4.71178158,3.04009986 6.39257957,3.12240073 8.07138819,3.10616002 C8.97854165,3.09716179 9.88414782,2.98720784 10.7908592,2.92487865 C13.4864578,2.73986631 16.1833826,2.56889999 18.8776549,2.36216022 C19.5684089,2.3092682 20.2474478,2.07750897 20.9370966,2.04678331 C22.0997738,1.99542757 23.2668718,2.04129659 24.4322015,2.04239393 C25.7832059,2.04371074 27.1346524,2.03076208 28.4858778,2.04305234 C30.3653919,2.05995145 32.2457902,2.14817797 34.123757,2.10691781 C36.0194071,2.0652187 37.9117416,1.896886 39.8060655,1.79636922 C40.3555741,1.76739931 40.9077353,1.794394 41.457686,1.7724471 C42.6860125,1.72372499 43.9134548,1.66271261 45.1411181,1.60082237 C45.2863422,1.59357989 45.4331137,1.51369318 45.5734749,1.52751973 C47.2010019,1.68641526 48.8247713,1.95965413 50.4545087,1.99850014 C52.5619164,2.04875853 54.6799341,1.99323288 56.7824788,1.8396046 C59.593682,1.63396218 62.3927279,1.27337466 65.2001733,1.01198712 C67.1924185,0.826535843 69.1879793,0.669396061 71.1853084,0.551760694 C72.1724788,0.493601417 73.169375,0.600043867 74.1565454,0.541006715 C74.6824027,0.509183714 75.1967658,0.284886428 75.7155497,0.144645757 C75.8848673,0.0987767426 76.0643528,-0.023467473 76.2184186,0.00396614806 C77.5031106,0.232213876 78.7833818,0.487017348 80.0649792,0.734358876 C81.7210206,1.05412516 81.7267676,2.57767875 82.0835283,3.70333509 C82.8817084,6.22064416 82.7974916,8.80774436 82.6093855,11.4486145 C82.4332156,13.924005 82.8576149,16.4426308 83.0302481,18.9412851 C83.2548261,22.1878895 83.5558843,25.4309825 83.698456,28.680879 C83.778915,30.5198094 83.5364327,32.3708107 83.5658312,34.2141306 C83.6177759,37.4701722 83.7767046,40.7242386 83.8704261,43.9798413 C83.9327597,46.1495115 84.0428383,48.3226933 83.982494,50.4901688 C83.9029191,53.3366813 83.6317015,56.1774877 83.5315698,59.0240002 C83.4796251,60.503221 83.661321,61.9892454 83.6577844,63.4719778 C83.6546898,64.7782571 83.5459375,66.0843169 83.4732149,67.3897183 C83.4409428,67.9688969 83.3642415,68.5456614 83.3397059,69.1246205 C83.302571,69.9939371 82.6776873,70.8217741 82.0236261,70.7284998 C81.0634227,70.5915511 81.0015311,69.9318274 81.0658542,69.0998205 C81.241803,66.82283 81.3664703,64.5403527 81.439856,62.2578754 C81.498432,60.4354051 81.4517923,58.6098622 81.4517923,56.8846167 Z" id="Fill-1" fill="#1286C9"></path>
                        <path d="M40.8679728,10.9926777 C40.7773133,11.4314764 40.785143,11.869336 40.5871344,12.206888 C40.4165298,12.4974794 39.9166664,12.9126101 39.7293722,12.850998 C39.3339733,12.7208235 38.7479834,12.2946101 38.7698241,12.0258083 C38.8522418,11.0240473 39.1159784,10.0297999 39.3784788,9.04757441 C39.5122015,8.54697565 39.7213365,8.04036595 40.0178342,7.60532402 C40.3225736,7.15826021 40.7218874,6.72002497 41.1953771,6.44032833 C41.3381658,6.3559873 41.9810239,6.74312953 42.1965462,7.03597511 C42.9238824,8.02289665 43.5582927,9.06692213 44.2370025,10.0842741 C44.3935961,10.3192643 44.5532804,10.5651494 44.7669483,10.7537427 C45.2117979,11.1465202 45.4528696,11.5541372 44.9490914,12.025057 C44.5273188,12.4191493 43.3427704,12.3519019 43.234185,11.858629 C42.9152285,10.4058595 41.9136474,10.7567482 40.8679728,10.9926777" id="Fill-4" fill="#1286C9"></path>
                        <path d="M47.5041265,9.01863778 C48.1583202,8.0857657 48.6636207,7.22326014 49.2990857,6.54205723 C49.4998574,6.32706116 50.1368207,6.44212302 50.4160657,6.68210264 C50.8204185,7.02912189 50.5192609,7.42244093 50.3038808,7.90423383 C49.9220024,8.75871716 49.6974453,9.76539386 49.5820764,10.7395232 C49.4464806,11.8844116 49.5266395,13.0652856 49.4459187,14.2236973 C49.4266282,14.5012668 49.1734161,14.9110888 48.9694605,14.9732038 C48.7113789,15.0522802 48.2543984,14.952346 48.1304144,14.7261188 C47.874393,14.2592243 47.6640696,13.663974 47.6447791,13.1104394 C47.592526,11.6109678 47.334819,11.1470531 46.204167,10.546531 C45.5422945,10.1951568 44.9058931,9.72482424 44.338226,9.18229151 C44.1473805,9.00007202 44.1219094,8.40917663 44.1840887,8.04680053 C44.2131182,7.87741663 44.6288955,7.72109752 44.8710577,7.71765942 C45.093742,7.71445052 45.3209212,7.91729863 45.5415454,8.04129956 C46.0487187,8.32620374 46.5491498,8.63013209 47.0611926,8.90105464 C47.2256306,8.98815326 47.4177871,8.99709233 47.5041265,9.01863778" id="Fill-6" fill="#1286C9"></path>
                        <path d="M31.7553326,12.6434694 C31.7681975,12.8862167 31.8589669,13.4577514 31.8046482,14.016208 C31.77463,14.325493 31.5494933,14.8109877 31.3262625,14.8607762 C31.0372776,14.9250193 30.656332,14.6473971 30.3299434,14.4886247 C30.2408416,14.4452606 30.1517399,14.2981896 30.1538841,14.2006777 C30.1936702,12.463818 30.227262,10.7262699 30.331611,8.99239291 C30.3413789,8.83063781 30.9272107,8.51011033 31.0589574,8.58169557 C31.4375206,8.78750312 31.8782643,9.10390069 32.0102492,9.47169278 C32.3852388,10.5138086 32.7609431,10.7090619 33.6774519,10.1230725 C33.9731076,9.93401409 34.2292155,9.66786386 34.5477422,9.53731258 C35.1104648,9.30626664 35.9771815,8.83201445 36.2337658,9.03254489 C36.7690909,9.45104319 37.2307997,10.2249438 37.284642,10.8859601 C37.3708848,11.9452839 36.9811244,13.0298461 37.67202,14.0492474 C37.7687454,14.1924179 37.5004873,14.6898435 37.2715388,14.872707 C37.0916677,15.0163364 36.5515778,15.0470813 36.4491347,14.9202011 C36.0679509,14.447555 35.7539507,13.9083713 35.5126137,13.3545035 C35.4023087,13.1014313 35.5786062,12.7453407 35.5190462,12.4562464 C35.4394741,12.0703286 35.2567441,11.7039132 35.1183267,11.3290084 C34.7852674,11.5517945 34.4805586,11.8484603 34.1127162,11.9815354 C33.4206293,12.2318543 32.6918535,12.3876439 31.7553326,12.6434694" id="Fill-8" fill="#1286C9"></path>
                        <path d="M8.64515741,6.42857143 C10.2316768,7.55292055 10.2508989,7.71565244 9.19923038,8.79654845 C8.62851144,9.38338265 8.5405256,10.6741572 9.04644416,11.3830946 C9.52620477,12.0553142 10.0780979,12.6716965 10.5067316,13.3793303 C10.7072759,13.7108775 10.844407,14.2662082 10.7243182,14.5947137 C10.6349452,14.8393547 10.015081,15.0829093 9.75726667,14.9727557 C9.2390618,14.7517967 8.7727765,14.3303015 8.34790796,13.914238 C7.86993085,13.4455963 7.48727172,12.8605002 7.0152396,12.3833851 C6.54142398,11.9040973 6.26458566,11.4626138 6.62881532,10.7293426 C7.3198212,9.33840869 7.95355702,7.9131468 8.64515741,6.42857143" id="Fill-10" fill="#1286C9"></path>
                        <path d="M74.1009103,9.23448317 C73.4460357,8.80147202 72.8590709,8.53489103 72.4518188,8.09769822 C72.2089583,7.83697157 72.0737597,7.23397584 72.2050245,6.91784215 C72.3808033,6.49403066 72.8273935,6.23978558 73.393447,6.60149939 C74.2723413,7.16351483 75.2330173,7.60008039 76.0856173,8.19659454 C76.3369666,8.37222436 76.554568,9.05299902 76.4208187,9.25497331 C75.8315765,10.1454583 75.1292892,10.9650642 74.4077469,11.7547711 C74.3174765,11.8534584 73.7054596,11.6995732 73.6247132,11.5258251 C73.4559737,11.1622296 73.3750202,10.6848928 73.4557667,10.2957891 C73.5321653,9.92654831 73.8603272,9.61020554 74.1009103,9.23448317" id="Fill-12" fill="#1286C9"></path>
                        <path d="M41.2260992,41.6399081 C41.1595971,42.2393822 41.1011769,42.5358518 41.0974823,42.8331927 C41.0478367,46.9460818 41.0658477,51.0609314 40.9259163,55.1709886 C40.8825052,56.4448711 41.3327795,56.6923285 42.5596039,56.6790407 C45.5706693,56.6472372 48.583351,56.777283 51.5953399,56.7855606 C53.2687441,56.790353 54.9421483,56.6818725 56.6504199,56.6230578 C56.8236023,55.5495809 57.0789887,54.7015603 57.0769105,53.8537575 C57.0672123,50.007495 56.9464464,46.1614503 56.9510646,42.3154056 C56.95245,41.1140613 56.3458497,40.7021406 55.2365584,40.7145571 C54.6445054,40.721092 54.0561469,40.8757529 53.4627084,40.9121308 C49.4153194,41.1606773 45.3667758,41.3952826 41.2260992,41.6399081" id="Fill-14" fill-opacity="0.4" fill="#1186C9"></path>
                    </g>
                </g>
            </g>
        </g>
    </g>
</svg>
