<?xml version="1.0" encoding="UTF-8"?>
<svg width="75px" height="75px" viewBox="0 0 75 58" version="1.1" xmlns="http://www.w3.org/2000/svg" xmlns:xlink="http://www.w3.org/1999/xlink">
    <!-- Generator: Sketch 50.2 (55047) - http://www.bohemiancoding.com/sketch -->
    <title>sketch-notification</title>
    <desc>Created with Sketch.</desc>
    <defs></defs>
    <g id="design" stroke="none" stroke-width="1" fill="none" fill-rule="evenodd">
        <g id="Move-In-Date-&gt;-45-days" transform="translate(-550.000000, -449.000000)">
            <g id="Group-2" transform="translate(486.000000, 393.000000)">
                <g id="sketch-notification" transform="translate(64.000000, 56.000000)">
                    <path d="M69.8785593,13.7459091 C69.8219271,12.6105558 69.9223204,11.4394755 69.6690204,10.348781 C69.3650088,9.04091734 68.9917516,7.63556996 68.2215546,6.57754014 C67.399359,5.44856669 66.0556329,4.70187222 64.9819392,3.74234686 C63.2384418,2.18464932 59.9859555,1.6125068 58.1037094,2.82543872 C56.9098011,3.59459017 55.9269762,4.71080397 54.9351416,5.75173587 C54.3510584,6.36496444 53.9644154,7.0940506 54.4161854,8.05383115 C54.559825,8.35929707 54.2259529,8.89443661 54.0902932,9.31831204 C53.8431711,10.0900154 53.3867676,10.8502351 53.3599961,11.6270423 C53.2662957,14.3601584 55.0046447,16.3606157 56.6732332,18.1627881 C58.223924,19.8371088 60.3321838,20.6328003 62.8546304,20.6044739 C67.2902134,20.5542009 70.1117807,18.0408058 69.8785593,13.7459091 M45.1025164,31.8375556 C47.2586562,34.0482918 48.156018,36.8995622 50.6709995,38.4748681 C51.0025549,38.6828503 51.1546894,39.160061 51.4167417,39.4918118 C52.1321085,40.3962155 52.8513366,41.2980673 53.5888414,42.1846075 C54.3683055,43.1221862 55.2069758,44.0130647 55.9542626,44.9743764 C56.9592255,46.2671837 57.9595549,47.5707091 58.857689,48.9367568 C60.1149223,50.8499381 62.8294034,51.4123832 63.3663789,53.9658435 C63.4878806,53.9395587 63.6093823,53.9127634 63.7306265,53.8862234 L63.7306265,23.321768 C62.9220741,23.3679579 62.1127495,23.472587 61.3088306,23.4429847 C60.559742,23.4154238 59.6837459,23.4537028 59.1001775,23.0897977 C58.1531338,22.4990261 57.6197621,22.7774415 56.8614063,23.3794416 C54.7114447,25.0861718 52.5027916,26.7219584 50.2756043,28.3289082 C48.6505195,29.5010092 46.9595355,30.5832824 45.1025164,31.8375556 M24.9432795,35.5051881 C22.0331602,32.8067783 19.2769773,30.2617393 16.5354673,27.7006232 C16.1022314,27.2953769 15.7547161,26.8010682 15.3353809,26.3789791 C12.9856623,24.0128304 10.6549926,21.6272871 8.25893861,19.3078387 C6.84622434,17.940515 5.32487935,16.6831795 3.64341987,15.1913218 C3.35150698,27.1511929 2.81967978,38.8566367 3.37802111,50.7146858 C9.65466324,44.2011419 17.474531,39.9386546 24.9432795,35.5051881 M4.60951256,53.1239621 C4.69626269,53.2477307 4.78301282,53.3717544 4.86976295,53.4960334 C5.95890181,53.6568049 7.04314971,53.8762708 8.1382092,53.9683955 C12.4185687,54.3287279 16.7027895,54.6441463 20.9846935,54.9861048 C22.8092778,55.1320752 24.6384956,55.48909 26.4545851,55.4275886 C32.2001723,55.2331316 37.9388092,54.8483006 43.6831093,54.6158199 C46.2096746,54.5137427 48.7439625,54.6234757 51.2746466,54.5966804 C54.0964712,54.567078 56.9182959,54.4966448 59.7396057,54.4285083 C59.9993413,54.4223837 60.2565026,54.3055053 60.7327274,54.1847991 C60.3308967,53.7665379 60.0863488,53.502158 59.8315042,53.2479859 C58.2264981,51.6499678 56.5061684,50.1494335 55.0406833,48.4345371 C53.04646,46.1000323 51.2944678,43.5641804 49.3473521,41.1875687 C47.9619243,39.4966605 46.4248767,37.9282448 44.9591342,36.3019004 C44.2218868,35.4834967 43.4861839,33.9918941 42.7615501,33.9987844 C41.7825864,34.0082265 40.776079,35.1188261 39.8542623,35.8471466 C39.0235719,36.503758 37.899939,37.1578174 37.616006,38.038233 C37.280332,39.0791649 36.7490196,38.9872954 36.0506424,38.9962272 C33.4445347,39.0299127 30.9676512,38.6111411 28.6961879,37.203497 C27.9612573,36.7482328 27.1470417,36.6239539 26.2537985,37.3612062 C24.7231864,38.6241559 23.0388953,39.715616 21.3556339,40.7800257 C20.6711574,41.213088 19.7320937,41.2577468 19.0617752,41.7045896 C17.2495469,42.9126728 15.4646051,44.174857 13.7682154,45.537332 C10.6776455,48.0201038 7.65863802,50.5901517 4.60951256,53.1239621 M3.79735631,10.9688998 C4.85019912,12.1032323 5.72799716,13.1339565 6.69408984,14.0756183 C10.3023289,17.5919215 14.1620661,20.8854413 17.4953819,24.639329 C20.1691908,27.6503502 23.125388,30.2760301 26.2167302,32.7952946 C27.0072633,33.4399119 27.9561089,33.9362621 28.9018655,34.3394669 C30.0684874,34.8368379 31.2827318,35.350286 32.5229755,35.515651 C33.7490611,35.6789745 35.0176209,36.3493663 36.3078038,35.3092 C38.8868826,33.2293777 41.5424147,31.2360659 44.2422229,29.3116561 C46.3780265,27.7891752 48.6592717,26.4685518 50.8159263,24.9728662 C52.3619835,23.9008007 53.8084196,22.6876136 55.4371082,21.4310437 C54.098788,19.7363076 51.6298845,18.8252689 51.1104134,16.5425682 C50.6035558,14.3154997 50.5265876,11.9924786 50.2758617,9.83711924 C48.6224609,9.83711924 46.7996785,9.92898868 44.9907967,9.81057917 C43.2532199,9.69676313 41.5189896,9.42574826 39.8032934,9.11492329 C36.8110575,8.57263835 33.8633551,9.07281646 30.9050984,9.36526754 C28.5522908,9.59800347 26.2043741,9.8743774 23.8523387,10.1150243 C22.0761491,10.2969769 20.2991872,10.5654398 18.518879,10.5993805 C14.0395348,10.6846149 9.5581312,10.6519502 5.07775732,10.6892084 C4.67412467,10.6927811 4.27229396,10.8609532 3.79735631,10.9688998 M6.64698221,7.88693498 C10.7703162,7.88693498 14.8957096,7.97216942 19.0151824,7.85197356 C21.181104,7.78894091 23.3326102,7.3283177 25.4975021,7.11752835 C27.7815789,6.89525532 30.0777545,6.79292296 32.3615739,6.56656685 C33.4813456,6.45555793 34.5851573,6.0207092 35.6961768,6.01917805 C37.5611758,6.01662612 39.4336401,6.17969439 41.2898869,6.38767661 C44.3673284,6.73269743 47.3883952,7.84967682 50.5191224,7.23568267 C51.1830055,7.10553428 51.7143178,6.18581902 52.2536102,5.58356374 C53.1550907,4.57682769 53.9165355,3.42310053 54.9256171,2.54396094 C55.5884705,1.96620418 56.8554857,1.98432288 57.3795904,1.35118926 C59.2396985,-0.895529158 61.4099962,0.280910176 63.5198005,0.528957689 C65.3436126,0.74357493 66.7323869,1.67043559 67.9880757,2.95737346 C68.8584086,3.8492727 69.9611907,4.51379504 70.8773441,5.36741534 C71.3432721,5.80175368 71.8434368,6.38869739 71.9538695,6.97589628 C72.3616208,9.14733279 72.6156931,11.3476061 72.9240808,13.5374165 C73.2391614,15.7726512 72.5585462,17.7927583 71.1605048,19.4532986 C70.1828283,20.615192 68.7878759,21.4241535 67.6361843,22.4536017 C67.1828698,22.8588481 66.5696982,23.4325217 66.5655795,23.9339758 C66.5300558,28.3281426 66.6901702,32.7235854 66.6438349,37.117497 C66.6039349,40.8629634 66.3601594,44.6058778 66.2283609,48.3508339 C66.209312,48.8956707 66.3658226,49.4468874 66.347031,49.9919795 C66.3022401,51.314134 66.2098268,52.6347573 66.1158689,53.9543599 C66.1017109,54.150348 65.8702914,54.3695587 65.9168842,54.5262472 C66.4224547,56.2240456 65.3034553,56.36874 64.0971909,56.4284552 C58.2440026,56.7178439 52.3908144,57.0072327 46.5371113,57.2866689 C43.8442534,57.4152862 41.1508807,57.542117 38.4567358,57.6324553 C33.8929582,57.7853159 29.3268639,58.0422952 24.7643734,57.9940637 C22.036764,57.9647165 19.3197088,57.3782832 16.5882381,57.1521823 C14.1319481,56.9485383 11.6635594,56.8880576 9.19954684,56.7775591 C6.98960661,56.6787994 4.7786367,56.6053039 2.56895388,56.5065442 C1.37298623,56.4534641 0.743082472,55.491642 0.657619436,53.9962115 C0.518613295,51.5670301 0.259650001,49.1444838 0.0598930275,46.71862 C0.028745355,46.3391481 -0.053371236,45.9267564 0.0521704641,45.5786732 C1.12303259,42.0501208 0.475109521,38.4222983 0.666114256,34.8473008 C0.889811177,30.6613714 0.834466139,26.4585993 0.822110037,22.263483 C0.81310038,19.2100998 0.648609779,16.1572269 0.611541475,13.1035885 C0.595324091,11.7916418 0.350003993,10.4921994 1.4672015,9.29406871 C2.41089875,8.28197362 3.31727028,7.58070349 4.71943038,7.60520201 C5.36194765,7.61592011 6.00472235,7.60673317 6.64723963,7.60673317 C6.64723963,7.70038896 6.64723963,7.79353438 6.64698221,7.88693498" id="Fill-1" fill="#1286C9"></path>
                    <path d="M60,9.96317216 C60.0627331,9.26536342 60.0458753,8.81835224 60.1525493,8.39490593 C60.385795,7.46625763 61.0181009,6.8848305 62.1848822,7.01924645 C63.2629527,7.14308225 63.915709,7.7050323 63.9394758,8.68153171 C63.9695987,9.94129049 63.9378176,11.2020111 63.945832,12.4627317 C63.9513591,13.3081816 64.0516769,14.1594025 63.9646243,14.9969172 C63.926487,15.3612109 63.571644,15.945764 63.2764942,15.9880846 C62.8243734,16.0527677 62.1732752,15.8464549 61.8355663,15.554539 C61.3674168,15.1500889 60.9409972,14.5934289 60.7983967,14.0427804 C60.4286304,12.6180675 60.2244023,11.1608928 60,9.96317216" id="Fill-4" fill="#1286C9"></path>
                    <ellipse id="Oval" fill-opacity="0.4" fill="#1186C9" cx="63.5" cy="11" rx="11.5" ry="11"></ellipse>
                </g>
            </g>
        </g>
    </g>
</svg>
