<?xml version="1.0" encoding="UTF-8"?>
<svg width="62px" height="93px" viewBox="0 0 62 93" version="1.1" xmlns="http://www.w3.org/2000/svg" xmlns:xlink="http://www.w3.org/1999/xlink">
    <!-- Generator: Sketch 50.2 (55047) - http://www.bohemiancoding.com/sketch -->
    <title>sketch-one-adult</title>
    <desc>Created with Sketch.</desc>
    <defs>
        <polygon id="path-1" points="0 0.0694877002 61.8200149 0.0694877002 61.8200149 73 0 73"></polygon>
        <polygon id="path-3" points="0.214742662 0.0751460674 35.7754779 0.0751460674 35.7754779 22.0000067 0.214742662 22.0000067"></polygon>
    </defs>
    <g id="design" stroke="none" stroke-width="1" fill="none" fill-rule="evenodd">
        <g id="Occupancy" transform="translate(-322.000000, -392.000000)">
            <g id="Group" transform="translate(256.000000, 362.000000)">
                <g id="sketch-one-adult" transform="translate(66.000000, 30.000000)">
                    <g id="Group-3" transform="translate(0.000000, 20.000000)">
                        <mask id="mask-2" fill="white">
                            <use xlink:href="#path-1"></use>
                        </mask>
                        <g id="Clip-2"></g>
                        <path d="M59.6545261,18.3207502 C59.5457948,19.0481174 59.0234216,18.3719698 58.7023172,18.3987764 C58.5517127,18.3331961 58.4013396,18.2673764 58.2509664,18.2020354 C57.9428172,18.2166354 57.6640485,18.3193141 57.4151231,18.5098321 C56.5751157,18.4988223 55.6266082,18.3231436 54.7086381,18.2254911 C52.1596978,17.9545534 49.6954291,17.8260256 47.1367724,17.8288977 C44.6276231,17.8320092 42.1226381,17.4299108 39.6118694,17.5108092 C37.4749515,17.5797403 35.2010784,17.5984092 33.2492351,17.4694026 C30.829847,17.3092813 28.3671978,17.9569469 25.9434142,17.7781567 C23.249653,17.579501 20.4598843,17.639337 17.7860187,17.8695862 C15.5473097,18.0624977 13.3402948,18.1548846 11.0874739,18.243442 C9.70450373,18.2975338 8.3675709,18.5198846 6.98922761,18.6141862 C5.8255709,18.6936485 5.2055709,18.2920289 4.15573507,18.1173075 C2.99948134,17.9253534 2.58907836,18.5471698 2.25548134,16.9737207 C2.01488433,15.8382715 2.11690672,14.5939207 2.08868284,13.4424354 C2.02205597,10.7304256 1.66116045,7.94158623 1.95959328,5.22550754 C2.23859328,2.68917639 4.75329478,2.75762885 6.6641903,2.69133049 C8.90081716,2.61378295 11.1295784,2.63340918 13.3631978,2.61952721 C17.9248246,2.59128459 22.5308694,2.25333049 27.0642724,2.13748787 C31.5296604,2.02332066 36.1211306,1.64898623 40.5187351,1.97832393 C43.4840933,2.20043541 46.322444,2.30670426 49.291041,2.32728787 C51.6565261,2.34356328 54.3803619,2.01183213 56.70675,2.62790426 C59.8488545,3.45986492 59.1781903,5.79203541 59.2644813,8.57177967 C59.3628022,11.7246616 60.1192948,15.2169338 59.6545261,18.3207502 M57.3501157,52.6431961 C57.0701903,56.5605436 57.0331754,60.4699928 56.4888246,64.3667567 C56.2380485,66.1632748 55.7226157,66.6192256 53.8556754,68.4683993 C53.0536082,69.2625436 52.2469142,69.7962813 51.2792052,70.2110649 C49.5880858,70.9357993 48.165556,70.8316846 46.3513619,71.0205272 C44.8649813,71.1751436 43.3994216,70.8046387 41.8558993,70.7467174 C40.3877948,70.6916682 38.9846978,70.7201502 37.4587575,70.6402092 C33.9906903,70.4585469 30.5112873,70.8532256 27.0462276,70.5411207 C24.1724813,70.2821502 21.2300261,69.9355797 18.337541,69.9930223 C15.1218694,70.0564485 11.8594664,69.7747403 8.70672015,69.0172157 C7.22797388,68.6617895 6.07010075,68.3523174 5.38509328,66.8212321 C4.58950373,65.0424256 4.55850373,62.6592748 4.51547388,60.7234584 C4.35260821,53.3621862 5.50654851,50.6315075 5.57086194,43.2652092 C5.60672015,39.179842 5.46583209,35.0865764 5.71776493,31.0083895 C5.81816791,29.3796518 5.89844403,27.5522584 5.78045896,25.9287862 C5.72216045,25.1298551 5.59515299,24.3026813 5.50978731,23.5023141 C5.42280224,22.6861502 5.0313694,22.075583 5.07231716,21.3379239 C5.12390672,20.4109436 5.20233209,20.6715895 6.00139179,20.4205174 C6.82983209,20.1603502 7.9041903,20.2994092 8.77704851,20.1392879 C10.0947799,19.8975502 11.3963172,19.9193305 12.756847,19.8848649 C16.0849515,19.8010944 19.5597276,19.6191928 22.7883545,19.2678354 C24.1370858,19.1211174 25.8321381,19.5031108 27.2481903,19.5083764 C29.1600112,19.515078 31.0884888,19.4904256 32.9959142,19.3456223 C36.0341455,19.1151338 39.1399291,19.3827207 42.2022201,19.5038289 C46.5570261,19.6763961 50.9317276,19.6625141 55.2356381,20.352783 C57.2423097,20.6744616 57.5449067,20.9877633 57.5055784,23.0664682 C57.4694888,24.9833764 57.2871903,26.9297239 57.1449142,28.8428026 C57.0098097,30.6608616 57.2628993,32.3434518 57.3087052,34.1447567 C57.3593694,36.1329895 57.1712873,38.0953731 57.2700709,40.0831272 C57.4759664,44.2120551 57.6446157,48.5288682 57.3501157,52.6431961 M61.6711455,16.5744944 C61.4400336,14.061619 61.2864216,11.6124092 61.240153,9.0878059 C61.2049888,7.18095016 61.5545485,3.83372066 60.396444,2.31292721 C59.6017799,1.26986492 58.1468619,0.890743607 56.9216679,0.701900984 C55.0244216,0.408943607 53.0471306,0.279219016 51.1302201,0.344320656 C49.0122724,0.416123934 46.880444,0.636799344 44.7576381,0.588451803 C42.4085784,0.535078033 40.0639142,0.0630911475 37.7282724,0.0695534426 C34.0885485,0.0798452459 30.2764739,0.139920656 26.5645709,0.415166557 C22.9394216,0.684189508 19.4956455,0.590366557 15.6076903,0.897445246 C13.531847,1.06163541 11.4562351,0.800989508 9.37437687,0.832582951 C7.14977985,0.866330492 5.02419776,0.477396066 2.97472761,1.41299279 C0.999981343,2.31460262 0.370727612,3.05321902 0.196757463,5.30137967 C0.00798134328,7.7446059 -0.0887201493,10.2479075 0.108847015,12.6937666 C0.250660448,14.4483993 -0.12966791,17.5459928 1.1066306,18.9509436 C1.88833955,19.8391502 2.68300373,19.2831534 3.52532463,19.6637108 C4.61703358,20.1569993 4.11224254,21.0255797 3.89362313,21.9082813 C3.38258582,23.9716682 3.96001866,26.4019698 3.96302612,28.5101141 C3.96626493,30.9870879 3.75620522,33.4535305 3.76869776,35.9264354 C3.79252612,40.691301 3.75319776,45.4317534 3.51075,50.1939862 C3.26089925,55.1034157 2.59370522,60.0267272 2.72649627,64.9428584 C2.83175746,68.8422551 2.63627239,69.41716 7.03110075,70.6672551 C11.1268022,71.832383 15.3386381,71.6672354 19.5807799,71.9240518 C24.3827724,72.2146157 29.086444,72.5844026 33.8935261,72.4151862 C38.5308022,72.2519534 43.3052649,73.336183 47.9138545,72.892678 C49.381959,72.7512256 51.6750336,72.7715698 52.9892948,72.0267305 C53.7989963,71.5676682 54.1145485,70.5724748 54.8037201,70.0145633 C54.9166157,69.9236125 55.8480037,69.5320452 55.8281082,69.5533469 C56.2237052,69.1280321 56.6396604,68.0409305 56.9073246,67.5478813 C58.1426978,65.2736321 57.7191082,67.2735928 57.923153,64.7935075 C58.1188694,62.4110748 58.698153,60.1227043 58.6183396,57.7900551 C58.5401455,55.5064715 59.1111007,53.1127895 59.1323843,50.8050321 C59.1504291,48.8577272 58.9884888,46.9659502 59.0227276,45.0456911 C59.0669142,42.5507666 58.4830037,39.836842 58.823541,37.347901 C59.2054888,34.5597797 58.9746082,31.6752026 59.038459,28.850701 C59.0685336,27.5139633 58.9713694,26.1793797 59.1178097,24.8505403 C59.2098843,24.0145108 58.9563321,21.5114485 59.3190784,20.9944649 C59.7942575,20.3175993 60.5787425,20.8099305 61.2558843,20.0559961 C62.0986679,19.1177666 61.7768694,17.7211928 61.6711455,16.5744944" id="Fill-1" fill="#1286C9" mask="url(#mask-2)"></path>
                        <path d="M4.36619718,19.9880952 C16.4385239,18.9832589 25.4619981,18.4808408 31.4366197,18.4808408 C37.4112413,18.4808408 46.4347155,18.9832589 58.5070423,19.9880952 L58.5070423,22.5952381 L31.4366197,21.5072312 L4.36619718,22.5952381 L4.36619718,19.9880952 Z" id="Rectangle" fill-opacity="0.4" fill="#1186C9" mask="url(#mask-2)"></path>
                    </g>
                    <g id="Group-6" transform="translate(11.000000, 0.000000)">
                        <mask id="mask-4" fill="white">
                            <use xlink:href="#path-3"></use>
                        </mask>
                        <g id="Clip-5"></g>
                        <path d="M11.880638,20.2196067 C10.4923595,20.2705281 9.0751443,19.9996067 7.71101772,19.739809 C6.98486582,19.601382 6.54397975,19.338618 5.8716,19.0869775 C5.27509367,18.8640112 4.39127089,19.0031798 3.87428354,18.6936966 C2.23446076,17.7121011 2.33334684,13.365 2.22580253,11.6494944 C2.10618228,9.73648315 1.43653671,4.12450562 3.27071392,3.11126966 C4.32770127,2.52765169 6.10241013,2.56374157 7.2940557,2.33162921 C8.84524557,2.02931461 10.3119038,1.74998876 11.8870177,1.8261236 C14.5311949,1.95392135 17.1781063,1.39255056 19.8172709,1.18194382 C22.7209671,0.950078652 25.2514481,1.21160674 28.1054734,1.7242809 C29.5094734,1.97616854 32.4473468,2.62825843 33.0253975,4.24908989 C33.4708405,5.49839326 33.3222835,7.31549438 33.5537772,8.64735955 C33.8005367,10.0694494 34.1666886,11.963427 33.9336,13.3961461 C33.8319797,14.0205506 33.6114228,14.4113596 33.4974987,15.0184607 C33.3384608,15.8650899 33.7212456,16.3214045 33.1333975,16.9594045 C32.2470684,17.9207303 29.9829418,18.2435618 28.8206886,18.5409326 C27.6474987,18.8410225 25.7176253,19.7704607 24.5189165,19.2451798 C24.0958025,19.0600337 23.9342582,18.5881461 23.6966127,18.3226629 C23.2609671,17.8359438 23.2381823,17.7444831 22.5888152,17.5116292 C24.1944608,15.5190225 26.234157,12.4167753 24.9572962,9.6828427 C24.2197519,8.10403371 23.1429418,6.69825843 21.5760304,6.12452809 C19.6028658,5.40223596 18.4328658,5.80688764 16.5718025,6.54623596 C14.0176253,7.56046067 10.5233468,9.48855056 11.1385367,13.1323933 C11.2804861,13.9740787 11.6632709,14.7552022 12.0604101,15.4831798 C12.4498025,16.1968202 13.0688658,16.6088876 13.4689671,17.2263708 C14.0185367,18.0747303 13.0497266,20.1768427 11.880638,20.2196067 M21.1693215,16.2012697 C19.8161316,17.2360112 18.6351949,18.1113146 16.9224608,17.3877865 C15.8677519,16.9423483 14.9347139,16.0000562 14.1809924,15.1536742 C13.1322076,13.9763034 12.6004101,13.1729326 13.1244608,11.4351798 C13.4598532,10.3235618 14.3578025,9.07055056 15.3564608,8.59001124 C16.3514734,8.11095506 17.7857772,7.92704494 18.8058532,7.54291011 C19.8648911,7.14419101 20.8047646,7.10266292 21.780638,8.08376404 C23.9761823,10.2916742 23.543043,14.3854045 21.1693215,16.2012697 M13.4871949,21.5776742 C13.6113722,20.9221236 14.6797519,21.1421236 14.8911949,20.5483708 C15.0727899,20.0384157 14.4386886,19.6972921 14.5845114,19.2978315 C14.9189924,18.3842135 15.7734228,18.8892247 16.3184354,19.0518764 C17.5668152,19.4246404 18.6618532,19.7707079 19.9227646,19.2644607 C20.7407392,18.9359438 20.8393975,18.6326404 21.6339038,19.0765955 C22.1693468,19.3756966 22.5596506,20.0525056 22.9975747,20.4695169 C23.2302076,20.691 23.7998278,21.5010449 23.9686633,21.5811348 C24.6369418,21.8977865 25.4533215,21.2963708 26.1270684,21.0852697 C27.8578025,20.5424382 29.6509671,20.2349326 31.3776,19.6752921 C32.5234481,19.303764 35.6132962,18.5283258 35.7053468,17.2209326 C35.7431696,16.6842809 35.4291949,16.4331348 35.3863595,15.9417191 C35.348081,15.5012247 35.7272203,14.9420787 35.7680051,14.4706854 C35.8078785,14.0096742 35.676638,13.6156517 35.6463342,13.1593371 C35.5804861,12.1765056 35.7001063,11.1865056 35.6410937,10.2049101 C35.5586127,8.83324719 35.2840557,7.58344944 35.2694734,6.18434831 C35.2587646,5.15949438 35.286562,4.09311236 35.1885873,3.07122472 C35.0698785,1.83452809 34.8930684,1.88050562 33.8736759,1.42097753 C33.2074481,1.12039326 32.4393722,0.479179775 31.7758785,0.237921348 C30.7667392,-0.128662921 29.0918278,0.237921348 28.0330177,0.237921348 L13.8093722,0.237921348 C11.916638,0.237921348 10.0118278,0.168707865 8.16466329,0.392662921 C6.57337215,0.58547191 4.56397975,0.601292135 3.05220759,1.10753933 C1.56299241,1.6061236 0.95395443,1.98976404 0.678713924,3.75767416 C0.356764557,5.82567416 0.391853165,7.8704382 0.252865823,9.9357191 C0.0906379747,12.3480562 0.474562025,14.9316966 0.868511392,17.3025056 C1.02071392,18.2193371 1.11527089,19.4243933 1.71565063,20.1672022 C2.4634481,21.0926854 3.12694177,20.6833371 4.11511899,20.7508202 C5.80552405,20.8662584 7.56656203,21.5472697 9.26334684,21.8087978 C9.7112962,21.877764 13.3472962,22.3145506 13.4871949,21.5776742" id="Fill-4" fill="#1286C9" mask="url(#mask-4)"></path>
                        <ellipse id="Oval" fill-opacity="0.4" fill="#1186C9" mask="url(#mask-4)" cx="18" cy="12.76" rx="6.58536585" ry="6.6"></ellipse>
                    </g>
                </g>
            </g>
        </g>
    </g>
</svg>