<?xml version="1.0" encoding="UTF-8"?>
<svg width="62px" height="91px" viewBox="0 0 62 91" version="1.1" xmlns="http://www.w3.org/2000/svg" xmlns:xlink="http://www.w3.org/1999/xlink">
    <!-- Generator: Sketch 50.2 (55047) - http://www.bohemiancoding.com/sketch -->
    <title>sketch-two-adults</title>
    <desc>Created with Sketch.</desc>
    <defs></defs>
    <g id="design" stroke="none" stroke-width="1" fill="none" fill-rule="evenodd">
        <g id="Occupancy" transform="translate(-586.000000, -394.000000)">
            <g id="Group-2" transform="translate(516.000000, 363.000000)">
                <g id="sketch-two-adults" transform="translate(70.000000, 31.000000)">
                    <g id="Group-3">
                        <path d="M59.8902921,55.0067304 C59.8020883,57.416994 59.4548883,59.6556435 59.5351374,62.0332658 C59.6394845,65.1205891 59.4279826,68.2116217 59.2482996,71.2863337 C59.0763374,74.2297386 58.9130317,77.2223527 58.5038317,80.1303962 C58.2949034,81.6153283 58.2696355,83.1101516 58.0462015,84.5871707 C57.7726996,86.3945592 57.274594,85.9902522 55.7157034,86.291937 C52.9881713,86.8193908 50.4145864,87.554562 47.6426015,87.93785 C45.1209562,88.2862712 42.4397487,88.3122359 39.9216128,88.1744995 C34.7381789,87.8908663 29.2349185,87.3750348 24.0496128,88.2919587 C23.2688808,87.5347793 20.6887449,88.3409207 19.7131223,88.4662929 C18.3049034,88.6470565 16.8880279,88.7729234 15.4833185,88.9798989 C12.6076883,89.4032467 9.81979396,88.883706 6.93550717,88.7269288 C5.73645057,88.6621408 4.18504679,88.9628364 3.8074317,87.4094071 C3.56294113,86.4046978 3.71992981,84.8520103 3.63406566,83.8005647 C3.37764302,80.6667522 3.35752226,77.4896652 3.37062415,74.3474451 C3.39612604,68.2207712 2.93311472,62.0389533 3.24498642,55.9164832 C3.54749962,49.9774967 3.35214113,43.9104179 4.21429208,38.0166842 C6.06399774,38.8309859 8.04308453,38.8636272 9.98707698,39.3369261 C12.4280053,39.9308989 14.9873185,39.9383174 17.4815902,39.7731326 C19.7989864,39.6190755 22.0642091,40.0233826 24.3743525,39.9870321 C26.4411751,39.954638 28.5501109,39.6739723 30.6412657,39.5031 C35.8700883,39.0755484 41.0509487,38.7622413 46.2353185,37.9187603 C50.3287223,37.2530755 54.329477,36.9654859 58.5050015,36.0089967 C58.7150996,38.9506707 59.2204581,41.8898717 59.2602317,44.8775402 C59.3056204,48.2895457 60.0163977,51.5568908 59.8902921,55.0067304 M2.64136377,62.2192223 L2.64136377,61.2251462 C2.84959019,61.2248989 3.05009585,62.27585 2.64136377,62.2192223 M2.56672981,27.1926299 C2.52602038,25.4839071 2.09669962,23.2296788 2.36669208,21.5763473 C2.54099396,20.5063554 2.59925057,20.7867739 3.57066189,20.6866245 C4.19300151,20.6220837 4.60009585,20.5325674 5.30549208,20.5770783 C6.8969034,20.6772277 8.49065434,20.2689641 10.0724732,20.118369 C13.2138845,19.8194043 16.4530921,19.5080755 19.6050317,19.5654451 C20.874277,19.5886897 22.1346317,19.7506598 23.422594,19.7076326 C24.2105789,19.6814207 25.2411826,19.8312739 25.9849487,19.570638 C25.9917336,19.5681652 26.906526,19.1833935 26.7621713,19.1121761 C28.1250015,19.7840429 30.1646845,19.452437 31.7815977,19.4882929 C33.9590845,19.5367603 36.1559902,20.0530864 38.3229487,19.5080755 C44.1991449,20.2237114 50.03276,18.8139533 55.8261336,19.1334424 C56.7095751,19.1821571 58.1367449,19.3451163 58.7654015,20.1376571 C59.7473411,21.3755538 59.3446921,23.7440266 59.3224657,25.204725 C59.2964958,26.9225973 59.4712657,28.6501136 59.394994,30.3665022 C59.3149789,32.1637522 59.0077864,32.8989234 59.7159902,34.5505239 C59.0152732,34.7574995 59.0445185,34.0312304 58.5419675,33.8828609 C57.94396,33.7060538 57.2294392,34.2379587 56.6889864,34.4226788 C55.7781713,34.7345022 54.8338996,34.7139777 53.9006242,34.8425647 C52.946526,34.9743663 52.1187675,35.2775348 51.1482921,35.331937 C47.6790996,35.5260538 43.9981713,36.532494 40.7617713,36.7876897 C33.99956,37.3210783 27.2698694,38.0653989 20.4847298,37.8930429 C16.819243,37.7998174 13.2075675,38.0849342 9.60712226,37.2637087 C7.92750717,36.8804207 6.10962038,36.7572739 4.48545434,36.1867929 C4.31489585,36.1267033 3.85305434,36.2360022 3.72133358,36.1158228 C3.88627698,36.2661707 3.53135623,35.0663554 3.51263925,35.0131897 C3.26019396,34.2913717 2.96399774,33.7493283 2.8116883,32.9609913 C2.45115245,31.0930185 2.61258642,29.104619 2.56672981,27.1926299 M14.2016732,16.785494 C10.7886317,17.034013 9.45691849,15.2318174 9.77955245,11.8235212 C10.0399525,9.07250217 11.7991147,6.33854565 14.4922543,6.13280652 C15.3062091,6.07073859 16.9020657,5.91396141 17.5784506,6.45748859 C18.5210845,7.21491522 19.1123072,9.37888533 19.2737411,10.5430918 C19.0421185,13.7075674 17.426843,16.550081 14.2016732,16.785494 M2.87041283,7.71615707 C3.14274491,6.12959185 3.15982415,4.07343696 4.79054113,3.41220326 C6.46734868,2.73217609 8.60459396,2.7292087 10.3724128,2.49082826 C12.5293109,2.2002712 14.6887826,2.74182011 16.8143298,2.49206467 C19.0032808,2.23489076 21.0247147,1.98043696 23.2029034,2.07242609 C23.9157864,2.10259457 24.7751298,1.86371957 25.5308279,2.24750217 C26.1269638,2.55017609 26.0460128,3.0121 26.6358317,2.86743967 C27.2527902,5.87118152 27.6540355,8.9995538 27.880043,12.0727821 C27.9223902,12.6491978 27.9495298,15.9783636 28.4850694,17.5725946 C24.9672128,17.5421788 21.4144958,17.8423799 17.8828355,17.8423799 C18.4834166,16.5013663 20.0027675,15.7251462 20.5757411,14.2429342 C21.159243,12.7330266 21.3782317,10.4805293 20.9737109,8.9172087 C20.650843,7.66843152 19.7982845,6.28463804 18.939877,5.37167065 C17.755794,4.11300217 16.1568958,4.46834728 14.5870091,4.55860543 C14.0278392,4.59075217 13.5865864,4.77497772 13.2244128,4.81726304 C13.0082317,4.84248587 12.6898091,4.61968424 12.398526,4.64218696 C12.3004958,4.64960543 11.8110468,4.8704288 11.7069336,4.92285272 C10.3747525,5.59249402 8.98220906,7.07223315 8.44035245,8.56112174 C7.18725057,12.0028011 7.21556,16.1541815 10.340594,18.2412467 C8.82077509,18.6232984 7.14092604,18.6500049 5.58624679,18.662369 C5.11270717,18.6663255 4.26272226,18.8052984 3.8198317,18.5884315 C3.06039019,18.2172603 2.98716,16.8661082 2.82081283,15.9694614 C2.35008075,13.4271489 2.43056377,10.2794886 2.87041283,7.71615707 M33.7478166,3.77669783 C33.8559072,1.8219288 34.2318845,2.71808098 35.6873638,2.6382087 C37.0265638,2.56476576 38.3676355,2.25467337 39.7089411,2.29151848 C42.0953562,2.35704837 44.3923977,2.72401576 46.6873336,2.47252935 C48.1350921,2.31377391 49.4602543,2.58998859 50.8839147,2.93321685 C51.5289487,3.08875761 52.2114166,3.31897772 52.8812506,3.3291163 C53.3613411,3.3362875 53.8568732,3.10829293 54.3341562,3.26432826 C56.5661562,3.99331739 55.8801789,9.3437712 55.6759298,11.1640185 C55.5105185,12.6380701 55.3167977,14.0975321 55.1132506,15.5639179 C55.0325336,16.1455266 55.1995826,17.0335185 54.8217336,17.2998418 C54.4897411,17.5335239 53.4638166,17.3327304 53.0936883,17.331494 C51.5647449,17.3250647 50.0402468,17.4059261 48.5129411,17.4192793 C47.7038996,17.4262033 46.9182543,17.5382223 46.1162317,17.5649288 C45.3902468,17.5889152 44.6813411,17.2399995 43.9932581,17.2575565 C42.6217713,17.2924234 41.1705034,17.7570674 39.7269562,17.7929234 C38.5276657,17.8225973 37.3950543,17.6959886 36.2219675,18.0095429 C35.6529713,17.8218554 35.0198694,17.7560783 34.3872355,17.7184913 C34.3299147,17.0055755 33.9946468,16.2305918 33.937794,15.4828092 C33.8729864,14.6304261 33.8315751,13.8025239 33.7120204,12.9563228 C33.2777864,9.87518152 33.5772581,6.85858098 33.7478166,3.77669783 M61.9199147,50.5264641 C61.8076128,49.2111679 61.452926,48.2529478 61.3934996,46.9544668 C61.2428279,43.6715429 60.8380732,40.380706 60.6539449,37.0928364 C60.6272732,36.6185484 60.1942091,35.0705592 60.2966845,34.7384587 C60.417877,34.3470103 61.0589336,34.3719859 61.1950996,33.7374587 C61.2877487,33.3066924 61.0668883,32.9070837 61.0491072,32.4884342 C61.0147147,31.6783364 61.1859751,30.7824315 61.2074996,29.9527984 C61.2835374,27.0148337 61.5715449,23.7442739 61.1134468,20.8604641 C60.7613336,18.644812 60.5362619,18.1326897 58.4820732,17.5078065 C56.9411977,17.039206 56.9285638,16.9660103 57.0085789,15.3139152 C57.1428732,12.5431136 57.9753109,9.82869239 57.7656808,7.04255924 C57.640043,5.37686359 57.9778845,1.91836902 56.2524128,1.26331739 C55.4999902,0.977705978 54.7220657,1.30906467 53.9663675,1.35357554 C53.1606015,1.40130109 52.209077,1.35110272 51.421794,1.18913261 C50.0065562,0.898575543 49.0412279,0.487344565 47.583643,0.529135326 C46.0926015,0.571915217 44.5802694,0.841205978 43.0850166,0.684676087 C41.7774015,0.547928804 40.4524732,0.348124457 39.1436883,0.334029348 C38.0510845,0.322159783 36.9154317,0.441844565 35.8275072,0.705200543 C35.2542996,0.84417337 34.4080581,0.887447826 33.9029336,1.22597772 C33.5667298,1.45100489 33.5138543,1.87707283 33.1914543,2.11396957 C32.8255374,2.38326033 32.5716883,2.02593696 32.1418996,2.56352935 C31.7443977,3.06032011 31.8063977,4.04524674 31.7722392,4.65405652 C31.6849713,6.21614076 31.8176279,7.7398962 31.798443,9.30519511 C31.7724732,11.4224288 32.0001185,13.5067739 32.2188732,15.6215348 C32.27596,16.1749533 32.2687072,16.9449913 32.3898996,17.6054832 C31.5871751,17.5681435 30.7467826,17.5782821 29.9148128,17.5797658 C30.1852732,16.3344505 29.7248355,13.9921897 29.6604958,13.2100348 C29.5203525,11.5082359 29.5084204,9.81336087 29.3820808,8.10884185 C29.2707147,6.60635272 28.8048958,5.05786902 28.772843,3.5736788 C28.7639525,3.16096413 29.0388581,2.63474674 28.9609487,2.25862989 C28.8500506,1.7225212 28.8837411,2.1973038 28.5985411,1.80338261 C28.3226996,1.42207283 27.9537411,1.16588804 27.5569411,0.946053804 C26.7542166,0.502181522 25.6052279,0.236352717 24.6817789,0.12383913 C21.5300732,-0.260685326 18.5540732,0.721768478 15.4711525,0.507621739 C12.7925185,0.321665217 10.0439298,0.707426087 7.39173358,1.08057554 C5.30385434,1.37434728 2.09552981,1.63943424 1.60303925,4.37883098 C1.16786943,6.79948043 0.90185434,9.28887446 0.866292075,11.8598717 C0.843597736,13.501581 0.668827925,15.2674261 1.03778642,16.8715484 C1.16272226,17.414581 1.63906943,18.1707712 1.62011849,18.7182549 C1.6088883,19.0466462 1.3417034,19.4697467 1.1786317,19.9667848 C1.02655623,19.7714315 0.618526038,20.1819207 0.488443019,20.332763 C0.0425109434,20.8500783 0.140541132,20.5078391 0.0078845283,21.1678364 C-0.022530566,21.3194207 0.0432128302,22.0672033 0.0773713208,22.2254641 C0.173997736,22.6750239 0.396495849,22.871119 0.513710943,23.3384832 C0.656661887,23.9087168 0.633967547,24.694581 0.64870717,25.2868228 C0.72310717,28.2445701 0.414978868,31.3650293 1.07685811,34.2849424 C1.34380906,35.4620076 2.59106189,36.4254207 2.75787698,37.5053038 C2.89708453,38.4083799 2.16431472,39.6002821 2.07072981,40.4942087 C1.43248075,46.5956598 1.44207321,52.9013663 1.36182415,59.0525212 C1.27946943,65.3621842 1.36346189,71.5912332 1.51974868,77.8952087 C1.58736377,80.6217467 1.5220883,83.3317168 1.66971849,86.0859505 C1.73429208,87.2914533 1.56069208,89.3990429 2.49209585,90.2652739 C3.29154491,91.0091 5.16675245,90.6616679 6.16296377,90.6676027 C8.8858166,90.6841707 11.6187298,91.0617712 14.3350317,90.9912957 C17.458194,90.910187 20.5647449,90.1549859 23.6822921,89.9163582 C26.565643,89.6952875 29.417877,89.8322821 32.3047374,89.7835674 C33.807243,89.75785 35.3382921,89.6379179 36.8403298,89.7145755 C38.1711072,89.7828255 39.5320657,90.1223446 40.8523147,90.12185 C45.9891902,90.1191299 51.1251298,89.2642739 56.158594,88.0315701 C57.1262619,87.7946734 59.1226619,87.6539696 59.6703675,86.7931788 C60.269077,85.8517739 60.0182694,83.6373582 60.0636581,82.565388 C60.1829789,79.7505701 60.6436506,76.6803092 61.0477034,73.9381924 C61.4814694,70.9930565 61.2241109,67.8750701 61.5125864,64.9170755 C61.6803374,63.1932685 61.5217109,61.5616978 61.5371525,59.8584152 C61.5500204,58.473138 61.8600204,57.0962685 61.8595525,55.7065402 C61.8593185,53.9812495 62.0677789,52.2596679 61.9199147,50.5264641" id="Fill-1" fill="#1286C9"></path>
                        <path d="M2.65714286,36.6672986 C14.9019314,35.6357422 24.0543124,35.119964 30.1142857,35.119964 C36.1742591,35.119964 46.0057741,36.1555862 59.6088309,38.2268306 L58.6828962,42.5865502 L30.1142857,38.2268306 L3.98225446,40.535635 L2.65714286,36.6672986 Z" id="Rectangle" fill-opacity="0.4" fill="#1186C9" transform="translate(31.132987, 38.853257) scale(1, -1) translate(-31.132987, -38.853257) "></path>
                        <ellipse id="Oval" fill-opacity="0.4" fill="#1186C9" cx="15.5" cy="11.1519608" rx="6.64285714" ry="6.69117647"></ellipse>
                        <ellipse id="Oval-Copy" fill-opacity="0.4" fill="#1186C9" cx="46.5" cy="12.0441176" rx="6.64285714" ry="6.69117647"></ellipse>
                    </g>
                    <path d="M43.2340533,17.4738637 C44.9634347,17.9756459 46.1610699,18.2030705 47.8163832,17.1183722 C49.1964141,16.2141657 49.9766624,14.608213 50.5569026,13.0816468 C51.2850378,11.1648888 50.6821187,9.7603979 49.765315,7.99142844 C49.3865303,7.25997479 49.0596174,6.547494 48.3517484,6.10412825 C47.8414747,5.78433571 46.1859201,5.27506423 45.6162955,5.49474997 C45.147278,5.67549142 45.1139835,6.18376433 44.7144501,6.45213042 C44.197421,6.79888439 43.4955836,6.71300724 42.9300605,6.97038905 C41.6315769,7.56129375 40.6030678,8.99698997 39.8189593,10.4851112 C39.1340104,11.7852513 38.9320723,13.6433433 39.6331859,15.0428413 C40.3041415,16.3821754 42.0016761,16.8417679 43.2340533,17.4738637 M44.7716297,20 C42.9570821,19.335201 41.0247975,18.6037474 39.351872,17.6516094 C37.7156185,16.7201918 37.1802534,14.5353173 37.0135399,12.7346432 C36.8480327,10.9504455 38.2360253,9.33450714 39.2001168,7.96396772 C40.453484,6.18276575 41.4354291,5.05912314 43.4955836,4.42827558 C45.4872192,3.8188973 48.0569236,3.70456086 49.7682102,5.13301743 C51.2606702,6.37898506 52.7782216,8.8819046 52.980401,10.875303 C53.1753424,12.7923107 51.8790302,15.3301802 50.7376095,16.7786082 C49.1747004,18.761272 47.1280566,19.6115557 44.7716297,20" id="Fill-4" fill="#1286C9"></path>
                </g>
            </g>
        </g>
    </g>
</svg>