<?xml version="1.0" encoding="UTF-8"?>
<svg width="94px" height="84px" viewBox="0 0 94 76" version="1.1" xmlns="http://www.w3.org/2000/svg" xmlns:xlink="http://www.w3.org/1999/xlink">
    <!-- Generator: Sketch 50.2 (55047) - http://www.bohemiancoding.com/sketch -->
    <title>sketch-asap</title>
    <desc>Created with Sketch.</desc>
    <defs></defs>
    <g id="design" stroke="none" stroke-width="1" fill="none" fill-rule="evenodd">
        <g id="Move-In-Date" transform="translate(-540.000000, -417.000000)">
            <g id="sketch-asap" transform="translate(540.000000, 417.000000)">
                <g id="sketch">
                    <path d="M19.9462662,64.7519806 C20.070284,64.7368708 20.1940624,64.7215211 20.3180802,64.7066511 C20.2122581,63.8146905 20.1066753,62.9224901 20.0010926,62.0305295 L19.6522626,62.0727411 C20.0487365,62.9280064 19.1954557,63.9420449 19.9462662,64.7519806 Z M5.736171,59.4884778 C5.84390848,59.4745672 5.95116713,59.4606565 6.0586652,59.4467459 C6.0917047,56.0662177 5.83624715,52.716149 4.85751197,49.4418694 L5.736171,59.4884778 Z M3.43418011,33.6376902 C3.56418334,33.6302552 3.69418657,33.6232999 3.82442922,33.6161047 C3.4772751,27.5743249 3.13012099,21.532785 2.77698146,15.3900331 C1.72450596,15.9224753 1.82266678,16.68924 1.92801009,17.5066107 C2.20836697,19.6829082 2.49303334,21.8606447 2.68959439,24.0455763 C2.97713376,27.2395099 3.18973573,30.4399192 3.43418011,33.6376902 Z M73.0900542,71.1151444 C72.5235945,71.5214314 72.0263262,71.548773 71.2860499,71.3206863 C70.287922,71.0127332 69.1540449,71.1192217 68.0776277,71.0990752 C66.6068913,71.0717336 65.1349579,71.0923597 63.6635033,71.0923597 C65.5153909,71.5080004 67.3464493,72.02941 69.2665707,71.7485587 C69.5967262,71.7003511 70.1119508,71.6257612 70.2536854,71.7994046 C71.0827852,72.8146423 72.1556111,72.3524729 73.1252485,72.3167369 C73.4317018,72.3052246 73.7956151,71.8814294 73.9979221,71.5605251 C74.2110029,71.2221125 74.2888133,70.7872847 74.3785945,70.3841157 C74.5332577,69.6907416 74.2866586,69.2650277 73.5291443,69.2005111 C72.4795418,69.1108114 71.4330518,68.9352493 70.382731,68.9141435 C68.0443488,68.8668953 65.7042906,68.8712124 63.3654296,68.9014321 C62.596184,68.9112655 61.8286143,69.0650021 61.0600869,69.1532628 C61.0648752,69.2345682 61.0696635,69.3158735 61.0742125,69.3974187 C62.2425656,69.4552199 63.4104399,69.5262122 64.5795113,69.568184 C66.9006555,69.6514081 69.2246728,69.8149781 71.542944,69.7562176 C72.9564598,69.7202418 73.0254118,69.6240664 73.0900542,71.1151444 Z M48.8438534,69.8629459 C45.2344083,69.6907416 41.6249632,69.5187772 38.0152786,69.3460932 C35.4279031,69.2225762 32.8280779,69.2168201 30.2567433,68.9414851 C27.485017,68.6445647 24.7537521,68.4114414 22.0397252,69.2640684 C21.6774878,69.3775121 21.2802957,69.3787113 20.8991444,69.4321954 C30.2249009,70.2783467 39.5274341,70.4335225 48.8438534,69.8629459 Z M16.1455272,69.2827758 C17.3354279,69.8838119 18.5614804,69.5631474 19.747311,69.6821074 C19.5251324,69.2897311 19.3271348,69.0043229 19.1940192,68.6915731 C18.9079163,68.0193049 17.7029324,67.6305261 17.0246651,67.9437556 C15.7447438,68.5342388 14.4846941,69.2489585 13.1351025,69.5852125 C11.4400328,70.0078086 10.1227625,70.9918672 8.49664474,71.9778446 C9.18688288,72.1493294 9.66763147,72.3620664 10.152929,72.3726193 C12.2437544,72.4186684 14.3357769,72.4066765 16.4277994,72.4126724 C18.7750401,72.4198676 21.1227595,72.4126724 23.4702396,72.4316197 C26.8129745,72.4582418 30.1557095,72.495177 33.4982051,72.541226 C38.2829464,72.606702 43.0676878,72.6731374 47.8521897,72.7616379 C50.1551382,72.8040894 52.4566503,72.9297649 54.7593594,72.9587854 C57.0857708,72.9882856 59.4133793,72.9501512 61.7400301,72.925208 C61.9516744,72.9228096 62.1621216,72.801691 62.3732871,72.7352556 C62.0450469,72.4690345 61.7424243,72.4078756 61.4386046,72.3990016 C60.5144564,72.37166 59.5845622,72.4220261 58.6668782,72.3376029 C56.4793285,72.1368578 54.3023131,71.7744613 52.1118904,71.6672534 C49.7988863,71.5540494 47.4748691,71.6403914 45.1565979,71.6761274 C41.7283911,71.7288919 38.3011421,71.8653602 34.8736536,71.8677586 C32.5139633,71.8694375 30.1552307,71.6605379 27.7948221,71.6245621 C24.3127467,71.5720374 20.8292347,71.606814 17.3469199,71.563643 C16.6064042,71.5545291 15.8524813,71.4298129 15.1371044,71.237702 C14.8802103,71.1688683 14.5960228,70.7635407 14.5534066,70.4776528 C14.5227613,70.2721109 14.8296934,69.9471293 15.0626458,69.7876365 C15.3901677,69.5633872 15.788557,69.4427483 16.1455272,69.2827758 Z M72.5724355,58.180157 C69.8766042,58.7363433 67.3677574,59.3145947 64.8356871,59.7587762 C62.4465486,60.1775347 60.0361019,60.4840488 57.6280495,60.7840871 C56.1170911,60.9721208 54.5955985,61.0939589 53.0750635,61.1795813 C50.8360391,61.3059764 48.5733126,61.2165165 46.3582299,61.5062418 C43.678679,61.8568862 40.9881149,62.1267049 38.3363363,62.7941763 C35.8250953,63.4263914 33.1158567,62.9982791 30.6244873,64.0295861 C29.8557205,64.3478522 28.5872912,63.6137056 28.1558624,62.9001851 C26.8007643,60.6598506 25.5890767,58.3681907 24.8701086,55.8196633 C24.4743529,54.4166062 23.8128448,53.0898179 23.2854099,51.7229764 C22.8733739,50.6540148 22.4627744,49.5836141 22.0873691,48.5009817 C21.3976098,46.5115187 20.7298768,44.5143808 20.0631015,42.5170031 C19.9141844,42.0709029 19.8069257,41.610892 19.6807532,41.1573568 C19.6345458,42.2335136 19.8509784,43.2489912 19.9627859,44.2757412 C20.156474,46.0469509 20.2457764,47.8296728 20.4504776,49.5994435 C20.7540579,52.2228005 21.1376033,54.836564 21.4541121,57.458482 C21.6954441,59.4563394 21.8764431,61.4616318 22.1024524,63.4616477 C22.2652557,64.9035587 22.4989263,65.1457959 23.9471575,65.2357355 C24.930681,65.2966546 25.9206688,65.2508454 26.9073047,65.2712317 C30.4755701,65.3453418 34.041202,65.6640876 37.6130587,65.2671544 C39.9308511,65.0095675 42.2577413,64.8268103 44.5834344,64.6476507 C47.9244935,64.3905435 51.2689044,64.1727698 54.6111605,63.9276546 C57.1240775,63.7434584 59.6360368,63.5496686 62.1477566,63.3479641 C64.6396049,63.1481784 67.1292984,62.9186526 69.621865,62.72918 C71.3200471,62.6001467 73.0723374,62.985088 74.747775,62.1516481 C73.9888243,60.7658594 73.2337042,59.3877455 72.5724355,58.180157 Z M6.97874331,70.0802399 C7.2564666,70.0207598 7.45470357,70.0140444 7.61990104,69.9365764 C8.56870914,69.4911957 9.48854783,68.9779406 10.4569881,68.5824464 C12.8832362,67.5911926 15.3367778,66.6670936 17.7589559,65.6672055 C18.0388339,65.5518431 18.344569,65.1405195 18.3728201,64.8412006 C18.4542218,63.9818581 18.3895793,63.1093245 18.3993954,62.2423072 C18.4271677,59.8091423 18.3804814,57.3714205 18.5179066,54.9440118 C18.6886106,51.9292378 18.8808622,48.924537 18.2895031,45.9368648 C17.8592714,43.7634454 17.4733318,41.5864284 17.8348509,39.36696 C17.9117037,38.8947173 18.3404989,38.4608489 18.3539062,38.0020372 C18.380242,37.0860928 18.2619702,36.1615141 18.1482473,35.2472485 C17.8858467,33.1397848 17.5635919,31.0397561 17.3153169,28.9306135 C17.0126942,26.3621795 16.7680104,23.7865504 16.4859777,21.2157181 C16.1199096,17.8783609 15.7497715,14.5410037 15.3659867,11.2055652 C15.1603278,9.41756673 14.9221082,7.63340574 14.6791004,5.69406902 C13.9785673,6.14952294 13.2598386,6.61696881 12.7132504,6.97288962 C12.8643223,7.61062105 13.0110847,7.97805412 13.0288015,8.35148317 C13.0879374,9.59840521 13.0752484,10.8489248 13.1367784,12.0953672 C13.2813861,15.0338724 13.4741165,17.9699793 13.6079504,20.9089642 C13.7403478,23.8155709 13.7824851,26.7267345 13.942176,29.6316623 C14.0858259,32.2475844 14.4071231,34.8541527 14.5215642,37.4705544 C14.6968172,41.4864157 14.7329691,45.5082729 14.8816468,49.5255731 C15.0300851,53.5395157 15.2407718,57.5512996 15.4323051,61.5635633 C15.4744424,62.4425726 15.6168953,63.3230209 15.5761945,64.1965139 C15.5615901,64.5099832 15.1857059,65.0093277 14.901279,65.068328 C14.1339487,65.227581 13.3802651,64.3408969 13.5006917,63.5424734 C13.6081898,62.8291928 13.7018017,62.126465 13.9007569,61.4139039 C14.1449619,60.540171 13.890462,59.5234943 13.8356356,58.5696553 C13.6402716,55.177375 13.4264726,51.786054 13.2452342,48.3930542 C13.1872953,47.304186 13.2452342,46.2093217 13.1877742,45.1202136 C12.985946,41.2758372 12.735995,37.4340989 12.5447011,33.5890029 C12.3696875,30.0674495 12.2679355,26.5418188 12.0957949,23.0197857 C11.8767287,18.5357591 11.6231865,14.0531715 11.3727567,9.57082374 C11.3473785,9.11345111 11.2408381,8.66063541 11.1659007,8.16656744 C10.8481949,8.4313495 10.5970468,8.62633846 10.3621791,8.83931533 C9.96283218,9.20099228 9.30180286,9.52933163 9.23309029,9.95072844 C9.05161248,11.0628611 9.03676865,12.2244005 9.12295864,13.3533218 C9.29821161,15.6459411 9.64225331,17.9256091 9.8076902,20.2184683 C9.97336651,22.5108477 10.0030542,24.8130606 10.0976237,27.1107165 C10.1423946,28.188792 10.2237963,29.2656683 10.2455832,30.3439837 C10.2697643,31.5266289 10.1716035,32.7152701 10.2549205,33.8921592 C10.49314,37.2597361 10.8553774,40.6191585 11.0579238,43.9884142 C11.2808207,47.6920053 11.3837699,51.4032713 11.5312505,55.1114193 C11.6059485,56.9939142 11.8216629,58.8888808 11.6830407,60.7567455 C11.547052,62.5881547 11.4788183,64.3396977 12.2133485,66.0701348 C12.4829316,66.705228 11.8010731,67.6528312 11.1860117,67.6691402 C10.2726373,67.6940834 9.40714618,66.31525 9.67026505,65.4319237 C9.94894601,64.4960726 10.241992,63.5091358 10.2245146,62.5502602 C10.1797436,60.1019855 9.93912993,57.6582678 9.82660411,55.2104727 C9.7112053,52.6931245 9.66404022,50.1726583 9.5687524,47.6543506 C9.51560191,46.2426593 9.44521342,44.8307282 9.34920735,43.4214353 C9.05568257,39.1067349 8.70038829,34.7958719 8.45881691,30.4785332 C8.29721068,27.5961503 8.29721068,24.7051331 8.2081477,21.8186729 C8.16050379,20.2875418 8.1202818,18.7542522 7.99817931,17.2283977 C7.88301992,15.793442 7.65868653,14.36784 7.49516498,12.9364819 C7.43866265,12.4416944 7.42022757,11.94235 7.37090775,11.2571305 C6.53390721,11.9684924 5.8556399,12.5448251 5.10028043,13.1866338 C6.01413371,13.732507 6.14748877,14.4261209 6.08811345,15.2626787 C6.01533079,16.2863108 6.02754104,17.3200161 6.06776303,18.3470059 C6.18196476,21.2639257 6.33926149,24.1791666 6.46016689,27.0958465 C6.56455254,29.6131948 6.65768561,32.1312626 6.72711643,34.64981 C6.78984359,36.9179658 6.795829,39.1875605 6.85975324,41.4557163 C6.93588773,44.1697324 6.98496814,46.8868664 7.16477003,49.5946467 C7.28735134,51.4378081 7.60409954,53.2689775 7.85141692,55.1032648 C8.21485136,57.7971344 8.6127618,60.486687 8.955367,63.1834347 C9.06238623,64.0274275 9.04850007,64.8882091 9.07028698,65.7417954 C9.07962423,66.1118667 9.03868399,66.4831372 9.02048832,66.8536882 C8.55841423,66.737846 7.92491783,66.7743016 7.66323545,66.4795396 C6.57388979,65.2527641 6.36440024,63.6882954 6.26671825,62.1099161 C6.25355034,61.8938214 6.17214868,61.681564 6.12235002,61.4678676 C6.00575413,61.4870547 5.88939764,61.5064817 5.77304116,61.5259086 C6.10846386,64.3488115 5.9521248,67.230475 6.97874331,70.0802399 Z M75.027653,18.3122293 C74.7082712,18.1270737 74.4556867,17.8608526 74.1861036,17.8426249 C72.300937,17.7150306 70.4133763,17.5965502 68.5246185,17.5543386 C65.067203,17.4771105 61.6085904,17.4492892 58.1499777,17.4101955 C55.0734741,17.3756587 51.9960127,17.3790164 48.9202273,17.3128209 C47.6769367,17.2861988 46.4367586,17.034368 45.1953833,17.0338884 C42.3626058,17.0331689 39.5298282,17.1353402 36.6965718,17.1696371 C36.0939602,17.1770721 35.4875179,17.0072663 34.8875398,17.032929 C32.8874533,17.1190312 30.8907186,17.287398 28.8903926,17.3648659 C27.4866929,17.4190695 26.0791626,17.376618 24.6733081,17.3778172 C22.9217361,17.3794961 21.1696852,17.3818945 19.4181131,17.3840531 C19.1449387,17.3842929 18.8722432,17.3840531 18.4848671,17.3840531 C18.9119864,19.8148195 18.4051414,22.1307032 18.7994605,24.4487454 C19.3563436,27.7232648 19.6977517,31.0344796 20.2194406,34.3159544 C20.7370593,37.5717664 21.411496,40.7952002 22.598763,43.8922389 C23.444622,46.0989959 24.2548079,48.3206229 25.022617,50.5556809 C26.1916884,53.9575547 27.1373841,57.4474494 29.0225506,60.5576793 C29.1978036,60.8466851 29.5279591,61.086284 29.8396796,61.2390614 C30.7590394,61.688999 31.709284,61.4079079 32.675809,61.3865622 C36.2895636,61.3062162 39.7761879,60.4780528 43.3102168,59.9091551 C45.5377491,59.5503562 47.790899,59.3167532 50.0416548,59.147427 C52.4233714,58.9682674 54.8163406,58.9409258 57.2035638,58.8272422 C57.9876533,58.7898273 58.7801223,58.7509734 59.5484103,58.6053913 C61.9057064,58.1588114 64.2493558,57.6405197 66.6061731,57.1920211 C67.4697489,57.0274917 68.375462,57.0615488 69.2241939,56.8519296 C69.8399735,56.6998718 70.3652536,56.1688687 70.9807937,56.0297622 C72.3279911,55.7258864 73.7417463,55.6875122 75.0642838,55.3133636 C76.7971813,54.8226534 78.5422891,54.6794696 80.3178029,54.6470913 C80.6659146,54.6408555 81.0255184,54.6264652 81.3592652,54.5379647 C83.3277487,54.015116 85.2773183,53.4128808 87.2601669,52.9538293 C88.3801579,52.6943237 89.5516234,52.658108 90.7132729,52.519721 C87.5718873,46.8523296 84.1336251,41.4957694 81.8713774,35.4976403 C79.6031442,29.4822428 78.170954,23.2423561 76.620013,17.0931286 C76.0997607,17.4915008 75.5850149,17.885556 75.027653,18.3122293 Z M34.072805,67.4324193 C34.8058987,67.4324193 35.5413866,67.3969231 36.2720862,67.4391348 C38.1237344,67.5461029 39.9734672,67.6820915 41.8232001,67.8183199 C42.851734,67.8943489 43.8773948,68.039931 44.9064075,68.0639149 C45.3809312,68.0747076 45.8559338,67.8156817 46.3390766,67.7720311 C47.5002472,67.6662621 48.6666851,67.5477818 49.8302499,67.5561761 C52.391529,67.5744039 54.9523292,67.7250226 57.5126507,67.7130307 C59.8460051,67.702238 62.1788808,67.470074 64.511517,67.4794277 C66.7747224,67.4885416 69.0379278,67.6631442 71.2989784,67.8010515 C72.4000555,67.8682064 73.4961049,68.0178658 74.5531293,68.1257933 C74.7930247,67.1266248 74.9950924,66.1667898 75.2716186,65.22902 C75.3329092,65.0217993 75.7978563,64.720082 75.8411907,64.7548587 C76.1998368,65.0448238 76.8012514,65.4309643 76.7727608,65.7362791 C76.6283926,67.2954713 76.3260094,68.8407528 76.060257,70.3877132 C75.9213953,71.1964498 75.4835023,72.0023082 76.305659,72.7465281 C76.4385352,72.8669272 76.3116444,73.4475769 76.1383068,73.7013264 C75.7054415,74.3347407 75.2060184,74.9302605 74.6737953,75.4842882 C74.4312662,75.7370783 73.9426169,76.0759706 73.7539566,75.9848318 C73.43242,75.8296561 73.1965946,75.3912308 73.0460016,75.0221188 C72.9373064,74.7551782 73.0246935,74.4076517 73.0246935,73.9924907 C72.4177724,74.0347024 71.8587345,74.0630034 71.3018514,74.1145687 C70.0116352,74.2337686 68.7233343,74.3750337 67.4326393,74.4858392 C66.6696185,74.5510754 65.9034853,74.5980838 65.1383097,74.6131936 C62.6732761,74.6618809 60.2072848,74.7371903 57.7424906,74.7175235 C55.0057192,74.6954583 52.2699053,74.5570713 49.5328944,74.5122215 C46.7262133,74.4664123 43.9185745,74.4985507 41.1121327,74.4501032 C35.9831103,74.3616027 30.8550455,74.2196181 25.7262625,74.143829 C24.2998182,74.1227232 22.8714586,74.3040414 21.4435778,74.3095577 C17.276292,74.3256269 13.1085273,74.2915698 8.94124142,74.2954072 C7.72931444,74.2966064 6.94354906,73.654318 6.02371037,72.9165738 C4.80675565,71.9401899 4.52591994,70.9062448 4.55249519,69.4621752 C4.57452152,68.2723348 4.13854383,67.0805757 4.01811727,65.8785035 C3.95922078,65.2901789 4.25777331,64.6699557 4.22042432,64.0751554 C4.04948085,61.3302001 3.8184438,58.5890822 3.60632067,55.8465253 C3.35014487,52.5312333 3.08511066,49.2164209 2.83492029,45.9004093 C2.64051398,43.320703 2.50620125,40.7354803 2.26439046,38.1603309 C2.06758999,36.0655786 1.74629287,33.9825784 1.48915941,31.8931026 C1.27895161,30.1871291 1.04312623,28.4825946 0.894209089,26.7711047 C0.808737353,25.7908834 0.942092415,24.7914751 0.857099512,23.811014 C0.708182368,22.1009632 0.467329239,20.398827 0.264064521,18.693573 C0.165664286,17.8675681 -0.0146164355,17.0398843 0.000945645366,16.2162778 C0.00812814425,15.8378122 0.354564007,15.4320049 0.621752965,15.0991086 C1.12524614,14.4709707 1.65268097,13.8565037 2.2246473,13.2919231 C3.04704342,12.481028 3.88188921,11.6746899 4.77802565,10.9489376 C5.88796114,10.049542 7.09222679,9.26718779 8.20838712,8.37498737 C9.92787735,7.00047108 11.4939015,5.39235178 13.3474651,4.24280431 C14.4006588,3.58924352 15.2352652,2.78698265 16.163244,2.03700666 C16.565464,1.71178521 17.2305634,1.63095953 17.7867282,1.59402435 C19.5047819,1.4793814 21.2312153,1.33691714 22.9480719,1.39615732 C24.9905352,1.46666994 27.0286889,1.71274457 29.0634909,1.93291661 C29.5830249,1.98927873 30.101362,2.18906447 30.5873777,2.39940312 C32.7787581,3.3482055 34.9924043,2.54354625 37.1933613,2.49365978 C37.490238,2.48718413 37.7806503,2.17851156 38.1268468,1.9792055 C38.1998689,2.04612053 38.3502225,2.3022684 38.5017732,2.30298791 C40.0898237,2.31162211 41.6781136,2.27804467 43.2659247,2.25909741 C43.6425271,2.25430063 44.0212842,2.28715855 44.3950136,2.25693886 C45.9136332,2.13414138 47.4286617,1.93483532 48.9494361,1.87559513 C50.603805,1.81083865 52.2778061,1.73193168 53.9170917,1.90581482 C56.8303133,2.21448739 59.7162413,1.97992502 62.6064789,1.74920007 C64.9297779,1.56332498 67.2547527,1.34699037 69.5605743,1.01529328 C70.8790417,0.825820606 72.1469921,0.622197446 73.487007,0.917199197 C74.1887372,1.0716554 75.1102518,1.29398599 75.4430409,0.157389808 C75.4789534,0.0341126535 75.985559,-0.0296844732 76.2520297,0.0134865148 C76.6020568,0.0705681545 76.930297,0.261240018 77.4711391,0.47469657 C77.4412121,0.941662757 77.3784849,1.55996724 77.3665141,2.17923108 C77.2793664,6.68604239 77.589411,11.1799024 78.3830771,15.6032498 C78.9837734,18.9509201 79.9136676,22.2477445 80.8481107,25.523703 C81.7540632,28.7001284 82.7881037,31.8441755 83.8918143,34.9572834 C84.5305779,36.7594323 85.3548893,38.5047394 86.2105644,40.2179081 C87.1591331,42.1171918 88.2199881,43.9613125 89.2662388,45.8099901 C90.2358762,47.5224393 91.2354406,49.2180998 92.2584678,50.8986504 C92.4684362,51.2435386 92.7971553,51.6467077 93.1500554,51.7483993 C94.2283879,52.0589906 94.0691758,52.9190526 93.8089299,53.5090561 C93.6358317,53.9011926 92.8898095,54.1621372 92.3611776,54.2530362 C90.1446584,54.6348596 87.8931844,54.8336859 85.6929456,55.2867415 C83.7055482,55.6963862 81.8158327,56.4307727 79.7206978,56.503204 C77.9657739,56.5641231 76.2288063,57.1524477 74.3991844,57.5244377 C74.9771361,58.6687087 75.5110352,59.69354 76.0116554,60.7346803 C76.1751769,61.0747718 76.2989553,61.4489203 76.360246,61.8209104 C76.5491457,62.9682993 76.1519535,63.5491889 74.9792909,63.78567 C74.4106764,63.9000731 73.8178808,63.8926381 73.2363378,63.9458823 C69.5026355,64.2878925 65.7718061,64.6656386 62.034752,64.9637583 C59.2108328,65.1889669 56.377337,65.2887399 53.5512631,65.4892451 C50.8757823,65.6791975 48.2036533,65.9214347 45.5310455,66.1523995 C43.4294463,66.3341973 41.3304807,66.5469343 39.2281633,66.7210573 C37.7354006,66.8445743 36.2388072,66.9206032 34.7448475,67.0318884 C34.5130922,67.0491568 34.2868435,67.1412549 34.0582006,67.1985764 C34.0629889,67.276524 34.0677772,67.3544717 34.072805,67.4324193 Z M39.83281,9.37732178 C40.3987909,10.3529861 40.757437,11.0226161 41.1644453,11.6615467 C41.8259534,12.699809 42.715865,12.7633663 43.5035457,11.8507796 C43.9747177,11.3046666 44.4353553,10.7494397 45.0499377,10.0210492 C45.1691672,10.4805804 45.1849687,10.79357 45.3255063,11.033169 C45.6786458,11.6344449 45.9625939,12.4261529 46.5041544,12.7314677 C47.3196074,13.1912387 47.8640408,12.4191976 48.3706464,11.8186412 C48.9385426,11.1454136 49.5610259,10.5182351 50.2991473,9.7202913 C50.7432652,10.4242182 51.0686324,11.0561935 51.5074831,11.5951114 C51.8038809,11.9589469 52.2300425,12.3405304 52.6569223,12.429031 C52.9308149,12.4853931 53.3696656,12.074789 53.6323057,11.781706 C54.1508821,11.2027351 54.5981123,10.559967 55.171994,9.8179057 C55.661601,10.4712266 56.01905,10.9475465 56.3764991,11.4243461 C56.9709706,12.2179728 57.5606537,12.345567 58.3409125,11.7886613 C58.9911681,11.3245732 59.6057506,10.8103587 60.233501,10.3146119 C60.9730589,9.7308442 61.5146193,9.79775923 61.9601737,10.5676419 C62.1021478,10.8127571 62.1349478,11.1192711 62.2570503,11.3790166 C62.6506513,12.2162939 63.8874776,12.3892177 64.431911,11.7068763 C65.0017226,10.9928761 65.633543,10.3244453 66.1573866,9.57950591 C66.3831565,9.25836172 66.4056617,8.79403376 66.5208211,8.39470212 C66.1085456,8.42564133 65.6289941,8.33378306 65.2988386,8.51510121 C64.7285482,8.82809088 64.250912,9.31040675 63.6834946,9.76226309 C63.5051292,9.52722104 63.3317916,9.30680917 63.1670729,9.08064116 C62.3291147,7.93013433 61.2244464,7.70660454 60.0146742,8.4371536 C59.2293876,8.91155479 58.4381157,9.37636242 57.6312816,9.85627991 C56.8900477,9.17657669 56.9257208,7.52144897 55.4485202,8.00088678 C54.4796011,8.31507564 53.616983,8.95928271 52.6674566,9.47733457 C52.5963499,9.37540307 52.4273218,9.18497104 52.3138383,8.96575836 C51.6516119,7.68933615 50.8641706,7.49290815 49.7820074,8.39110454 C49.1209781,8.93961593 48.5147752,9.55432283 47.8618861,10.1138668 C47.6978857,10.2546522 47.44985,10.2975833 47.2403605,10.3853643 C47.1752392,10.1704688 47.0799513,9.9594106 47.0500243,9.7394784 C46.948751,8.99525854 46.8046222,8.39805987 45.8694609,8.19083913 C44.6079746,7.9114269 44.0810186,8.84655847 43.3855133,9.48045247 C42.605494,10.1910949 42.3909767,10.1896559 41.9154952,9.27467076 C41.641842,8.74726519 41.4215787,8.08650924 40.9755455,7.777357 C40.1646414,7.21469512 39.3195007,7.54663205 38.6022085,8.15678201 C38.0522685,8.62470756 37.5044833,9.095751 36.9255738,9.59125801 C36.3526499,7.90639028 35.2996955,7.43486716 34.0870503,8.39302325 C33.3649697,8.96312013 32.7939611,9.04154743 32.0206454,8.65084999 C31.8200142,8.549638 31.2612158,8.68298839 31.252118,8.75661891 C31.1999252,9.17633685 31.2123748,9.62243706 31.3071838,10.0359192 C31.3720657,10.3191688 31.7000665,10.5474954 31.747471,10.8281068 C31.8789107,11.6102212 32.6110468,12.1795986 33.316847,11.8774017 C33.6288069,11.7438114 33.8246497,11.3475977 34.0853744,11.0820961 C34.3439443,10.8187531 34.6175975,10.5698004 34.8847865,10.3143721 C35.0691373,10.618008 35.2072807,10.9667337 35.4486127,11.2144872 C35.8443683,11.6212538 36.2616715,12.1361878 36.7589399,12.2680991 C37.0694632,12.3503638 37.601447,11.870926 37.9320814,11.5409078 C38.5442697,10.9297985 39.0815206,10.2429001 39.83281,9.37732178 Z" id="Combined-Shape" fill="#1286C9"></path>
                    <path d="M35.365395,48.075336 C35.2257633,48.2103286 35.1031008,48.2770892 35.0953434,48.344046 C34.9911045,49.2702077 35.0289214,50.1968108 34.7351131,51.1223348 C34.6439647,51.4091943 35.5893874,51.464918 38.1653007,51.4619258 C44.4875121,51.4547641 50.8131173,51.4840485 57.137268,51.4859125 C60.6508467,51.4869917 64.1644254,51.4625635 67.7512137,51.4493193 C68.1148378,51.2075882 68.6510622,51.0166265 68.6466987,50.8257139 C68.6263357,49.9595926 68.3727685,49.0935203 68.3824652,48.227448 C68.3853742,47.956923 67.1117201,47.8641646 64.7825864,47.8669606 C63.5394767,47.8684322 62.3041244,47.9032595 61.0581057,47.9114513 C52.5599676,47.9674203 44.0594053,48.0202499 35.365395,48.075336" id="Fill-14" fill-opacity="0.4" fill="#1186C9" transform="translate(51.687938, 49.676423) rotate(-18.000000) translate(-51.687938, -49.676423) "></path>
                    <path d="M56.522508,36.3905014 C56.6335124,35.913088 56.767466,35.4387661 56.8505322,34.9578196 C57.0191591,33.9815732 57.7864613,33.3500272 58.7154058,33.6004374 C59.0633858,33.694286 59.2776617,34.1831821 59.5478139,34.4954219 C60.3497894,35.4226462 61.1527626,36.3489872 61.9465063,37.2812904 C62.1612811,37.533688 62.3453737,37.8061802 62.6926054,38.2676945 C62.8764486,36.7409432 62.9787223,35.4158008 63.2074662,34.1081032 C63.5222696,32.3097429 63.9263754,30.5235278 64.3057859,28.7342212 C64.4322561,28.1380065 64.5684547,27.5398044 64.7700087,26.9614761 C64.833618,26.7790786 65.1643861,26.5125485 65.3025803,26.5419176 C65.5527767,26.5953561 65.8523638,26.8057978 65.9479024,27.0160187 C66.1314962,27.419899 66.3462709,27.8951042 66.2639531,28.2947889 C66.0706308,29.2326125 65.695461,30.1397422 65.4220659,31.0658624 C65.2394699,31.6832758 64.9892736,32.3095221 64.9723111,32.9357684 C64.9284082,34.5464314 64.9628321,36.1610692 65.0386643,37.7715114 C65.0698453,38.4359596 65.3801586,39.0928999 65.3851476,39.7544774 C65.3886399,40.1583576 65.1601455,40.8018279 64.8440948,40.9135629 C64.3796225,41.078074 63.5407288,41.0520173 63.2166958,40.7782001 C61.8529633,39.6246351 60.6169482,38.3524895 59.3455115,37.1143503 C59.1072887,36.882489 58.9216993,36.6080094 58.4662072,36.3823311 C58.4158187,36.733877 58.3297591,37.0847604 58.3220262,37.4369687 C58.304066,38.264603 58.4128253,39.1039409 58.2881013,39.9165594 C58.2289821,40.3010075 57.8273707,40.7649509 57.4359868,40.9438153 C57.1997595,41.0517964 56.5906073,40.761197 56.3182101,40.5074745 C55.9647422,40.177569 55.7160425,39.7275373 55.5314509,39.2931838 C54.3168884,36.4320157 53.1462287,33.5564942 51.9244322,30.6979758 C51.6799731,30.1256097 51.8757898,29.7780386 52.4173415,29.5395527 C53.0165157,29.2756725 53.5341204,29.5274076 53.7212065,30.0012879 C54.2163608,31.2551054 54.5596013,32.5557367 55.0537579,33.809775 C55.396749,34.6806901 55.8899078,35.5050122 56.315965,36.3500913 C56.3848127,36.3637822 56.4539098,36.3770314 56.522508,36.3905014" id="Fill-4" fill="#1186C9"></path>
                    <path d="M43.1096395,47.8037482 C40.9076186,45.6719895 38.6526697,43.4886239 36.2171744,41.1308226 C36.2655351,41.5401744 36.2483402,41.7374946 36.3157764,41.9102958 C36.9350612,43.4967969 37.5513906,45.0844656 38.2077519,46.6595246 C38.447137,47.2344386 38.6107572,47.7787621 37.8917957,48.1409439 C37.2743916,48.451986 36.4853073,48.0977437 36.2179805,47.3640394 C35.5927849,45.6481709 35.0309956,43.9150223 34.429443,42.1921484 C33.8875352,40.6392734 33.3754498,39.0768243 32.7596578,37.5461332 C32.2607372,36.3066354 32.5898582,35.7429301 33.9098349,35.7151418 C34.8337916,35.6957601 34.9315876,36.2627346 34.9178854,36.7687617 C34.8918244,37.7376156 35.5804261,38.2289312 36.2773566,38.8433093 C37.858212,40.23646 39.3079563,41.7421649 40.8090167,43.2032685 C41.06291,43.4503274 41.3082059,43.7043918 41.700733,44.0994992 C41.822978,43.0026791 41.9411929,42.092671 42.0225999,41.1800942 C42.205027,39.1321674 42.3364067,37.0805043 42.5529549,35.0353796 C42.6899767,33.7410057 42.8753591,33.6606766 44.5897436,33.8605654 C44.4306908,34.4249713 44.1875443,34.9681272 44.1375717,35.5243601 C43.9941018,37.1276743 43.804958,38.7398621 43.8646027,40.3417753 C43.9325763,42.1737007 44.2525625,43.9981537 44.4554085,45.8265764 C44.5397709,46.5899371 44.3866289,47.2685318 43.1096395,47.8037482" id="Fill-6" fill="#1186C9"></path>
                    <path d="M49.6281105,34.476858 C49.5168331,34.4185799 49.4053503,34.3600548 49.2940729,34.3017767 C49.0298403,34.6398392 48.6145003,34.9312298 48.5303237,35.325101 C48.3057157,36.3770704 48.1299712,37.470279 48.1071819,38.5526222 C48.0776174,39.9567297 48.1648737,41.3739252 48.3067422,42.7698837 C48.3582748,43.2748784 48.6857425,43.7596239 48.9544919,44.1932526 C49.0031501,44.271533 49.4597572,44.1409011 49.5919762,43.9616218 C50.5499477,42.6656745 51.2477927,41.0788305 51.0435103,39.405557 C50.8371749,37.7157385 50.120852,36.1160536 49.6281105,34.476858 M46.5897436,41.1655068 C46.6759733,39.07836 46.6854176,37.5557207 46.8161993,36.0483917 C46.9459546,34.5548914 47.7230489,33.5118119 48.7855227,32.8305012 C49.0072563,32.68851 49.5281251,32.8524789 49.7291225,33.0942344 C50.7148107,34.279799 51.5042236,35.593526 52.1384229,37.1524657 C52.6323962,38.3671694 52.7434683,39.5211255 52.4679437,40.5590193 C52.0452126,42.1522838 51.3405924,43.6727006 50.586082,45.094341 C49.7260429,46.7152629 47.8616324,46.0788955 47.3908591,44.6051505 C46.9841421,43.3316748 46.7712367,41.9690534 46.5897436,41.1655068" id="Fill-8" fill="#1186C9"></path>
                    <path d="M69.8974359,30.4093079 C70.2645443,28.777001 70.4695575,27.473654 70.9001561,26.2065587 C71.0182693,25.859473 71.81172,25.6213875 72.2955227,25.3333333 C72.7768426,25.7264685 73.3259091,26.0911901 73.7068505,26.5259657 C73.8629159,26.703795 73.7164273,27.0467166 73.6029252,27.2916606 C72.4452036,29.7971928 72.9478052,32.2395294 74.1182957,34.6676593 C74.3867991,35.2241721 74.6116752,35.8022399 74.7099254,36.3822673 C74.7652577,36.7077979 74.5201641,37.0578229 74.4105636,37.3968254 C73.9253421,37.3159939 73.3035633,37.3358343 72.9882403,37.1305713 C72.531749,36.8336991 72.1600296,36.3999033 71.9911952,35.9788446 C71.2137057,34.0381533 70.5185053,32.0815406 69.8974359,30.4093079" id="Fill-10" fill="#1186C9"></path>
                    <path d="M72.6013686,43.8360382 C71.4815621,43.8831236 71.2201768,43.0127687 71.1091427,42.235498 C70.9908276,41.4060712 72.4983434,39.9507712 73.2220675,40.2662431 C73.8693419,40.5473065 74.5501085,41.3582614 74.6917225,42.0431724 C74.9065099,43.0823102 73.7655887,43.915359 72.6013686,43.8360382" id="Fill-12" fill="#1186C9"></path>
                </g>
            </g>
        </g>
    </g>
</svg>
