<?xml version="1.0" encoding="UTF-8"?>
<svg width="86px" height="72px" viewBox="0 0 86 55" version="1.1" xmlns="http://www.w3.org/2000/svg" xmlns:xlink="http://www.w3.org/1999/xlink">
    <!-- Generator: Sketch 50.2 (55047) - http://www.bohemiancoding.com/sketch -->
    <title>sketch-hedgehog</title>
    <desc>Created with Sketch.</desc>
    <defs></defs>
    <g id="design" stroke="none" stroke-width="1" fill="none" fill-rule="evenodd">
        <g id="Pets" transform="translate(-774.000000, -387.000000)">
            <g id="sketch-hedgehog" transform="translate(774.000000, 387.000000)">
                <path d="M26.7340619,43.1144676 C27.093564,43.5173721 26.8742897,44.3251489 26.3965851,44.796434 C25.7620113,45.4229284 24.7725851,45.1767089 24.1593024,45.8698621 C23.7868299,46.2914606 23.2229818,46.5421075 22.8118426,46.8237471 C24.4250746,48.3298425 26.4386779,48.2287474 28.3238003,48.4971044 C30.0557243,48.7438158 31.233834,47.648742 32.2722053,46.4383067 C32.6030744,46.0521284 33.0731926,45.7483512 33.137066,45.1597368 C33.1679014,44.8756375 33.4219268,44.527585 33.3257495,44.3325281 C32.8306694,43.3284645 33.1568888,42.3298124 33.2092601,41.3215673 C33.2418086,40.6928591 33.1965344,40.111132 32.6755133,39.546131 C32.333142,39.1749571 32.1943825,38.3489783 32.3473361,37.8437488 C32.5707707,37.1055825 33.3343149,36.8359956 34.0780364,37.1141916 C34.4297073,37.2460334 34.7544584,37.6164694 34.9514626,37.9603402 C35.219682,38.4284277 35.2490491,39.055414 35.5669478,39.4703712 C36.2790997,40.3999048 37.0529225,41.2974619 37.9040786,42.0985973 C38.5748718,42.7300112 39.2818845,43.3574894 40.1856566,43.6934891 C42.035049,44.3807389 43.8700025,45.1080824 45.7171924,45.8024654 C46.6718675,46.1610946 47.6182219,46.6085203 48.6086269,46.7802098 C49.3178421,46.9031965 49.8449813,47.0370061 50.1518674,47.7299132 C50.3143653,48.0956757 50.1479518,48.8392534 49.8165931,49.028161 C48.9204075,49.5390479 48.0305847,50.0614955 47.13807,50.5795155 C46.7939856,50.779 46.4711923,51.0626074 46.1004329,51.1595209 C45.4235215,51.3368677 45.1345004,51.8054471 44.8951586,52.381271 C44.9888886,52.4344012 45.0385679,52.473511 45.0948548,52.4926969 C46.9285847,53.1182074 48.8276564,53.3312204 50.7465509,53.2751384 C52.4838589,53.223976 54.2170066,53.047367 55.9533356,52.9445501 C56.7469812,52.8973232 57.543074,52.8938796 58.3381879,52.8707581 C59.2267871,52.8449309 60.1259094,52.8953554 61.0027617,52.7775342 C62.8952258,52.5234436 64.7761878,52.1842462 66.6613101,51.8772714 C67.6269979,51.7200944 68.5953776,51.5646391 69.0256055,50.4855537 C69.0393101,50.4503795 69.0738164,50.4208627 69.1046519,50.3962653 C69.4223059,50.1404529 69.4264662,49.954251 68.9984409,49.8324942 C68.2182553,49.6111181 67.4537321,49.3093087 66.6600865,49.1659062 C65.1469473,48.8918918 63.7515212,48.2865511 62.4116478,47.6000393 C61.4349474,47.0994833 60.5798756,46.4026406 59.8136394,45.5134466 C58.690593,44.2102793 57.2442639,43.1917033 55.9621458,42.0228375 C55.0857829,41.2236698 54.2037914,40.4195827 53.4155298,39.5355541 C52.3977155,38.3939914 51.4883146,37.1555151 50.4993779,35.9868953 C49.8009307,35.1616544 49.0652851,34.3659304 48.314956,33.5874244 C47.2932261,32.5277709 46.2345426,31.5045214 45.2047367,30.4527389 C44.0552599,29.2794456 42.9471418,28.0640909 41.7702557,26.9198224 C41.0466017,26.2165844 40.2294625,25.6107518 39.4517241,24.9638417 C38.9392684,24.5380616 38.4099267,24.1314675 37.9106862,23.6909291 C37.1052938,22.9805578 36.3791925,22.1631881 35.5111503,21.5450568 C33.7841208,20.3146977 32.0541546,19.1042624 30.091699,18.2135926 C28.2075555,17.358097 26.2982054,16.6706012 24.299775,16.181606 C23.0989058,15.8876678 21.9124755,15.5342039 20.7206612,15.2036156 C20.0195219,15.0090506 19.3271928,14.7756218 18.6184671,14.6174609 C18.0766443,14.496196 17.514754,14.4666792 16.9621633,14.394855 C16.5055051,14.3355754 16.0828638,14.3053206 15.7872351,13.8077164 C15.4783912,13.2877285 14.8115136,13.403828 13.9801803,13.9737484 C13.1067541,14.5724478 12.2301465,15.1704092 11.3207457,15.7100749 C10.7319356,16.0593572 10.084636,16.3107421 9.45740397,16.5923817 C8.93760651,16.8255645 8.42025631,17.0749815 7.88014661,17.2488848 C7.5081635,17.3684279 7.27958966,17.5108465 7.24312553,17.9385943 C7.18145464,18.6696273 7.0165095,19.394757 6.99913397,20.1250522 C6.98910021,20.5459127 7.0830749,21.0405653 7.31140401,21.3785328 C7.59944619,21.8050508 8.0587964,22.1218646 8.47066981,22.4531908 C8.64785124,22.5956094 8.9185179,22.6194688 9.09839132,22.7594277 C9.5775643,23.1333073 10.2278006,23.2548182 10.5244082,23.9093535 C10.8819525,24.6984363 11.3368976,25.4454577 11.7805854,26.191987 C12.0730326,26.683442 12.3512858,27.2149906 12.7572858,27.5994471 C13.4660115,28.2704626 14.2503575,28.8659643 15.0364165,29.4474455 C15.6599777,29.9088917 16.3290579,30.3090904 16.9873701,30.7215879 C17.1973448,30.8531837 17.5999186,30.9011485 17.6329566,31.0502084 C17.7357414,31.5165741 18.1104165,31.5178039 18.4087371,31.6739971 C18.6412266,31.7957539 18.8658848,31.9411242 19.0714544,32.1042046 C20.2733025,33.0568597 21.6026527,33.7569001 23.0663573,34.2097372 C23.8524164,34.453005 24.625505,34.7385801 25.4098509,34.9877512 C25.5478763,35.0317805 25.7698425,35.054656 25.855986,34.9779123 C26.3123995,34.5713182 26.5568805,35.0347321 26.8879944,35.1830541 C27.2646273,35.3517919 27.6623066,35.4735488 28.0462813,35.6267902 C28.0834796,35.6415486 28.1042813,35.7347725 28.1064838,35.7925763 C28.1189648,36.0941397 28.1458847,36.397179 28.1253277,36.6970206 C28.0842138,37.2981797 27.8607792,37.8282525 27.6329395,38.3930075 C27.2634037,39.3077827 27.2286526,40.3595651 27.0519606,41.3532978 C26.9523572,41.9111656 26.8507961,42.4690333 26.7340619,43.1144676 M76.2472171,22.9190645 C76.2579851,22.8430587 76.2689977,22.7670529 76.2797657,22.6912931 C76.1463901,22.5496124 76.0369977,22.3648863 75.8754788,22.2733842 C75.2338079,21.9113113 74.4599851,21.6975604 73.9551159,21.2021699 C73.4022805,20.6597984 72.6884155,20.737772 72.0959345,20.3884897 C71.2589725,19.895313 70.2937742,19.6240043 69.3922046,19.237826 C68.279192,18.7611295 67.1683819,18.2785296 66.0690739,17.7708404 C65.2947616,17.413195 64.4905929,17.1320474 63.9624747,16.3439485 C63.4886857,15.6365289 63.5474199,14.4578242 64.19423,13.9484132 C64.4719937,13.7297428 64.6834368,13.4267035 65.0042722,13.0752075 C64.0669726,12.7790554 63.3183566,12.4701128 62.539884,12.3121979 C61.0517069,12.0106344 59.5441963,11.8091822 58.0494116,11.5398413 C56.5323567,11.2663188 55.0074707,11.0159178 53.511707,10.6496634 C52.6421965,10.4366504 51.8407197,9.95380454 50.9758589,9.70955291 C50.3405509,9.53023828 50.2159855,9.01246419 50.2548969,8.60144257 C50.3224412,7.89156323 50.6026522,7.19939398 50.8158083,6.50673277 C51.0319011,5.80349471 51.2749138,5.1091117 51.5064243,4.41079311 C50.7773864,4.57141376 50.2054623,4.80262879 49.6469982,5.06336064 C48.5134286,5.5924495 47.4295383,6.23394823 46.1415468,6.36505207 C45.4785848,6.43244879 44.8310405,6.64300206 44.1697915,6.7426213 C43.5286101,6.83928886 42.8788633,6.92857722 42.2327874,6.92882319 C41.1611334,6.92931514 40.0897241,6.83289355 39.0175807,6.8213328 C38.2077832,6.81247776 37.5365005,6.09029974 37.6613106,5.28793439 C37.7824499,4.51188819 37.90726,3.73657991 38.0399014,2.90100814 C37.8783824,2.90100814 37.6803993,2.85919266 37.5073782,2.90838734 C36.8688887,3.08966977 36.2445934,3.32359051 35.6039014,3.49700178 C34.0533191,3.91589455 32.4998002,4.32421046 30.9408973,4.71235654 C29.7113952,5.01883944 28.4740619,5.29605151 27.2362391,5.56760619 C27.0463319,5.6091757 26.8250999,5.58654614 26.634948,5.5331699 C25.7950493,5.29777332 25.2302223,4.74851464 24.9311674,3.83275553 C24.5963826,4.19064688 24.2975725,4.4663831 24.0506442,4.78270494 C23.3130409,5.72773489 22.6527708,6.74040754 21.8564333,7.63132333 C20.6908046,8.9354745 19.4336485,10.1572246 18.2144249,11.412673 C17.7624165,11.8785467 17.7768553,12.0915597 18.3578342,12.3129358 C19.2711506,12.6614801 20.1974375,12.978048 21.1281295,13.2769057 C21.9105177,13.5282905 22.7093025,13.728021 23.4973193,13.9621877 C25.1776062,14.4617597 26.8796737,14.9013143 28.5269226,15.4938643 C29.8273952,15.9614598 31.069623,16.6002528 32.317969,17.2038716 C32.9618424,17.515028 33.6096314,17.8539794 34.1737242,18.2876306 C35.2128297,19.0863064 36.3571672,19.7359222 37.2866355,20.6981703 C38.0474879,21.4852853 38.9737748,22.1093199 39.8097579,22.8253486 C41.0162557,23.858683 42.2112515,24.9057919 43.4042894,25.9548686 C44.1428717,26.6044845 44.8968717,27.2398339 45.5928717,27.933233 C46.7264413,29.0624971 47.8333358,30.220294 48.9233442,31.3926034 C49.7466016,32.2778618 50.4093189,33.3626047 51.3573864,34.0690404 C52.2946859,34.7668671 52.8455635,35.6949249 53.5180699,36.564441 C53.716053,36.8204993 53.8557914,37.12895 54.079226,37.3569674 C55.0390403,38.3354497 56.0125593,39.3011414 56.9958673,40.2557643 C57.815209,41.0509965 58.6514369,41.8287645 59.489133,42.6045647 C59.7106098,42.8097066 59.9785845,42.9641779 60.2025086,43.1673519 C60.9317913,43.8295124 61.5927955,44.5861267 62.3888883,45.1516197 C63.3173777,45.8113204 64.322711,46.3974751 65.3662216,46.8466226 C66.1914367,47.2018083 67.1223734,47.3164319 68.0143987,47.4991902 C68.1367616,47.5242794 68.4211329,47.3380776 68.4331245,47.2278815 C68.5400696,46.2557944 68.9237995,46.0154784 69.897808,46.1387111 C71.1123818,46.2924445 71.9481202,47.1631904 72.994078,47.6224228 C73.3352256,47.7722207 73.7316813,47.7941123 74.1026855,47.8747916 C74.1582383,47.5370701 74.2938163,47.1892636 74.2524577,46.8645787 C74.168272,46.2073377 74.4044324,45.8290305 75.0669049,45.8049251 C76.3377657,45.75942 77.5616391,45.9566907 78.7204154,46.5239055 C78.9291665,46.6262304 79.2130483,46.5735921 79.4626686,46.592778 C79.4636475,46.3785352 79.48812,46.1610946 79.4616897,45.9502954 C79.2225926,44.0486748 78.2742804,42.2916865 78.3046264,40.3403792 C78.311234,39.9003327 78.376331,39.3013874 78.656542,39.064761 C79.0121285,38.7644274 79.5803816,38.6038067 80.1339513,38.9503833 C80.4344745,39.138799 80.8434112,39.1523275 81.2956643,39.268181 C81.1422213,38.73983 81.0741875,38.379233 80.9346939,38.0488907 C80.5933015,37.2413599 80.2607192,36.42522 79.8461538,35.6548312 C79.4570399,34.9306854 78.9533943,34.2695088 78.5265926,33.5645489 C78.0726264,32.8153138 77.7314787,32.0043394 76.9889808,31.4469636 C76.5501876,31.1178511 76.0820273,30.6999422 75.8749893,30.2153746 C75.5428965,29.4373606 74.9369556,28.9395103 74.3875463,28.3850862 C73.880964,27.8741994 73.3239682,27.3817606 72.7065252,27.0270669 C72.375656,26.8369294 72.0582468,26.7673189 71.8027531,26.3907336 C71.1251075,25.3910975 71.548483,24.1344192 72.7072594,23.8562233 C73.8939345,23.571386 75.0678838,23.2336645 76.2472171,22.9190645 M76.0142382,47.6125839 C75.973369,48.2277635 76.0032256,48.8085068 75.8825758,49.3560436 C75.694137,50.2105554 75.1829049,50.4078261 74.408348,50.0140226 C73.9426349,49.7769042 73.4849978,49.5233056 73.0143902,49.2962721 C72.6610062,49.1253206 72.3423733,49.0156164 71.9855632,49.4017947 C71.7591919,49.6467842 71.352213,49.72279 71.0206096,49.8772614 C71.0450822,49.9621222 71.0460611,50.0555921 71.080078,50.0696126 C71.5418755,50.2636856 71.8756814,50.5266312 71.7423058,51.1081124 C71.5991413,51.7319011 71.1652425,52.0907763 70.6004156,52.232457 C70.1692088,52.3406853 69.7720189,52.4021787 69.5559261,52.8577215 C69.5035548,52.9684096 69.3417911,53.0648311 69.2133101,53.094348 C68.1768966,53.3329422 67.1451329,53.6143358 66.0955042,53.7673313 C64.0043228,54.0723383 61.9077575,54.3638169 59.8033609,54.5438694 C58.4894284,54.6562793 57.1564074,54.5177962 55.8339095,54.5605956 C54.7399855,54.5962618 53.649977,54.7477814 52.5565425,54.8191137 C51.6317239,54.8796232 50.6988294,54.8451869 49.7796395,54.9475118 C48.1272514,55.1317459 46.5492599,54.8033714 44.9720025,54.3921038 C44.7373105,54.3308564 44.4898928,54.3180658 44.2473696,54.2897789 C43.3531418,54.1857321 42.7107367,53.6544295 42.2560363,52.9443042 C41.8869899,52.3682344 42.1970574,51.8096287 42.7719182,51.4465719 C43.5185764,50.9750408 44.1994034,50.398725 44.9100869,49.8696362 C45.407859,49.4984623 45.9117493,49.1356514 46.4051164,48.7583282 C46.5913527,48.6159096 46.7548295,48.4432362 47.0061628,48.213251 C46.75434,48.0671428 46.5862134,47.9252161 46.3931248,47.8647067 C45.4281713,47.5638812 44.4453527,47.3161859 43.4911671,46.9853516 C42.9018675,46.7811937 42.3607789,46.4415044 41.7829815,46.1987286 C41.00353,45.8706 40.1956903,45.6079004 39.4245596,45.2615698 C37.9899773,44.6171194 36.8429478,43.5577118 35.6655723,42.5452851 C35.4174204,42.3320261 35.1516482,42.1399209 34.893952,41.9382227 C34.8175976,41.962574 34.7412432,41.9871714 34.664644,42.0120147 C34.6394373,42.4109836 34.6413951,42.8141341 34.5792348,43.2071996 C34.5364077,43.4777704 34.3986272,43.731861 34.3129732,43.9965284 C33.9693782,45.0579038 33.6336145,46.1224768 33.2858592,47.1826223 C33.1894373,47.4768066 33.119201,47.8078868 32.9339436,48.0383639 C32.632931,48.4129815 32.2709816,48.7499651 31.8901884,49.0448872 C31.5123319,49.3378416 31.0121125,49.4923129 30.6856483,49.8260989 C30.0868045,50.4383268 29.383218,50.1505378 28.7214796,50.1731674 C28.2738762,50.1886637 27.8211336,50.0405877 27.3725513,50.0504267 C25.9242644,50.0819113 24.5491505,49.7660814 23.2026695,49.2652794 C22.686543,49.0731742 22.0974881,49.0079912 21.6498848,48.7167587 C20.9678341,48.2732686 20.5314882,47.5997933 20.6046612,46.7179785 C20.6188552,46.5489948 20.6824839,46.3295865 20.802889,46.2326729 C21.5823405,45.6032269 22.3779438,44.9937047 23.1799101,44.3930376 C23.976737,43.79606 24.8085598,43.3105085 24.7581463,42.0503865 C24.7148299,40.962446 24.9955303,39.8649126 25.0691927,38.7673791 C25.1093277,38.1694176 25.3711843,37.4875793 24.8112518,36.9944025 C24.4860113,36.7085814 24.1020366,36.4333371 23.6970155,36.3064148 C21.9056232,35.7463333 20.0743405,35.3702399 18.5939945,34.0186159 C17.6344249,33.1429504 16.4421211,32.5211296 15.3381634,31.8102663 C14.6142646,31.3441467 13.8372604,30.9584603 13.130982,30.4682353 C12.6755474,30.1519134 12.3483491,29.6459461 11.8882647,29.3392172 C10.7889567,28.6072002 10.1861972,27.5094208 9.52078793,26.4273836 C9.18771621,25.8855041 8.90774997,25.2117829 8.14004534,25.0504243 C7.99100737,25.0189397 7.89531961,24.7680468 7.7582732,24.636451 C6.95655169,23.867538 6.16266141,23.08977 5.34013822,22.3439786 C4.80125215,21.8549834 4.23936187,21.3854201 3.65030702,20.960132 C2.73111717,20.2967416 1.79430706,19.6557349 0.837429436,19.0494103 C0.233201599,18.6664297 -0.10476464,18.0765854 0.0291003363,17.3615406 C0.0557754413,17.219368 0.164678393,17.0562876 0.283859825,16.9738865 C1.18445053,16.3528035 2.07598638,15.8178113 3.2839526,16.1129794 C4.35413824,16.3742032 5.43656016,16.126508 6.47272892,15.7636971 C7.29794409,15.4744324 8.15472889,15.2454311 8.9336909,14.8592528 C10.0075474,14.3264743 11.0324588,13.6891572 12.0578596,13.0631548 C13.0864419,12.4351846 14.0227625,11.5784591 15.1267203,11.1777684 C15.9382309,10.8835841 16.6638427,10.5987469 17.2421296,9.97520423 C17.7019692,9.48005969 18.0923068,8.91333689 18.5849397,8.45631824 C20.7069565,6.48680892 22.4146527,4.17416666 24.0841716,1.82930187 C24.2383489,1.61284525 24.3465176,1.32727008 24.3739269,1.06309461 C24.4392687,0.433894556 24.7586358,0.120770369 25.3721632,0.0474702842 C25.966602,-0.023370066 26.5664248,-0.11167453 26.8738003,0.573115522 C26.9756062,0.799657058 26.992737,1.0771151 26.998121,1.33218955 C27.0098678,1.90014222 26.9105091,2.48260732 27.0049733,3.03309588 C27.0994374,3.58407638 27.6760112,3.46207355 28.0191167,3.40894329 C29.5961294,3.16518361 31.1760787,2.90937124 32.7286187,2.54434666 C34.1822896,2.20244358 35.5977833,1.6994279 37.039952,1.30365663 C37.8328634,1.08572417 38.6394794,0.890421257 39.4529477,0.789080201 C39.8276228,0.742099274 40.4298929,0.823516482 40.5762389,1.0640785 C40.768838,1.38064632 40.6905258,1.92916709 40.5916566,2.3448622 C40.4298929,3.02522473 40.1359773,3.67213487 39.939952,4.34585612 C39.8381461,4.69563035 39.9910996,4.89560675 40.40126,4.91872826 C41.049049,4.95464038 41.7002642,5.14625369 42.3385089,5.10124055 C43.5560194,5.01564179 44.7818506,4.88625976 45.9729308,4.62872557 C46.8747451,4.43391461 47.7577155,4.07528534 48.5946775,3.67434863 C49.6413695,3.17305476 50.6591838,2.5957551 51.6395551,1.97221244 C52.4354032,1.4659991 53.0117323,1.383598 53.6798336,2.03173801 C53.8849137,2.23048455 53.9133019,2.70176966 53.8866268,3.0375234 C53.7779686,4.41423673 53.2106943,5.66697945 52.720264,6.93103695 C52.256264,8.12646786 52.2124581,8.26372104 53.5501289,8.81765323 C54.6022049,9.25327218 55.7783567,9.40134819 56.9092344,9.62567597 C58.4226183,9.92527162 59.9550908,10.1336111 61.4628461,10.458542 C62.9586098,10.7812592 64.4585338,11.1246381 65.9070654,11.6096977 C66.5639093,11.829598 67.1196814,12.3886956 67.6832848,12.8420246 C68.0183143,13.1116115 67.7674705,13.9154527 67.411884,14.3365593 C67.1696055,14.6236103 66.8306603,14.8582689 66.4904916,15.024055 C66.0291836,15.2483828 66.0450907,15.468775 66.4295549,15.69999 C67.2053354,16.1658637 67.9847869,16.6319834 68.7926266,17.0373476 C69.9954535,17.6409664 71.2198164,18.2027698 72.4441792,18.7616214 C73.1967109,19.1050003 73.9636813,19.4168947 74.7289387,19.7312487 C75.9391074,20.2278691 77.1382635,20.7631073 77.9539344,21.8382572 C78.2860272,22.2760899 78.5283057,22.8201831 78.6748964,23.3539455 C78.8665167,24.0495584 78.3268964,24.5483925 77.6064239,24.6418624 C76.5022214,24.7855109 75.4119682,25.0383716 74.1954366,25.2673729 C74.6036391,25.812204 74.8762636,26.3454745 75.2959682,26.7043497 C76.6032931,27.822299 77.4757403,29.2937121 78.5738247,30.5781854 C79.621985,31.804363 80.5397065,33.0952316 81.2430483,34.5413094 C81.4853268,35.0391597 81.6828204,35.5586556 81.8954871,36.0705263 C82.342601,37.1456762 82.781639,38.2245157 83.2341369,39.2972059 C83.3425504,39.5540021 83.4401959,39.8489243 83.6325503,40.0294688 C84.1447613,40.5110848 84.0020862,41.0768237 83.9051748,41.6337075 C83.8410567,42.0036516 83.1274364,42.1473001 82.5829217,41.9136253 C82.1191664,41.7148788 81.6681369,41.4858775 81.2002213,41.2989377 C80.9616137,41.203746 80.6982888,41.1720154 80.4212593,41.1056026 C80.250196,41.7052858 80.4065757,42.1492679 80.623158,42.6626144 C80.9060609,43.333876 80.9596559,44.102051 81.1184829,44.8271807 C81.3835208,46.03737 81.6852677,47.2406721 81.8942635,48.4604544 C81.9348879,48.6968348 81.6818415,49.1282722 81.4564491,49.2310891 C81.1498078,49.371294 80.5350567,49.4335253 80.4102466,49.2638036 C79.9303394,48.6104981 79.2066854,48.4461879 78.5562044,48.1935732 C77.7806686,47.8927477 76.9361201,47.7717287 76.1204492,47.5764258 C76.0883901,47.5685547 76.0467868,47.6005312 76.0142382,47.6125839" id="Fill-6" fill="#1286C9"></path>
                <path d="M59.8671621,22.8249633 C59.7582082,22.6894079 59.7307127,22.6237522 59.6808611,22.5975399 C58.7413904,22.1010029 57.7381919,21.692839 56.8722137,21.0964455 C55.6246397,20.2374291 54.4736853,19.2456034 53.2877834,18.302957 C53.0164264,18.0870171 52.8578779,17.8501073 53.1772876,17.5200813 C53.538583,17.1463679 53.9605225,16.805108 54.4508153,17.1303909 C55.4098155,17.7672264 56.30406,18.4959299 57.2273418,19.1836923 C57.4442219,19.3452103 57.6618728,19.5087255 57.8946847,19.646278 C58.814626,20.1892482 59.7212049,20.7594294 60.6719822,21.2469793 C61.3264767,21.5824975 62.0454699,21.7991863 62.8001815,22.0940129 C62.8150856,22.159419 62.8374417,22.3249313 62.8898629,22.480458 C63.1917989,23.3749235 62.8752158,23.8270243 61.9118472,24.0766658 C61.1653585,24.2698883 60.4558731,24.5951712 59.7245455,24.8478084 C59.3113428,24.9903537 58.8886324,25.1086838 58.4679777,25.2307585 C57.799093,25.4244803 57.1307223,25.6199496 56.4574692,25.7989425 C56.1128767,25.890561 55.7392469,26.0460876 55.4144409,25.9869226 C55.1854834,25.9452324 54.9192658,25.618951 54.8426897,25.3698088 C54.7023858,24.914213 55.0320742,24.6286231 55.4416793,24.4735958 C56.8896874,23.9258823 58.3430918,23.3916495 59.8671621,22.8249633" id="Fill-8" fill="#1286C9"></path>
                <path d="M41.7150087,12.3303148 C40.8943493,12.3779898 40.2336896,12.4295514 39.5723093,12.4513161 C38.6992776,12.4800766 37.8108706,12.5904547 36.9592202,12.4518343 C36.596458,12.3924996 36.2291313,11.8393138 36.0162787,11.4206026 C35.873336,11.1389572 36.704566,10.4702112 37.2256462,10.4805753 C37.671051,10.4896439 38.1128521,10.6313735 38.559458,10.6730892 C40.0203566,10.8096367 41.4161503,10.4259045 42.8263583,10.0854426 C43.4483393,9.93516255 44.1351851,9.94034462 44.6983074,10.4562196 C45.0142228,10.745379 45.0872557,11.0018914 44.8926614,11.4470312 C44.3235332,12.7474713 43.2443757,13.5162313 42.323296,14.4500401 C41.7335071,15.0472735 41.0240788,15.496818 40.710806,16.3940932 C40.4969925,17.0068729 39.9478042,17.1478252 39.5016788,16.8488198 C38.9873252,16.503694 38.7590973,15.6297381 39.1278655,15.188744 C39.8260026,14.3539127 40.5693047,13.5628699 41.2955499,12.7549853 C41.3875617,12.6523804 41.4882222,12.5591031 41.7150087,12.3303148" id="Fill-12" fill="#1286C9"></path>
                <path d="M79.874312,22.7468217 C79.886251,22.6625501 79.8984613,22.5782785 79.9104003,22.4942796 C79.7625198,22.3371908 79.6412307,22.1323754 79.4621462,22.0309222 C78.7506921,21.629473 77.8927143,21.3924762 77.3329394,20.8432108 C76.7199818,20.2418552 75.9284823,20.3283086 75.2715676,19.941041 C74.343584,19.3942301 73.2734181,19.093416 72.2738007,18.6652399 C71.0397453,18.1367015 69.808132,17.6016177 68.5892717,17.0387161 C67.7307512,16.642176 66.8391271,16.3304529 66.2535749,15.4566464 C65.7282602,14.6722932 65.7933819,13.3654016 66.5105341,12.8005909 C66.8185053,12.5581396 67.0529432,12.2221441 67.4086703,11.8324221 C66.3694372,11.5040628 65.5394074,11.1615219 64.6762741,10.9864334 C63.0262542,10.6520742 61.3547983,10.4287135 59.6974522,10.1300812 C58.0154141,9.82681249 56.3246931,9.54917983 54.6662616,9.14309435 C53.7021897,8.90691568 52.8135504,8.3715592 51.854634,8.10074464 C51.1502348,7.90192911 51.0121226,7.32784587 51.0552657,6.87212469 C51.1301556,6.08504429 51.4408402,5.3176 51.6771775,4.54961026 C51.916771,3.7698934 52.1862118,2.9999946 52.4428997,2.22573221 C51.6345771,2.40382074 51.000455,2.66018096 50.3812566,2.949268 C49.1244086,3.53589653 47.9226427,4.24715975 46.4945791,4.39252145 C45.7595184,4.46724772 45.0415521,4.70069915 44.3083908,4.81115222 C43.5974794,4.91833261 42.877071,5.01733128 42.1607328,5.01760401 C40.9725339,5.01814945 39.7846064,4.91124179 38.5958648,4.89842378 C37.698,4.88860573 36.9537137,4.08788916 37.0920973,3.19826468 C37.2264107,2.33782163 37.3647942,1.47819675 37.5118606,0.551754578 C37.332776,0.551754578 37.1132618,0.505391561 36.9214242,0.559936287 C36.2134976,0.760933602 35.5213086,1.02029377 34.8109399,1.21256393 C33.0917282,1.67701227 31.3692604,2.1297335 29.6408231,2.56009138 C28.2776097,2.89990503 26.9057135,3.20726456 25.5332746,3.50835144 C25.3227146,3.55444174 25.077423,3.52935116 24.8665917,3.47017013 C23.935352,3.20917362 23.3090987,2.60018176 22.9775209,1.58483169 C22.6063275,1.98164457 22.2750211,2.28736775 22.0012388,2.63809034 C21.1834193,3.68589453 20.4513434,4.80869771 19.5684022,5.79650269 C18.2760087,7.24248337 16.8821339,8.59710164 15.5303169,9.98908305 C15.0291515,10.5056216 15.0451605,10.7418003 15.6893223,10.9872515 C16.701964,11.3737009 17.7289868,11.7246962 18.7608937,12.0560554 C19.6283684,12.334779 20.514023,12.5562306 21.3877385,12.8158635 C23.2507606,13.3697652 25.1379319,13.8571223 26.964323,14.5141135 C28.406225,15.0325611 29.783548,15.7408244 31.1676546,16.4100882 C31.8815507,16.7550836 32.5997883,17.1308967 33.2252276,17.6117085 C34.3773382,18.4972421 35.6461251,19.2175052 36.6766754,20.2844 C37.5202721,21.1571157 38.5472949,21.8490155 39.4741932,22.642914 C40.8119005,23.788626 42.1368549,24.9496105 43.4596385,26.1127767 C44.2785434,26.8330398 45.1145426,27.537485 45.8862342,28.3062929 C47.1430822,29.5583671 48.3703541,30.8420772 49.5789035,32.141878 C50.491692,33.1234103 51.2264814,34.3261215 52.2776535,35.1093838 C53.3168866,35.8831007 53.9276734,36.912087 54.6733164,37.876165 C54.8928306,38.1600703 55.0477659,38.5020658 55.2954996,38.7548806 C56.359696,39.8397752 57.4390874,40.9104881 58.5293325,41.9689285 C59.4377796,42.850644 60.3649492,43.7129961 61.2937468,44.5731665 C61.5393097,44.800618 61.8364272,44.9718884 62.0847036,45.1971581 C62.8932975,45.9313301 63.6261874,46.770228 64.5088572,47.3972197 C65.5383221,48.1286644 66.6529877,48.7785648 67.8099825,49.2765582 C68.7249418,49.6703711 69.75712,49.7974603 70.7461552,50.000094 C70.8818253,50.0279118 71.1971226,49.82146 71.2104183,49.6992798 C71.328994,48.621476 71.7544555,48.355025 72.8343896,48.4916596 C74.1810512,48.6621118 75.1076781,49.6275535 76.2673863,50.1367285 C76.6456346,50.3028172 77.0852057,50.3270896 77.4965575,50.416543 C77.5581518,50.0420934 77.7084742,49.6564622 77.6626178,49.296467 C77.5692767,48.5677495 77.83112,48.1483005 78.5656381,48.1215736 C79.9747079,48.0711197 81.3316804,48.2898441 82.6164764,48.9187448 C82.8479296,49.0321978 83.1626843,48.973835 83.4394513,48.9951074 C83.4405367,48.7575651 83.4676707,48.5164774 83.438366,48.2827533 C83.1732666,46.1743269 82.1218232,44.226262 82.1554694,42.0627455 C82.1627955,41.5748429 82.234972,40.9107609 82.5456566,40.6484007 C82.939914,40.3154052 83.569966,40.1373166 84.1837376,40.5215842 C84.5169434,40.7304905 84.9703529,40.7454903 85.4717897,40.8739432 C85.3016594,40.2881328 85.2262268,39.88832 85.0715628,39.5220521 C84.6930432,38.6267005 84.3242918,37.7218035 83.8646415,36.8676331 C83.4332105,36.0647347 82.8747923,35.3316536 82.4015749,34.5500276 C81.8982388,33.7193115 81.5199905,32.8201417 80.6967443,32.2021499 C80.2102312,31.8372457 79.6911573,31.3738883 79.4616035,30.8366227 C79.0933948,29.9739979 78.4215564,29.4220052 77.8123976,28.8072862 C77.2507233,28.2408392 76.6331529,27.6948465 75.9485615,27.301579 C75.5817095,27.0907637 75.2297812,27.0135829 74.946502,26.596043 C74.1951609,25.4876942 74.6645795,24.0943492 75.9493755,23.7858987 C77.2651043,23.4700848 78.5667234,23.0956352 79.874312,22.7468217" id="Path" fill-opacity="0.4" fill="#1186C9"></path>
                <path d="M16.3692961,17.1379206 C17.5072759,17.0759364 18.1457243,17.6898317 17.9716255,18.6646535 C17.9183353,18.9626809 17.8854815,19.2657402 17.8777208,19.5669698 C17.8567669,20.3610996 17.4674376,20.6929782 16.6215194,20.9162128 C15.4333536,21.2295647 14.9565868,20.6161269 14.4203213,19.8702578 C13.8170549,19.0312981 13.8201591,18.1994288 14.7118656,17.6154964 C15.1656088,17.3186126 15.7683579,17.1996761 16.3035887,17 C16.3255774,17.0462023 16.3473074,17.0919471 16.3692961,17.1379206" id="Fill-14" fill="#1286C9"></path>
            </g>
        </g>
    </g>
</svg>
