<?xml version="1.0" encoding="UTF-8"?>
<svg width="93px" height="84px" viewBox="0 0 93 84" version="1.1" xmlns="http://www.w3.org/2000/svg" xmlns:xlink="http://www.w3.org/1999/xlink">
    <!-- Generator: Sketch 50.2 (55047) - http://www.bohemiancoding.com/sketch -->
    <title>sketch-whenever</title>
    <desc>Created with Sketch.</desc>
    <defs></defs>
    <g id="design" stroke="none" stroke-width="1" fill="none" fill-rule="evenodd">
        <g id="Move-In-Date" transform="translate(-769.000000, -414.000000)">
            <g id="sketch-whenever" transform="translate(769.000000, 414.000000)">
                <path d="M30.2553702,35.280192 C27.7598341,35.0391473 25.3658549,34.8401785 22.9811732,34.5625254 C22.0070845,34.4491346 21.0530211,34.1650632 20.0994345,33.9603892 C19.9470991,37.2532402 19.807637,40.2667743 19.6612615,43.4269794 C23.1158673,43.5860119 26.4462685,43.7395768 29.8562942,43.8964698 C29.9900347,41.0110651 30.1199609,38.20482 30.2553702,35.280192 M78.1213646,28.6383887 C78.0341115,30.5964608 77.9144363,32.5578609 77.6853372,34.5035717 C77.5544574,35.6156102 78.0047887,35.9089526 78.9826917,35.8545155 C79.889791,35.8041195 80.8004662,35.7385097 81.7066118,35.7672734 C83.8688694,35.8359736 86.0292199,35.9564959 88.1547644,36.0541974 C88.2775387,33.403419 88.4103256,30.5346545 88.5502644,27.5151775 C85.0029223,26.7000471 81.6150675,25.9215251 78.0117022,25.093558 C78.0600967,26.4632814 78.1697591,27.5541631 78.1213646,28.6383887 M60.1245632,37.9307327 C55.9645416,37.615045 51.9072691,37.3072019 47.639969,36.9836696 C47.6847876,38.4988755 47.7384269,40.0221638 47.7722792,41.5456899 C47.7958805,42.6082833 47.8414142,43.6742048 47.7894437,44.734421 C47.7086273,46.3820352 47.8213889,46.5199108 49.5182962,46.6437612 C50.5848829,46.7214945 51.6521847,46.8303688 52.7097122,46.9879749 C54.8803137,47.3110318 57.0444785,47.6761646 59.2401116,48.0286984 C59.5342931,44.6673849 59.8296665,41.2972759 60.1245632,37.9307327 M32.1870982,43.9875153 C36.6827822,44.6291126 40.9753523,45.2419461 45.3723401,45.8695181 C45.4314625,44.5965454 45.5349266,43.3247613 45.537549,42.0525018 C45.5408865,40.5567886 45.4879625,39.0589359 45.3854519,37.5670262 C45.363281,37.2484859 45.0497894,36.7064919 44.8240278,36.6815317 C40.713116,36.2241649 36.5952907,35.8300306 32.5833135,35.4328061 C32.4474274,38.3671805 32.3201236,41.1170867 32.1870982,43.9875153 M86.0044266,64.9279753 C86.1407895,61.9805265 86.2700005,59.1840278 86.4008803,56.3870537 C86.4082706,56.2289721 86.4182832,56.0699396 86.4430765,55.9139975 C86.8109225,53.6100477 86.747509,53.5056901 84.3942957,53.2206678 C81.9667026,52.9266123 79.5329112,52.6853299 77.1053181,52.3919876 C76.2556724,52.2895317 76.1915437,52.9052178 76.1369509,53.4272436 C75.9171492,55.5291343 75.7345374,57.6350661 75.5714741,59.7421865 C75.4806449,60.9160313 75.4560901,62.0948682 75.3972061,63.3607094 C78.9881748,63.8910553 82.4356288,64.400482 86.0044266,64.9279753 M30.0522562,32.9044518 C30.0915917,32.7682401 30.2563238,32.4573068 30.2584693,32.1451848 C30.2804018,28.8558995 30.255847,25.565901 30.2947056,22.2763779 C30.3042415,21.4598212 30.0968364,21.0407268 29.2088089,20.9648952 C26.3406588,20.7202847 23.4775151,20.4179091 20.7423903,20.1504779 C19.3973564,24.0694747 20.0388818,27.9219107 20.0536624,31.9338547 C23.3449665,32.2533459 26.6000344,32.5692713 30.0522562,32.9044518 M17.9688837,20.1623637 C14.7936787,20.1728233 11.5467163,20.2246455 8.30166115,20.1794793 C6.24119891,20.1504779 5.39989713,21.5259065 5.03991819,23.1190835 C4.56479367,25.2207364 4.41126623,27.3967947 4.17024722,29.5464663 C4.14068603,29.8100941 4.40506792,30.3397268 4.56646245,30.353039 C5.51814187,30.4329117 6.48126433,30.4331495 7.4374733,30.389885 C8.63637004,30.3349725 9.83812755,30.0998707 11.0277268,30.1604885 C11.7541214,30.1973345 12.440227,30.7592967 13.1785414,30.8814831 C14.6105901,31.1182489 16.06624,31.2114338 17.450371,31.3573918 C17.6255925,27.5729427 17.7924702,23.9741503 17.9688837,20.1623637 M87.5783213,45.8875845 C87.7156378,43.8467871 87.9430682,41.8119325 88.0536842,39.7704219 C88.0701336,39.4680463 87.7037179,38.9172568 87.4383825,38.8649592 C85.7867705,38.5409514 84.1203779,38.2293048 82.4449263,38.1045036 C81.0200295,37.9987197 79.5732002,38.1094956 78.1435355,38.2193207 C77.8422021,38.242617 77.3637401,38.6493501 77.3232126,38.9305689 C77.058354,40.7538557 76.8671599,42.589266 76.7012358,44.4251517 C76.5558138,46.0335425 76.5207695,47.6531061 76.344356,49.2576935 C76.2659235,49.9701303 76.4831029,50.1503195 77.1472759,50.1921577 C79.3624576,50.3328859 81.5783544,50.4888281 83.7861458,50.717036 C84.8756185,50.829476 85.9476882,51.1135474 87.3163234,51.3752735 C87.4028614,49.5063451 87.456739,47.6947065 87.5783213,45.8875845 M19.6338459,45.6353672 C19.5806834,46.092734 19.3337045,46.7523977 19.4660146,47.3248194 C20.0753565,49.9594331 19.968078,52.5712259 19.6102446,55.226521 C19.4202425,56.6357053 19.5611349,58.0929084 19.6190653,59.5258644 C19.625502,59.6887003 20.0584303,59.9594595 20.3004029,59.9677796 C22.2933989,60.0326763 24.2887788,60.0174624 26.2810596,60.0904414 C27.207469,60.1246726 28.1283953,60.3005829 29.13133,60.4218184 C29.3568532,55.5519551 29.5723638,50.8984139 29.7943111,46.1029558 C26.4448381,45.9489154 23.1747513,45.7982031 19.6338459,45.6353672 M47.7241231,56.7716792 C47.6650007,58.1860933 47.5956273,59.6035977 47.6421146,61.0161101 C47.6516505,61.3068375 48.1360725,61.8034276 48.4340683,61.8293387 C51.3377395,62.0779903 54.2499929,62.2225221 57.1555713,62.4533449 C58.0769744,62.5263239 58.3313436,62.1274354 58.3649575,61.3077884 C58.5156242,57.6498045 58.6956137,53.9927715 58.8705968,50.2142653 C55.3485247,49.689387 51.6726868,49.1414501 48.0988826,48.6084893 C47.9689564,51.410931 47.8361695,54.0909485 47.7241231,56.7716792 M74.2247714,49.6777388 C74.3330035,47.3374184 74.4200182,45.1033573 74.5461301,42.8719111 C74.6197946,41.5701747 74.7463833,40.2712909 74.8691575,38.9728825 C74.9299487,38.3289081 74.7370858,38.0921423 74.0235646,38.0683706 C70.5093596,37.9518895 66.9982538,37.7393708 63.4838104,37.6390544 C63.113342,37.6283571 62.7140276,38.1121105 62.3595318,38.404502 C62.2627427,38.4841371 62.2558292,38.7004592 62.2484389,38.8556882 C62.1003946,41.9514722 61.9580718,45.0474939 61.8074051,48.3063515 C65.7922051,48.746365 69.8678342,49.1966003 74.2247714,49.6777388 M62.42819,35.2566581 C66.7665322,35.4565778 70.9050981,35.6472265 75.2999403,35.8497611 C75.359301,34.5646649 75.4267673,33.2056388 75.4844593,31.8466127 C75.5674213,29.8904423 75.6224909,27.9330834 75.7333454,25.9785771 C75.7812631,25.1311172 75.4048348,24.9288204 74.620033,24.8841296 C71.6236256,24.7127359 68.6298404,24.4914217 65.6389161,24.2430078 C64.7160826,24.1662253 63.8054074,23.9434848 62.9588609,23.7994285 C62.7733883,27.8021015 62.600074,31.5478028 62.42819,35.2566581 M47.4664163,34.7198939 C51.8912965,34.923617 56.0131746,35.1135526 60.1264703,35.3030128 C60.3038375,31.4698318 60.4792974,27.6818169 60.6633396,23.7093339 C56.6465945,23.5243904 52.7235392,23.3437257 48.6610219,23.1566427 C48.2755345,26.8890319 47.8867096,30.6537505 47.4664163,34.7198939 M60.6704915,62.5265617 C61.6083439,62.5698261 62.5302238,62.6080985 63.4516268,62.6554041 C66.2012938,62.7970832 68.9523911,62.919745 71.7001509,63.0949422 C73.1898915,63.1897911 73.0990624,63.2261618 73.187746,61.6757738 C73.3498557,58.8400518 73.6342629,56.0116991 73.8523958,53.1790674 C73.9308283,52.1618779 73.3350751,51.5942105 72.3328556,51.5205183 C70.2211381,51.3655271 68.1153805,51.1249578 66.0034245,50.9678271 C64.478878,50.8544363 62.9483715,50.8187788 61.2164198,50.738906 C61.0366688,54.6217698 60.8562025,58.5172326 60.6704915,62.5265617 M46.0522474,22.59682 C41.6895887,22.2473765 37.2580334,21.8922278 32.5153704,21.5121189 C32.501305,25.4560759 32.487478,29.2738053 32.473651,33.1405044 C36.8878034,33.5634024 41.0673734,33.9639549 45.5060806,34.38923 C45.6870237,30.4823568 45.8648676,26.6446592 46.0522474,22.59682 M18.9706264,69.1186822 C18.9608521,69.3468902 19.0595483,69.5781885 19.0602635,69.8085359 C19.0621707,70.4701013 19.0590716,71.1328554 19.0214049,71.7932322 C18.9794471,72.5263504 18.8869492,73.2563782 18.8349787,73.989021 C18.7727572,74.8616788 18.8018416,75.7476488 18.6559428,76.6050927 C18.5453268,77.2545346 18.1545947,77.8474 18.8268732,78.4457328 C18.9310526,78.5384423 18.6621411,79.0476313 18.558677,79.3889925 C20.646078,79.3278993 22.7232281,79.2651421 24.8003781,79.2069015 C25.7763739,79.1795641 26.7630977,79.0642715 27.7255049,79.1667274 C28.590408,79.2589615 28.8645641,79.0086458 28.844062,78.1742604 C28.7939987,76.1363155 28.7596696,74.0964689 28.7832709,72.0582863 C28.8154544,69.3090932 28.8710008,66.5594247 28.9987814,63.8137973 C29.0343025,63.0569075 28.877676,62.6943896 28.1016949,62.6606339 C25.289568,62.5377343 22.4779179,62.4043753 19.2826876,62.256991 C19.1749323,64.579245 19.0659851,66.8487259 18.9706264,69.1186822 M35.0509572,46.8220487 C34.5410268,46.7652344 34.0403938,46.6009722 33.5304634,46.5714953 C32.5747312,46.5163451 32.0345244,46.8672149 31.9851763,47.9621378 C31.8268809,51.4663189 31.5605918,54.9657458 31.3896614,58.4696893 C31.3522332,59.241793 31.5365138,60.0248316 31.6404547,61.0096917 C33.1104085,61.1309272 34.5481787,61.2961403 35.9907168,61.358422 C38.5873331,61.4703866 41.1896709,61.4715752 43.7836648,61.6201481 C44.8407156,61.6807658 45.2393148,61.4732392 45.2555258,60.3108047 C45.3086882,56.5605868 45.4977368,52.8122706 45.6281397,49.0630036 C45.6376756,48.7920066 45.5997705,48.5193456 45.567587,47.9709333 C42.0092786,47.5836928 38.5294027,47.2090514 35.0509572,46.8220487 M43.9016712,75.6637348 C43.873302,75.5505817 43.8051205,75.3701547 43.8525615,75.3268903 C45.3570827,73.9533635 44.385378,72.1203304 44.7246164,70.5297682 C45.0121228,69.1821525 44.9818464,67.7658367 45.0736291,66.3785223 C45.2693528,63.4149088 44.8819582,63.8625293 42.8038546,63.7227519 C39.2896496,63.4866992 35.7675775,63.3583322 32.2483662,63.1952586 C31.9839843,63.1828973 31.7157881,63.2542123 31.1758197,63.3198221 C31.1100222,68.5512525 31.0444631,73.7843469 30.9755665,79.253494 C35.5711387,79.4650618 40.0923311,79.6733016 44.9730257,79.8979438 C44.5634603,78.2809951 44.2313738,76.9726027 43.9016712,75.6637348 M17.206968,59.9794277 C17.2951747,59.2135047 17.4718267,58.4102601 17.46539,57.6084418 C17.436544,53.9756559 17.3485756,50.34287 17.2982739,46.7100841 C17.2849237,45.7261749 17.0291241,45.404782 15.8526366,45.3325161 C12.4750329,45.1257026 9.11983845,45.0541499 5.7436651,45.3161137 C5.17842665,45.3598536 4.20123878,44.8587468 4.06153834,44.4092247 C3.89084634,43.8612878 4.06153834,43.0839543 5.05016925,42.6534495 C5.95989086,42.2571758 6.52441413,42.4009944 7.33567793,42.6681879 C8.16362949,42.9410866 9.09409161,42.934906 9.98354951,42.9838756 C12.3949316,43.1165215 14.8084593,43.2132722 17.2417739,43.3254744 C17.387911,40.1683596 17.5392929,36.8988047 17.700449,33.4221987 C15.4866978,33.4003287 13.50586,33.3813114 11.525499,33.3599169 C11.4070159,33.3584906 11.2611172,33.3798851 11.1752944,33.3216445 C9.4433427,32.1454225 7.59076234,32.7111882 5.74819464,32.8870985 C5.2456545,32.9348795 4.7118844,32.6562756 3.89084634,32.4525524 C3.48080411,41.3044074 3.07862896,49.990574 2.67144748,58.7810981 C7.65298387,59.1918725 12.3598873,59.579826 17.206968,59.9794277 M46.9779415,79.6939829 C48.0566864,79.689704 49.1876401,79.6274223 50.3107267,79.6956469 C51.8035665,79.786217 53.2871089,80.0591157 54.7794719,80.1073722 C56.7769974,80.1717934 58.7785757,80.0904943 60.7787236,80.0816988 C62.270133,80.074805 63.7641648,80.0305897 65.2527135,80.0952486 C70.7482331,80.3334407 76.2323096,81.0280488 81.7478545,80.4325686 C82.4413503,80.3576878 83.1567787,80.4827268 83.8345403,80.5141054 C84.5006206,75.995825 85.1521586,71.5764347 85.7593549,67.4594199 C83.3272323,66.9742402 81.1594915,66.5273329 78.9853141,66.1148945 C78.0538984,65.9380334 77.1096092,65.7495241 76.1696113,65.7407285 C75.8492062,65.7378759 75.2777694,66.2385072 75.2384339,66.5601378 C74.8276765,69.9026717 74.511801,73.2561405 74.1449085,76.6041419 C74.0710056,77.2775931 73.937265,77.9519953 73.7536996,78.6040521 C73.5119654,79.4607829 72.7722206,79.645251 72.0629906,79.4515119 C71.2209736,79.2218777 71.0707837,78.5044488 71.3673492,77.7418538 C72.472556,74.899238 71.8756108,71.8372098 72.5261953,68.9358781 C72.7073767,68.1274037 72.8280054,67.3018138 72.9212185,66.4778879 C73.0058493,65.7274164 72.6809147,65.2660084 71.861307,65.240335 C70.0544988,65.1842338 68.2472138,65.1307476 66.4413592,65.0501617 C64.7177514,64.9736169 62.9929517,64.8939818 61.2733966,64.7563439 C60.3894218,64.6855043 60.1178881,65.0534897 60.2308881,65.8581606 C60.7517848,69.5582203 60.0137087,73.2085972 59.7219112,76.8713354 C59.6675568,77.5502541 59.0138732,78.2256072 58.5184849,78.8013569 C58.3578056,78.9877268 57.7596684,78.9658568 57.4728772,78.8206119 C57.2754848,78.7205332 57.1586705,78.2303615 57.1958603,77.9384454 C57.4244827,76.1579477 57.7994807,74.391713 57.9494321,72.6064609 C58.1499237,70.2150314 58.1964111,67.8107652 58.2955841,65.411491 C58.3289596,64.6051561 57.7248625,64.5725889 57.1522337,64.5502435 C55.2653243,64.4763137 53.377938,64.4178354 51.4910285,64.34343 C50.1400347,64.2901815 48.7897561,64.2207683 47.2766526,64.1511173 C47.1777179,69.2986337 47.0785449,74.453757 46.9779415,79.6939829 M2.48025337,67.1011809 C2.44497067,69.5746227 2.46523438,72.0504417 2.54056772,74.5226949 C2.56798334,75.4264936 2.46809514,76.1370286 1.42701697,76.2375828 C0.717786941,76.3060452 0.0857974239,75.379188 0.0893733736,74.4368791 C0.0919957368,73.8090695 0.0383564907,73.1810221 0.0326349711,72.5532124 C0.0195231554,71.1371343 -0.0322089175,69.7184413 0.0300126079,68.3049781 C0.100339619,66.7003907 0.37068142,65.1015085 0.388799565,63.4985851 C0.423605476,60.4137361 0.273653984,57.3265099 0.330869179,54.2428495 C0.374018973,51.8944466 0.601449376,49.5486587 0.777862897,47.2040593 C1.04176799,43.6863283 1.37600009,40.1733516 1.59508661,36.652768 C1.71929126,34.6597516 1.55074483,32.6451029 1.72978072,30.6594557 C2.04613307,27.1500448 2.53293903,23.6560854 2.93725975,20.1542814 C3.24884417,17.4592877 3.83220077,14.7552607 3.76640329,12.0681117 C3.69631468,9.20124886 3.73517333,6.39785637 4.72118187,3.71403536 C5.16197728,2.51356626 5.24446252,0.865714418 7.04483401,0.601611216 C8.43754724,0.397650327 9.82954527,0.185369356 11.2255961,0.00232753309 C11.3929505,-0.0197801157 11.5798535,0.121423576 11.7603197,0.17942644 C12.3119696,0.356763063 12.8552755,0.625145165 13.4200372,0.685525194 C14.4804255,0.798440605 15.5598855,0.732830808 16.6205122,0.844795352 C18.7663205,1.07110161 20.9085528,1.34019686 23.0455403,1.63948212 C26.0572052,2.06142918 29.0548047,2.59058645 32.0729062,2.95262892 C34.3307609,3.22315047 36.6095945,3.38836354 38.8824681,3.43875947 C40.6406434,3.47750729 42.4035866,3.26237372 44.1650995,3.17109052 C44.3167198,3.16324587 44.4709624,3.25666852 44.6271122,3.27188238 C45.9463992,3.39977394 47.2659247,3.52671463 48.5868805,3.64010548 C49.1783426,3.69121456 49.7745726,3.68931282 50.3650811,3.74802884 C52.4012269,3.95080114 54.4314128,4.22679018 56.4713729,4.36609214 C58.4924997,4.5039678 60.5231624,4.50182835 62.5490571,4.57670909 C64.0051838,4.63043305 65.460357,4.71149443 66.9162453,4.77734195 C68.1716421,4.83368079 69.43133,4.84200088 70.6812436,4.95539172 C71.423134,5.02266553 72.1428535,5.30721237 72.884267,5.39873328 C75.7764952,5.75602141 78.6737297,6.07479944 81.5685802,6.40879134 C82.5421921,6.52123131 83.5124665,6.68525581 84.4894159,6.73969292 C86.2971777,6.8407225 88.1120914,6.83525501 89.9160388,6.97836044 C90.2898448,7.00807502 90.7401761,7.43239925 90.9339925,7.79301541 C91.0305432,7.97225377 90.7041782,8.58271013 90.4321676,8.71226571 C89.8209186,9.00394404 89.1047751,9.32771412 88.4656336,9.26828496 C84.3327893,8.88556115 80.2013754,8.46266322 76.0840269,7.93826028 C70.6097246,7.24151277 65.1246945,6.8150491 59.6031897,6.83145155 C58.1368119,6.83596816 56.6694805,6.6980925 55.2035795,6.60847333 C51.8667416,6.40427472 48.5322877,6.14682759 45.1930658,5.99920554 C43.7197745,5.9343089 42.2312259,6.18581312 40.759365,6.11093237 C38.7306095,6.00705019 36.7106747,5.72963486 34.6869255,5.5275757 C33.8596891,5.44485031 33.0293536,5.3889869 32.2059316,5.2791618 C27.8225324,4.69485427 23.4491458,4.02354244 19.055734,3.53123125 C16.3036831,3.22315047 13.5235014,3.12687522 10.7528555,3.02750966 C7.30087202,2.90365929 7.37525177,3.45516192 6.48150273,6.22313463 C6.10984236,7.3746341 6.31796263,8.70513421 6.20806177,9.94958089 C6.02783391,11.9913292 5.81756806,14.0309381 5.59276002,16.0686453 C5.44853005,17.3729965 5.93795837,17.9877318 7.08488465,17.9537383 C9.05570975,17.89526 11.0310644,17.7901893 12.9990287,17.8624551 C17.7061706,18.0357506 22.4102133,18.3043704 27.1156863,18.5252092 C27.8098974,18.5575386 28.5503574,18.3920878 29.1906908,18.5820234 C29.9633343,18.8109446 30.6205939,19.1401821 31.4387712,18.6642734 C31.7575075,18.4786167 32.3964105,18.4736246 32.6877312,18.6756838 C33.6177165,19.3215599 34.5717799,19.245966 35.6405121,19.32988 C37.7181389,19.4934291 39.8053016,19.4083265 41.9077216,19.8471515 C45.1568295,20.5253571 48.5227518,20.6746431 51.8469547,20.9560996 C54.7415668,21.2011855 57.6461916,21.3388235 60.548194,21.4783631 C61.2502722,21.5123566 61.9733292,21.2506306 62.6656331,21.3228964 C67.1586947,21.7911983 71.6517564,22.2699596 76.1331366,22.8347744 C79.1798457,23.218449 82.2115359,23.7254987 85.2422725,24.223515 C86.3932516,24.4124998 87.5230133,24.7305647 88.6875809,24.9956187 C88.7948594,24.7148754 88.8768679,24.5772374 88.8992771,24.4300908 C89.1836843,22.5647282 89.5245916,20.7045954 89.7212688,18.8292488 C89.9773068,16.3912268 90.1468068,13.9429829 90.2891296,11.4954523 C90.335617,10.7000524 91.1211339,9.71614313 91.8861488,9.81027893 C92.8223324,9.92557151 93.081708,10.5298472 92.978959,11.4191452 C92.6304231,14.4390976 92.3529294,17.46737 91.9729251,20.4830435 C91.7814926,22.0020529 91.3232943,23.4901592 91.1721508,25.0105949 C90.9809567,26.9351489 90.5480284,28.8192911 90.6548301,30.8011348 C90.7964377,33.423625 90.644579,36.0682227 90.5053554,38.6973689 C90.4085663,40.5251723 90.0616992,42.339188 89.9351106,44.1669914 C89.8178194,45.8583454 89.9656254,47.5727579 89.7851591,49.2546032 C89.2561569,54.1874615 88.3969754,59.0765799 88.2355809,64.0595964 C88.1166209,67.7356467 87.6002538,71.4005243 87.2150048,75.065402 C87.0915153,76.2371074 86.7744478,77.3878937 86.6352242,78.5588859 C86.5498782,79.2786919 86.4158992,80.1147414 86.6895786,80.7278127 C87.1532601,81.7671099 86.6802811,82.9031577 85.4835299,82.9212242 C82.3958165,82.9678167 79.3040504,83.056485 76.2203897,82.9490371 C71.8315074,82.796423 67.450969,82.3699593 63.0625635,82.2755858 C59.7009323,82.2035576 56.3452611,82.6274064 52.9633662,82.2230504 C50.434693,81.9206748 47.8459437,81.7851763 45.3096418,81.9553815 C41.2948038,82.224239 37.3181093,82.0176632 33.3252038,81.7133859 C32.2312016,81.6299474 31.0327817,81.2747987 30.0076761,82.115127 C29.898252,82.2045085 29.5671191,82.1873929 29.4567414,82.0889782 C28.3393763,81.0905683 26.9793234,81.4683 25.7196355,81.4587914 C22.7663778,81.4366837 19.8042995,81.6734495 16.860816,81.52036 C12.6569295,81.3014229 8.46615484,80.8290799 4.26989702,80.4606191 C3.79763325,80.4192564 3.30796654,80.4133135 2.86025763,80.279479 C1.82060984,79.9678325 1.17908446,78.5527053 1.88998327,78.153579 C2.4495002,77.8393176 3.30129143,77.9092063 3.99740965,78.0009649 C4.98699414,78.1314714 5.94248791,78.5213267 6.9320724,78.6480297 C8.06874762,78.7935122 9.22664015,78.7714046 10.3749968,78.82394 C12.2611911,78.9099934 14.147147,78.9974731 16.0106936,79.0832888 C16.3928434,73.4484533 16.7795228,67.7501474 17.1726389,61.9517628 C12.3415308,61.7294977 7.59243112,61.5105607 2.73676816,61.2868693 C2.65046858,63.1536582 2.50838417,65.1267064 2.48025337,67.1011809" id="Fill-1" fill="#1286C9"></path>
                <path d="M4.5002355,21.6284398 C4.15410813,23.9783783 3.85004485,25.140539 3.83081555,26.3061154 C3.57242186,42.4286406 3.66616469,58.558851 2.93785501,74.6702755 C2.71191076,79.6638949 5.05548149,80.6339276 11.4408104,80.5818396 C27.1126885,80.4571699 42.7929794,80.9669494 58.4696649,80.9993977 C67.1793352,81.0181836 75.8890055,80.5929403 84.7801523,80.3623868 C85.6815256,76.1543573 87.0107509,72.8301165 86.9999344,69.5067296 C86.9494575,54.4293805 86.3208998,39.3528853 86.3449364,24.2763901 C86.3521474,19.5671201 83.194937,17.9523913 77.4213402,18.0010637 C74.3398451,18.0266808 71.2775794,18.6329512 68.1888733,18.7755529 C47.123177,19.7498552 26.0514716,20.6695077 4.5002355,21.6284398" id="Fill-14" fill-opacity="0.4" fill="#1186C9" transform="translate(44.961538, 49.500000) rotate(5.000000) translate(-44.961538, -49.500000) "></path>
                <path d="M84.3243935,11 C82.1136776,12.2268387 82.0785102,12.4170384 83.4398387,13.7504809 C84.1786231,14.4739553 84.2242603,15.9963193 83.4991669,16.7995548 C82.8113886,17.5611203 82.0293831,18.2526391 81.4092552,19.0589423 C81.1187883,19.4365295 80.9018778,20.0812653 81.0455005,20.4747025 C81.1526135,20.7674156 81.9773031,21.0905505 82.3324673,20.976533 C83.0462856,20.7474753 83.7018494,20.2801569 84.2999642,19.8161618 C84.9737829,19.2936241 85.5249183,18.6292037 86.1906833,18.0961845 C86.8594014,17.5611203 87.2591289,17.0585229 86.8078583,16.1750149 C85.952028,14.4990085 85.1759285,12.7859336 84.3243935,11" id="Fill-3" fill="#1286C9"></path>
                <path d="M13.6783828,11.1167928 C14.4460082,10.6605059 15.1277917,10.3897709 15.6138366,9.91545079 C15.9036712,9.63261459 16.0890333,8.95613302 15.9562612,8.59072383 C15.7782098,8.10074332 15.2834393,7.78919639 14.6205222,8.16955414 C13.5911258,8.75990354 12.47518,9.20408926 11.4740832,9.83548787 C11.1790603,10.0212771 10.8960647,10.7812808 11.0375625,11.0173731 C11.6615677,12.0583147 12.418345,13.0245136 13.1979978,13.9577307 C13.2956313,14.0744718 14.0000544,13.9323419 14.1009895,13.7394343 C14.312057,13.3362978 14.4287927,12.7993361 14.3573363,12.3542012 C14.2896532,11.9313706 13.9326071,11.5555211 13.6783828,11.1167928" id="Fill-5" fill="#1286C9"></path>
                <path d="M36.9791959,10.9572226 L36.9933687,10.9105852 C37.0167414,10.7848772 36.9779526,10.6605897 36.8829698,10.5597392 C36.8369702,10.5109712 36.8096191,10.4837463 36.7874896,10.4655174 C36.7101606,10.3937858 36.6019995,10.3506994 36.4662386,10.3376788 C36.3580775,10.3272624 36.2700567,10.340283 36.2078952,10.3717691 C36.0895396,10.4247985 35.9798866,10.5365389 35.8627742,10.7240355 C35.7695318,10.873654 35.6382466,11.1205719 35.4808535,11.4434828 C35.3229632,11.7152581 35.1362298,12.0223075 34.9251292,12.3558716 C34.7130339,12.6922765 34.5138683,12.9934074 34.3373294,13.2450601 C34.3077405,13.2850688 34.277903,13.3279184 34.2488114,13.3719517 C34.257514,13.3385717 34.2672112,13.3044814 34.2771571,13.2699176 C34.334843,13.0703473 34.4181395,12.816564 34.5275438,12.5066738 C34.5466896,12.4437014 34.5688191,12.377178 34.5936837,12.3052096 L34.6730019,12.0727328 C34.7286986,11.8949424 34.8070222,11.7093397 34.9057348,11.5216063 L34.9206535,11.4868058 C34.9509884,11.3961351 34.9860475,11.3057011 35.0263282,11.2162141 C35.0690954,11.1210454 35.0959492,11.0613874 35.1068896,11.0386605 C35.1352353,10.9787658 35.1531378,10.914373 35.1603485,10.8476128 C35.167062,10.7827466 35.1665647,10.7247457 35.158608,10.6705327 L35.1491595,10.6312342 C35.1041545,10.4981873 35.0449767,10.3928388 34.968145,10.3102172 C34.8719189,10.2062892 34.7354121,10.144974 34.561857,10.1281656 L34.5116305,10.1234308 L34.4633931,10.1373984 C34.3736318,10.1636763 34.2963028,10.2278323 34.1772013,10.373663 C34.0988777,10.4697787 33.9904679,10.6127686 33.8524693,10.8026326 L33.5376831,11.2436758 C33.3340418,11.53368 33.222151,11.6918211 33.2079782,11.7107601 L33.1915675,11.7320666 C32.9101,12.1461216 32.6482755,12.5170903 32.4055967,12.8456828 C32.4165372,12.8063843 32.4274776,12.766849 32.4386667,12.727077 C32.6318648,12.0081032 32.848933,11.4302254 33.0863902,11.0055172 C33.1388545,10.9075076 33.1709299,10.809498 33.181373,10.7133823 C33.1990269,10.544588 33.1502922,10.3824224 33.0361636,10.2318569 C32.9936451,10.1672274 32.930489,10.1137246 32.8476898,10.0718219 C32.7725986,10.0341805 32.6922859,10.0107435 32.6077461,10.0026944 C32.4921256,9.99156767 32.3827213,10.0150047 32.2889816,10.0711117 C32.2193607,10.1137246 32.1323345,10.1951625 32.0987673,10.3457279 L32.0269085,10.5232816 C31.9354067,10.7403704 31.8923909,10.8289105 31.8722505,10.8651314 L31.6395176,11.5639825 C31.4843624,12.0152054 31.3789364,12.3466388 31.3272179,12.5433682 C31.2630672,12.7616408 31.1939436,13.0355468 31.1218361,13.3575107 C31.0335667,13.7512063 31.014421,13.9226047 31.0119345,14.0132754 C30.9888104,14.1108115 30.9910482,14.2493033 31.0944851,14.4126526 C31.1782788,14.5449893 31.2817157,14.6309252 31.4018118,14.6683298 C31.4890867,14.7116529 31.5748696,14.7376941 31.6574202,14.7457432 C31.8593209,14.7639721 32.0557515,14.704314 32.2357713,14.56961 C32.3501486,14.4895925 32.4888932,14.3534681 32.6592159,14.1543713 C32.7333125,14.0689089 32.7902525,14.0068835 32.8310305,13.9680584 L32.8551492,13.9415437 C32.9332241,13.8414035 33.0060774,13.7462347 33.0747038,13.6562743 C33.0667471,13.7126179 33.060531,13.7630432 33.0558067,13.8073132 C33.0451149,13.9055595 33.0379041,14.0565985 33.0346717,14.2909692 C33.0403906,14.3612805 33.0620228,14.4424817 33.1003144,14.5385973 C33.1304005,14.6136433 33.1567571,14.6678564 33.1836108,14.7090488 C33.2149403,14.7833846 33.2674046,14.8480141 33.3397607,14.9008067 C33.4240518,14.9628321 33.5262454,14.9966857 33.6182445,14.9983428 C33.6289363,14.9992898 33.6398767,15 33.6510658,15 C33.7246651,15 33.8119399,14.9782201 33.9469548,14.9273214 C34.066305,14.8813942 34.1995794,14.815581 34.3427997,14.7313022 C34.4914901,14.6437091 34.6319753,14.5359932 34.7605254,14.4100485 C34.8947943,14.2765282 35.097441,14.0241653 35.3791572,13.6385189 C35.7697805,13.1049111 35.8222448,12.9990891 35.8341799,12.9330392 C35.8379096,12.9271207 35.8426338,12.9207288 35.8481041,12.9133899 C35.8747092,12.8774057 35.8923631,12.8539687 35.9097683,12.832899 C35.9726758,12.7526447 36.014697,12.698195 36.0480156,12.6522678 C36.1668686,12.4593262 36.3391804,12.1596157 36.5597296,11.7616588 C36.7859977,11.3525753 36.9230018,11.0895592 36.9791959,10.9572226" id="Fill-7" fill="#1286C9"></path>
                <path d="M39.9980916,11.213767 C40.0050631,11.1358204 39.9960001,11.0204491 39.9186163,10.8968185 C39.8891035,10.8258406 39.8375142,10.7571856 39.7575741,10.6813038 C39.6581137,10.5858062 39.592349,10.5357346 39.5107822,10.5269591 C39.382971,10.514054 39.2537655,10.5734174 39.1194475,10.7127921 C39.013248,10.8219691 38.9184353,10.9817338 38.8301294,11.1995714 C38.6486374,11.643764 38.5277977,11.9496142 38.4729551,12.1021522 L38.3061033,12.5334397 L38.121358,12.5326653 C38.1069502,12.5336978 38.0442065,12.5352464 37.8020623,12.514082 C37.6198732,12.4983379 37.4943858,12.4864652 37.4258325,12.478464 C37.2970918,12.4642685 37.1899627,12.4523958 37.1002625,12.4436204 C37.1211771,12.3976783 37.1439507,12.3473485 37.1681186,12.2918567 C37.2162221,12.1697747 37.2601427,12.061114 37.2989509,11.9661327 C37.3349704,11.8791525 37.3593707,11.8215959 37.3733137,11.7942371 L37.3972493,11.7467465 L37.3984112,11.7322928 C37.4107276,11.7080313 37.4304802,11.6734457 37.456972,11.6280198 C37.5143709,11.529167 37.5787412,11.4230873 37.6540337,11.3025539 L37.9979621,10.7138246 L37.8947836,10.4815333 C37.8594612,10.3865519 37.8092662,10.2941516 37.745593,10.2074295 C37.6331191,10.0548916 37.5073993,10.0115306 37.4223468,10.0019808 C37.3414771,9.99372155 37.2206374,10.0068847 37.1007273,10.1274181 L37.0342654,10.1942664 L37.0282234,10.2636957 C37.0193928,10.2835695 37.0054498,10.3096377 36.9875562,10.3426747 C36.943868,10.4226861 36.9173762,10.4709511 36.9032008,10.4967612 C36.751454,10.7889321 36.6580356,10.9703774 36.6250371,11.035677 L36.516049,11.2408677 C36.4962963,11.2780343 36.4814238,11.3056511 36.4707341,11.3239763 L36.416821,11.3732737 L36.4098495,11.4561243 C36.3875406,11.4989691 36.3580278,11.5585905 36.3210788,11.6355048 C36.2657714,11.7498437 36.2190622,11.8499871 36.1816483,11.9354186 C36.1665434,11.9700042 36.1344744,12.0414983 36.085209,12.150159 C36.05314,12.2211369 36.0305987,12.2694019 36.025951,12.2792097 L35.9831924,12.3274747 L35.9671579,12.3930325 C35.9613483,12.417294 35.9513557,12.4523958 35.9378775,12.4980798 C35.9283497,12.5311167 35.9169629,12.5644118 35.9041818,12.5982231 C35.8642117,12.6557797 35.8346989,12.7154012 35.8163406,12.7768293 C35.7977499,12.8400642 35.7891517,12.8785213 35.7863631,12.911042 L35.7856659,12.9205918 C35.7366329,13.0166055 35.6587842,13.2117302 35.5035517,13.6515351 C35.3376295,14.1223121 35.2309652,14.4516495 35.1814674,14.6431608 C35.16613,14.6911676 35.1535813,14.7275599 35.1449831,14.7507891 C35.1387087,14.7670495 35.1315048,14.7827936 35.1229066,14.7977635 L35.094091,14.8483514 L35.0885138,14.9082309 C35.0854928,14.9392031 35.0782889,14.9732725 35.0678316,15.0112134 C35.066902,15.0145687 35.0662049,15.0174078 35.0652754,15.0205051 L35.0287911,15.099226 C35.0162423,15.137425 35.0076441,15.1813023 35.0025317,15.2373103 C34.9920744,15.351133 35.0141509,15.4623747 35.0662049,15.5591628 C35.1203504,15.6587899 35.2005229,15.7318326 35.2985889,15.7708059 L35.3455305,15.7834529 C35.3662127,15.7883568 35.396655,15.8017781 35.4375546,15.8208776 C35.5061079,15.8528822 35.5518876,15.8745627 35.5744288,15.8859192 L35.7937994,15.9958704 L35.8851263,15.7486092 C35.929744,15.6275596 35.9957411,15.435016 36.0828851,15.1717525 C36.1700291,14.9082309 36.2355614,14.7017498 36.2829678,14.5352744 C36.2929603,14.4901066 36.3338599,14.3517642 36.4976906,13.9284779 C36.5732155,13.732837 36.623178,13.6063673 36.6561766,13.5242911 L37.0358921,13.5671359 L37.0498351,13.5668778 C37.3126615,13.5604253 37.5680516,13.5722979 37.8074072,13.5988824 C37.8322722,13.6017215 37.8548135,13.6045606 37.8757281,13.6068835 C37.856905,13.6579876 37.8355256,13.7178671 37.8108929,13.788845 C37.7832392,13.8572419 37.7520997,13.938802 37.7177069,14.0332671 C37.6863351,14.1186987 37.6505479,14.2072274 37.611275,14.2980792 L37.5245958,14.564956 C37.4179315,14.8780331 37.3907426,14.9430746 37.3881863,14.9495272 C37.3235836,15.0625756 37.2880288,15.1660743 37.2787334,15.2664757 C37.2606075,15.4665043 37.3405476,15.6443362 37.5106527,15.7726126 C37.5227367,15.7813881 37.542257,15.7986809 37.5708402,15.8242329 C37.6231266,15.8709493 37.6791312,15.9101807 37.7374596,15.941411 C37.8113577,15.9809005 37.8966426,16 37.9984268,16 L38.0128347,16 L38.1966504,15.9966447 L38.2361557,15.7973904 C38.2507959,15.7233153 38.2807735,15.595297 38.3256236,15.4133354 C38.3702413,15.2305996 38.413,15.0723834 38.4534348,14.9386869 L38.4624978,14.903327 C38.4699341,14.880356 38.4838771,14.844738 38.5033974,14.7969892 C38.5429027,14.6994269 38.5686973,14.6341272 38.5800841,14.6013483 L38.5940272,14.549728 C38.5984425,14.5370811 38.6051816,14.521595 38.6135474,14.5032698 C38.640504,14.4441646 38.6579328,14.3977063 38.6683901,14.3564101 C38.7741248,14.1292808 38.9195972,13.7493555 39.1117788,13.2003738 L39.1538403,13.0844862 C39.1784731,13.0496425 39.1998524,13.0083463 39.2191403,12.9590489 C39.2400548,12.9048476 39.2544626,12.8514206 39.2621313,12.7985098 C39.2725886,12.7721835 39.2921089,12.7306291 39.3190654,12.6738468 C39.3464867,12.6168064 39.3669365,12.574994 39.3822739,12.5509906 C39.4559396,12.4761411 39.503346,12.3726425 39.5235634,12.2428174 C39.5379712,12.2100386 39.5593505,12.1589345 39.5937433,12.0742772 C39.7280613,11.7756538 39.7982413,11.6478936 39.8263598,11.6035002 C39.9327917,11.4543176 39.9871695,11.3304289 39.9980916,11.213767" id="Fill-9" fill="#1286C9"></path>
                <path d="M42.3534423,11.7475984 C42.4146637,11.6574423 42.4756167,11.5700486 42.5363012,11.4859196 C42.5816802,11.4228856 42.5999393,11.4020417 42.5975226,11.4043019 L42.6386055,11.3822023 L42.6719014,11.3427747 C42.7653447,11.2300168 42.8136774,11.2096751 42.8136774,11.2096751 C42.8351587,11.2016389 42.9022875,11.1817995 43.0719891,11.1722566 L43.2298761,11.1591977 C43.4296515,11.138605 43.5958624,11.1237882 43.7277034,11.1142452 C43.8592759,11.1049534 44.0123296,11.0976706 44.1790776,11.0923968 C44.3898621,11.0906389 44.554999,11.0642701 44.6825437,11.0130393 C44.9341425,10.913089 44.9883826,10.742822 44.9980492,10.6531681 C45.0028825,10.6104758 44.9988547,10.5640165 44.9846234,10.507512 L44.976568,10.4811432 C44.933337,10.3666273 44.8672822,10.2671793 44.7810888,10.1868173 C44.7367838,10.1451295 44.608165,10.0253399 44.4306764,10.0394032 C44.4003342,10.0401566 44.3380386,10.037143 44.2494286,10.0323715 C44.1490039,10.0265955 44.0649586,10.0190616 43.9972928,10.0085141 L43.9707097,10.004496 L43.9441267,10.0055005 C43.7918786,10.0100208 43.6740004,10.0165503 43.5875384,10.0250887 C43.5252429,10.0316181 43.4532808,10.0429191 43.386689,10.0702924 C43.3474858,10.0733059 43.2988845,10.0780774 43.2392741,10.0846068 C43.1971172,10.0901317 43.1640899,10.0938987 43.1380439,10.0966612 C43.121933,10.0838535 43.104748,10.0723014 43.0862204,10.0622562 C43.0274156,10.0298602 42.9584072,10.0097697 42.8829544,10.0029892 C42.7068084,9.98792129 42.5236809,10.0296091 42.3405535,10.1328241 C42.2221383,10.1807901 42.1066767,10.2405594 41.997391,10.310625 C41.8821979,10.3842065 41.7917083,10.4522631 41.7208203,10.5188129 C41.5774331,10.652917 41.5540723,10.7666795 41.5744794,10.8528175 C41.5653499,10.8618583 41.5529982,10.8734103 41.5355447,10.8869714 L41.4874805,10.937951 C41.3336212,11.1549285 41.2621962,11.2664308 41.2275577,11.3349896 L41.2020488,11.3621118 C40.7775261,11.8618631 40.5036405,12.2219854 40.3693829,12.4547842 C40.2966153,12.5705557 40.2235791,12.7267594 40.1459782,12.9329382 C40.0675717,13.1416283 40.0213871,13.3179225 40.0047392,13.4726194 C39.9991003,13.5241013 39.9982948,13.5843728 40.0033966,13.6589588 C40.0184334,13.8259611 40.0455535,13.9610698 40.0866363,14.0720698 C40.1301358,14.1903527 40.1988757,14.303864 40.2907079,14.4093392 L40.5014924,14.5848799 C40.5962783,14.661475 40.7031474,14.7375678 40.818609,14.8111493 L41.0267083,14.9434955 L41.2509185,14.9826719 L41.277233,14.9859366 C41.3969909,14.9954796 41.5199708,15 41.645099,15 C41.8142636,15 41.987993,14.9914615 42.1649445,14.9743846 C42.481524,14.9437466 42.7768908,14.8766945 43.0531931,14.7714705 C43.2261169,14.6983913 43.3888371,14.6074818 43.5378631,14.5010021 C43.6933335,14.3892487 43.8104061,14.279002 43.8952569,14.1634816 C44.0144777,14.0009996 44.046431,13.8530833 43.9908484,13.7240018 C43.948423,13.6155131 43.8453131,13.5632778 43.8028877,13.5421827 C43.7333422,13.5070244 43.6517136,13.4849248 43.5604184,13.4763863 C43.332986,13.4552913 43.1197848,13.5097868 42.9224261,13.6376126 C42.9001393,13.6524294 42.8789266,13.6664927 42.8555658,13.6820629 C42.8085756,13.6928615 42.7570207,13.7152122 42.7049287,13.7569 L42.6673366,13.7747303 C42.5811432,13.8211896 42.3913029,13.8819634 41.9769838,13.9068254 L41.9200586,13.9161173 C41.8542724,13.9336965 41.7927824,13.9397236 41.7318294,13.9336965 C41.6746356,13.9284227 41.6249603,13.9216422 41.5830719,13.9138571 C41.5473594,13.9075788 41.5162116,13.9013005 41.4901657,13.8955245 C41.3916205,13.8576037 41.3183159,13.8139068 41.2718627,13.7651873 C41.2224559,13.7132032 41.188623,13.6531828 41.170901,13.5896466 C41.1695584,13.5843728 41.1657992,13.5645334 41.1706325,13.5220922 C41.180299,13.4324384 41.2101042,13.3224428 41.2592425,13.1956215 C41.2882422,13.1197799 41.3188529,13.0517233 41.3513433,12.991954 C41.3940372,13.0057663 41.4415644,13.0153092 41.4936563,13.0200807 C41.6676542,13.0364043 41.9205956,13.0153092 42.2602675,12.9562934 C42.3660625,12.9399699 42.6281334,12.9048115 43.043795,12.8518228 C43.3582264,12.8139019 43.5582703,12.7805015 43.6737318,12.747101 C43.8751183,12.6885874 44.002126,12.5537299 44.0217276,12.3756778 C44.0262924,12.3317298 44.0214591,12.2802479 43.9997094,12.1687456 C43.9728579,12.0680419 43.9239881,11.9766301 43.8544426,11.8970215 C43.7405922,11.7669355 43.6141215,11.7300192 43.5287336,11.7217319 C43.4661695,11.7167092 43.4036055,11.7227364 43.3464117,11.7423246 C43.2763292,11.7473473 43.1826174,11.7571414 43.0652762,11.7722093 C42.9235002,11.7902907 42.7011695,11.8209287 42.3937195,11.8646256 L42.2312678,11.890241 C42.2272401,11.8907432 42.2229438,11.8914966 42.2181106,11.8919989 L42.3252481,11.7825056 L42.3534423,11.7475984 Z" id="Fill-11" fill="#1286C9"></path>
                <path d="M49.9993398,10.5195914 C49.9847981,10.3884568 49.9198994,10.26667 49.8108372,10.1667834 C49.7055451,10.070903 49.5840956,10.0156181 49.4499895,10.0022643 C49.263372,9.98623973 49.0969512,10.0554125 48.9798103,10.2052424 C48.8677859,10.3104705 48.8010022,10.4605675 48.7813441,10.6531296 C48.7810748,10.6552662 48.7808055,10.6576699 48.7802669,10.6600736 L48.649123,10.6560674 L48.661241,10.9616029 C48.6555859,10.9888447 48.6512773,11.0152853 48.6480458,11.0425271 C48.6364664,11.0833898 48.6033438,11.1811397 48.5494859,11.3352428 C48.4792014,11.5371526 48.4083783,11.730516 48.3372859,11.9161341 L48.3257065,11.9548602 C48.2915067,12.1132365 48.247074,12.2777556 48.1937547,12.4438772 C48.1401661,12.6097316 48.0957334,12.7360588 48.0545321,12.8354112 C47.8660296,13.3604835 47.7117268,13.767508 47.5932395,14.0527457 C47.5916237,13.9822375 47.5878537,13.889829 47.5821986,13.7749862 L47.5786979,13.7432041 C47.5517689,13.5864302 47.5412666,13.4125634 47.5474603,13.2256099 C47.5539232,13.026638 47.5725042,12.726444 47.6029339,12.3399844 C47.6217841,12.1554346 47.6333636,12.0141512 47.6382108,11.9209415 C47.6605618,11.6031205 47.6664862,11.3830495 47.6562532,11.248443 C47.6452123,11.1082279 47.6201684,10.976025 47.5886616,10.8801446 C47.5587704,10.7380599 47.480138,10.6168072 47.3613814,10.5297403 C47.2552814,10.4509527 47.131139,10.4036802 46.9916471,10.3897922 C46.7500945,10.3641529 46.5341245,10.455226 46.3951712,10.6363038 C46.2187867,10.8507662 46.0674461,11.056148 45.9459966,11.2465735 C45.8226621,11.4396697 45.6882867,11.6877837 45.5479869,11.9829032 L45.4001471,12.2264769 C45.1591331,12.628427 45.1060831,12.7317856 45.0885793,12.782263 C45.0603039,12.8428894 45.0040224,12.9622725 44.9191963,13.1393442 C44.8268301,13.3319063 44.7226151,13.5308783 44.6100521,13.7301173 L44.586624,13.7854021 C44.5532321,13.8975742 44.5147237,14.0009328 44.472176,14.0917388 C44.4255889,14.1908242 44.380079,14.281096 44.3404935,14.3529396 C44.2451651,14.5110488 44.164109,14.6798411 44.100826,14.8510371 C44.0461603,14.9933889 44.0143841,15.1109025 44.0041511,15.210522 C43.9764143,15.4837412 44.0889773,15.7166319 44.302793,15.8536421 C44.4153559,15.940442 44.5182245,15.9877145 44.6200158,15.9981305 C44.6324032,15.9994658 44.6447905,16 44.6571778,16 C44.77001,16 44.87611,15.9495226 44.9520496,15.8584495 C44.9932509,15.8090403 45.0382222,15.7342589 45.098543,15.6151428 C45.120894,15.5705411 45.1424372,15.5200636 45.1626339,15.4642447 C45.1787912,15.41991 45.196295,15.3739728 45.2178382,15.3181538 C45.2307641,15.2820985 45.2927006,15.1247905 45.4041864,14.8464968 C45.5129793,14.5727435 45.6600113,14.2546554 45.8415123,13.9013133 L45.8555154,13.8689971 C45.9088346,13.7189001 45.9823506,13.5704056 46.0868349,13.4045511 L46.2389834,13.107028 C46.2960727,12.9964583 46.3453527,12.9013791 46.3876311,12.8191196 C46.3625872,13.2274794 46.3620486,13.6358393 46.3860154,14.0335161 C46.3927476,14.4199758 46.4212923,14.7132257 46.4729958,14.9292905 C46.5263151,15.1539018 46.6235286,15.3803827 46.7643669,15.6055281 C46.9407514,15.8782131 47.1561829,15.9535287 47.306177,15.968485 C47.485793,15.9842425 47.6594847,15.9329638 47.8229433,15.8101086 C47.9616273,15.7062159 48.0857697,15.5571873 48.1910618,15.3688984 C48.5624118,14.7166977 48.8917527,13.9833058 49.1699286,13.1879521 C49.2062826,13.1414808 49.241021,13.079252 49.27172,12.9969925 C49.3118441,12.890696 49.349006,12.7673067 49.383475,12.6260233 C49.4198291,12.4916838 49.4664161,12.349065 49.5248519,12.1944278 C49.6401078,11.8605822 49.6732304,11.7371929 49.6845405,11.6728275 C49.983721,10.8091022 50.0047255,10.633633 49.9993398,10.5195914" id="Fill-13" fill="#1286C9"></path>
                <path d="M53.9763923,11.4811714 C53.9331617,11.3671712 53.867376,11.267986 53.7806463,11.1868801 C53.7366101,11.1459505 53.6085294,11.0234128 53.4323849,11.0402366 C53.3993578,11.0407388 53.3384053,11.0377256 53.2495275,11.0332058 C53.1485666,11.0274304 53.064522,11.0196463 52.9965882,11.0091 L52.9710795,11.0050824 L52.9447652,11.0058357 C52.7922498,11.0106066 52.6732985,11.0171353 52.5873743,11.0259238 C52.5253478,11.0324525 52.4531178,11.0437521 52.3865266,11.0711222 C52.3478607,11.0741354 52.2989913,11.0784041 52.2391129,11.085435 C52.1969563,11.0909592 52.1639292,11.0947257 52.1378835,11.0974878 C52.1220412,11.0846817 52.1045879,11.073131 52.0860605,11.0630869 C52.0277931,11.0309459 51.9595908,11.0111088 51.882259,11.0035758 C51.7061145,10.9865008 51.5229886,11.0306948 51.3403997,11.1336465 C51.2214484,11.1818581 51.1062563,11.2416203 50.9969715,11.3116777 C50.8817794,11.3855016 50.7912905,11.4538013 50.7206716,11.51959 C50.5783597,11.6529251 50.554462,11.766172 50.5746005,11.8528022 C50.5657396,11.8620929 50.5531195,11.8736436 50.5356661,11.8877053 L50.4878708,11.9384279 C50.3337443,12.1553799 50.2623198,12.2668691 50.2276817,12.3354199 L50.2019044,12.36279 C49.7763112,12.8639892 49.5026964,13.2240693 49.369514,13.455334 C49.2964784,13.571092 49.2237114,13.7272773 49.1461111,13.9334319 C49.0677053,14.1418464 49.0215211,14.3181199 49.0046047,14.4730498 C48.9992345,14.5247767 48.9981604,14.5855434 49.0035307,14.6596184 C49.0185674,14.8258478 49.0456872,14.9606895 49.0865012,15.0726809 C49.1300003,15.1904477 49.1987397,15.3039457 49.2908396,15.4094085 L49.3203761,15.4380341 C49.3515236,15.4638976 49.411939,15.5128624 49.5013539,15.5849287 C49.5950649,15.6605103 49.7016646,15.7365942 49.8190048,15.8114225 L50.0262969,15.9435021 L50.2502368,15.982674 L50.2776251,15.9859383 C50.3963079,15.9954802 50.5184813,16 50.6433399,16 C50.8127716,16 50.9870366,15.9914625 51.1647922,15.9746387 C51.480832,15.9437532 51.7767334,15.8769601 52.0535704,15.7717484 C52.2270298,15.6979245 52.3900172,15.6070256 52.5376994,15.5013118 C52.693974,15.3890692 52.8107772,15.2788355 52.8953588,15.1638309 C53.0148471,15.0008658 53.0465316,14.8527157 52.9901439,14.7233983 C52.9474503,14.6146712 52.8408506,14.5614376 52.8037958,14.5423539 C52.7342509,14.5077018 52.6523545,14.4856049 52.560523,14.4768163 C52.3352406,14.4567281 52.1201616,14.5097106 51.9217305,14.6382748 C51.8997124,14.6530898 51.8782314,14.6671515 51.8548707,14.6829709 C51.8086865,14.6940194 51.757132,14.7161163 51.7045034,14.7575481 L51.6677171,14.7748742 C51.5809874,14.8215791 51.3908802,14.8823457 50.9768331,14.9072048 L50.9199083,14.9164956 C50.8541226,14.9340727 50.7926331,14.9390948 50.7308751,14.9338216 C50.6742189,14.9285485 50.625081,14.9220198 50.5829244,14.9142357 C50.5472122,14.907707 50.5157962,14.9014295 50.4897504,14.8956541 C50.3912061,14.8574867 50.317902,14.8135438 50.2719863,14.7658345 C50.2228484,14.7138564 50.1892843,14.653592 50.1710254,14.5898121 C50.1696828,14.584539 50.1661922,14.5647019 50.1707569,14.5225168 C50.1804234,14.4321202 50.2102283,14.3223887 50.2590977,14.1960844 C50.2883656,14.1202517 50.3189761,14.051952 50.3511977,13.9924409 C50.3938912,14.0062515 50.441418,14.0155422 50.4932411,14.0203132 C50.6656264,14.0366348 50.9185657,14.0157933 51.2601143,13.9565333 C51.3659085,13.9402117 51.6279772,13.9053085 52.0441724,13.852326 C52.3580642,13.8144097 52.5581064,13.7812642 52.673567,13.7476166 C52.8754888,13.6891098 53.0024955,13.5540171 53.0215599,13.376237 C53.0263931,13.3317919 53.0215599,13.2820738 52.9998103,13.1700824 C52.9737646,13.0698927 52.9248952,12.9784917 52.8548133,12.8981391 C52.7415008,12.7675661 52.6147626,12.7306542 52.5288385,12.7223678 C52.4652009,12.7173458 52.4037114,12.7236233 52.3467866,12.7429581 C52.2767047,12.7479802 52.1824566,12.7575221 52.0648479,12.7728393 C51.9233415,12.7909186 51.7007442,12.821553 51.3946394,12.8652447 L51.2292353,12.8908571 C51.2257447,12.8913593 51.222254,12.8918615 51.2184948,12.8923637 L51.325363,12.7828833 L51.3538254,12.7477291 C51.4147778,12.6575835 51.4757303,12.5704512 51.5364142,12.4863321 C51.5791078,12.4273231 51.6019314,12.4042218 51.5987093,12.4042218 L51.5984408,12.4042218 L51.6395233,12.3821248 L51.6717448,12.3434551 C51.7657244,12.2307104 51.8135197,12.2103712 51.8135197,12.2103712 C51.8347322,12.2023359 51.902129,12.1824989 52.0720978,12.172957 L52.230252,12.1598997 C52.4294886,12.1390582 52.5954297,12.1242432 52.7275381,12.1147014 C52.8596465,12.1056617 53.0121619,12.0983797 53.1789085,12.0931066 C53.3888858,12.0913489 53.5537528,12.0652343 53.6829075,12.0135073 C53.9342357,11.9138199 53.9882069,11.7435729 53.9978733,11.6536784 C54.0029751,11.6117444 53.9989474,11.5672994 53.9852532,11.5102993 L53.9763923,11.4811714 Z" id="Fill-15" fill="#1286C9"></path>
                <path d="M57.9972789,11.8018083 C58.0086558,11.6965453 57.9846916,11.5899122 57.9190926,11.473004 C57.8462318,11.3595209 57.7339147,11.290335 57.6034429,11.2780048 C57.5664073,11.2745797 57.5337289,11.2741231 57.5039552,11.2752648 C57.3688842,11.2796031 57.2398648,11.3277821 57.0965637,11.445832 C56.9837625,11.5392216 56.8530487,11.6796484 56.688204,11.8872061 C56.5758869,12.0477265 56.4708318,12.1849567 56.3757011,12.2945581 C56.2728245,12.4135213 56.2086779,12.4881873 56.1735788,12.5315712 C55.9683097,12.8195033 55.8351752,13.0199826 55.7678818,13.1414575 C55.7199534,13.225257 55.6415251,13.3417085 55.5403429,13.4803087 C55.4289941,13.6209638 55.3246651,13.7746342 55.2242091,13.9474848 C55.2186416,13.9586733 55.2125901,13.9698617 55.2067806,13.9812785 L55.2791573,13.554518 C55.3413674,13.1704563 55.4159227,12.8462187 55.5011288,12.590482 C55.5761682,12.363059 55.6291799,12.1086923 55.6587115,11.8335471 C55.6698464,11.728969 55.6749297,11.6435713 55.6744456,11.573472 C55.726005,11.2624779 55.564065,11.117941 55.4645773,11.0608569 C55.4137441,11.0304882 55.3520182,11.0135913 55.258824,11.0046862 C55.1617569,10.9957811 55.0956738,10.9994345 55.0475033,11.016788 C54.8979086,11.0640537 54.7807503,11.1599549 54.7090997,11.29513 C54.6507626,11.4049598 54.6217151,11.523238 54.6224413,11.6476813 C54.6171159,11.6796484 54.6025922,11.7369608 54.5808065,11.8200752 L54.551759,11.93059 C54.5139972,12.0232946 54.482287,12.1299276 54.4556601,12.2532292 C54.420319,12.4043879 54.3944183,12.4760855 54.3794104,12.5096509 L54.3493946,12.5763251 L54.3617398,12.6320392 C54.3612557,12.6322675 54.3612557,12.6352359 54.3605295,12.6429993 C54.3559303,12.6856982 54.3447954,12.7382156 54.3249463,12.8087715 C54.2922678,12.948285 54.2760496,13.0524064 54.2738711,13.1307257 C54.2174705,13.3487869 54.1743833,13.5278026 54.1446096,13.6677728 C54.1131415,13.8150497 54.0836098,13.9767118 54.0548044,14.1630343 C54.0509314,14.1965997 54.0390703,14.2655573 54.0197053,14.3694503 L54.0165585,14.3966223 C54.0013085,14.6676575 53.9967093,14.8656251 54.0022768,15.0019419 C54.0083284,15.1578956 54.0250307,15.2695521 54.0545623,15.3531232 C54.0853043,15.440576 54.1334747,15.5225487 54.1981055,15.596758 L54.2416768,15.6476771 L54.3075178,15.668684 C54.3106646,15.6695973 54.3135694,15.6705107 54.3162321,15.671424 C54.3215574,15.7285081 54.3302717,15.7675536 54.3438272,15.8018041 L54.3443113,15.8024891 C54.3726326,15.871675 54.4258864,15.9269324 54.4815608,15.9536477 C54.5369932,15.9867565 54.597993,16 54.6609293,16 C54.7650162,16 54.8751547,15.9639229 54.9760949,15.9237357 C55.1549792,15.8520381 55.2808517,15.7714353 55.3612165,15.6766758 L55.4067243,15.6230167 L55.4089029,15.6029231 C55.4166489,15.592648 55.4263314,15.5805462 55.4379504,15.566161 C55.4945931,15.4960617 55.536954,15.4303009 55.5674539,15.3654534 L56.1326702,14.4142042 C56.2140033,14.2899893 56.2982411,14.166231 56.3856257,14.042701 C56.4918912,13.8922274 56.5306212,13.8584336 56.5340101,13.8556936 L56.5562799,13.836285 C56.6066289,13.7862793 56.6509264,13.7259985 56.6911088,13.6522459 C56.7174936,13.6045236 56.7385531,13.5652498 56.7545292,13.5351094 C56.8339257,13.4239096 56.9641554,13.253114 57.1425556,13.0268327 C57.3270074,12.7918746 57.4882211,12.5952771 57.6203873,12.4441184 C57.8590611,12.1771932 57.9788821,11.9728322 57.9972789,11.8018083" id="Fill-17" fill="#1286C9"></path>
                <path d="M59.3535683,13.7477956 C59.4147885,13.657645 59.4754717,13.5705077 59.5364234,13.4861327 C59.5818015,13.4231025 59.6000602,13.4022599 59.5976436,13.40452 L59.6387256,13.3824217 L59.6720208,13.3429965 C59.7657307,13.2299943 59.8137939,13.2101561 59.8140624,13.2101561 C59.8352747,13.2018693 59.9024021,13.1820311 60.0721002,13.1724887 L60.2299839,13.1594307 C60.4294866,13.1388391 60.5956941,13.1240233 60.7272639,13.1144809 C60.8593706,13.1051896 61.0121526,13.0979072 61.1788972,13.0926338 C61.3891403,13.090876 61.5540052,13.0647599 61.6834269,13.01303 C61.9334094,12.9130858 61.9881854,12.7435824 61.9986572,12.6486605 C62.0024164,12.608482 61.9983887,12.5642855 61.9852318,12.5097934 L61.9763709,12.4806639 C61.9331409,12.3671594 61.8676245,12.2682197 61.7806274,12.186607 C61.7365918,12.1454239 61.6085127,12.0231304 61.4310278,12.0397041 C61.39639,12.0407085 61.3383919,12.037444 61.2495152,12.0326728 C61.1490926,12.0268971 61.0650491,12.0193637 60.9973846,12.0088168 L60.9708022,12.0047989 L60.9442197,12.0058034 C60.7919747,12.0103235 60.6735619,12.0168525 60.5879073,12.0253904 C60.5253446,12.0319195 60.4531155,12.0432197 60.3862566,12.0705913 C60.3473227,12.0736047 60.2989909,12.0783759 60.2393818,12.0846538 C60.1972257,12.0904295 60.1639305,12.0941962 60.1378851,12.0969585 C60.1217745,12.0839005 60.1040529,12.0723491 60.0852572,12.0618023 C60.0264536,12.0299105 59.9579836,12.0100724 59.8830694,12.0032922 C59.704242,11.9872208 59.5232664,12.0299105 59.3401428,12.1331192 C59.2222671,12.1810824 59.1068079,12.240848 58.9969874,12.3111605 C58.8820653,12.3847375 58.7915775,12.45279 58.7209595,12.5190847 C58.5789178,12.6519251 58.554752,12.7649273 58.5751587,12.8525668 C58.5660294,12.861607 58.5534094,12.8731583 58.5356878,12.8872208 L58.4876245,12.9381974 C58.334037,13.1546595 58.2626134,13.2659039 58.2279757,13.3347097 L58.2019302,13.3623325 C57.7766109,13.863309 57.502731,14.2236606 57.3695502,14.4549385 C57.2970526,14.5699497 57.2240179,14.7261439 57.1461501,14.9330635 C57.0690879,15.137472 57.0215616,15.319029 57.0051826,15.4712053 C56.9990068,15.5234374 56.9982013,15.5844587 57.0035715,15.6590401 C57.018608,15.8260323 57.0457275,15.9611328 57.0868095,16.0721261 C57.1305766,16.190904 57.1993151,16.3046596 57.2911454,16.4096261 L57.501657,16.5849051 C57.5959039,16.6612444 57.7027707,16.7370815 57.8187669,16.8114118 L58.0263249,16.9434989 L58.2510675,16.982673 L58.2773815,16.9859375 C58.3971368,16.9954799 58.5201142,17 58.6452397,17 C58.8144008,17 58.9881266,16.9914621 59.1650745,16.9743862 C59.4813789,16.94375 59.7767396,16.876702 60.053036,16.7714844 C60.2254193,16.6986607 60.3884046,16.6077567 60.5374275,16.5012835 C60.6934316,16.3892857 60.8105019,16.2787946 60.8950824,16.1635323 C61.0148377,16.000558 61.0465219,15.8523995 60.9904034,15.7233258 C60.9474418,15.6148437 60.8408435,15.561356 60.8035206,15.5422712 C60.7339766,15.507366 60.6520812,15.4852678 60.5602508,15.4764787 C60.3333602,15.4561383 60.119895,15.5096261 59.9214663,15.6381975 C59.8999855,15.6525111 59.8790418,15.6665736 59.8559499,15.6821428 C59.8086922,15.6926897 59.7566013,15.7152901 59.7050475,15.7569754 L59.6677246,15.7745535 C59.580996,15.8212611 59.3908911,15.8820312 58.9768492,15.9068917 L58.9199251,15.916183 C58.8544088,15.93351 58.7931886,15.940039 58.7319684,15.9337611 C58.6753128,15.9284877 58.6261755,15.9222098 58.5829455,15.9139229 C58.5469652,15.9073939 58.5163551,15.9013671 58.4903096,15.8955915 C58.3917666,15.8576729 58.3184634,15.8139787 58.2720113,15.7652622 C58.2226055,15.7132812 58.1887733,15.6532645 58.1710516,15.5897321 C58.1697091,15.5844587 58.1659499,15.5646205 58.1707831,15.5221819 C58.1804495,15.4317801 58.2099855,15.3222935 58.2588543,15.1959821 C58.2881218,15.1198939 58.3190005,15.0515903 58.3512216,14.9920758 C58.3941832,15.0058872 58.4417094,15.0154296 58.4938003,15.0202008 C58.666452,15.0352678 58.9201937,15.0154296 59.2598584,14.9564173 C59.3659197,14.9400948 59.6277167,14.9049385 60.0439067,14.851953 C60.3583316,14.8140345 60.5583713,14.7806361 60.6735619,14.7472376 C60.8754812,14.6887276 61.0024863,14.5536271 61.0215505,14.375837 C61.0261152,14.3318916 61.021282,14.2804128 60.9998012,14.1699218 C60.9734873,14.0692242 60.9246185,13.9775668 60.854806,13.8979631 C60.7414949,13.7673827 60.6147583,13.7302175 60.5288352,13.7219307 C60.4662725,13.7171595 60.4034412,13.7231863 60.3465171,13.7425222 C60.2767046,13.7475445 60.1827262,13.757338 60.065119,13.772405 C59.9233459,13.7904854 59.7012883,13.8211215 59.3943818,13.8650668 L59.2316649,13.8901785 C59.2276373,13.8909318 59.2233411,13.8916852 59.2182394,13.8921874 L59.3253748,13.7827008 L59.3535683,13.7477956 Z" id="Fill-19" fill="#1286C9"></path>
                <path d="M62.5487624,14.3951362 L62.6262261,14.2664582 C62.6902978,14.1525554 62.7478048,14.0574573 62.798747,13.9822384 L62.8171282,13.950539 C62.8833006,13.8170256 62.9896491,13.6265607 63.129609,13.3888153 C63.2112742,13.2566451 63.2448855,13.1996936 63.2601157,13.1505327 C63.2645797,13.1395186 63.268256,13.1301162 63.2716696,13.1225943 C63.318673,13.1285044 63.4284352,13.1521446 63.6574127,13.2359599 C63.6802579,13.2461682 63.720434,13.2853894 63.7653367,13.3657124 C63.8233689,13.469407 63.8233689,13.5204483 63.8220559,13.5338803 L63.8210056,13.5499986 C63.8102394,13.8151451 63.4431402,14.0896939 62.7990096,14.3199174 C62.7047402,14.3483931 62.6212369,14.3736451 62.5487624,14.3951362 M64.8642712,12.9855885 L64.8642712,12.9853199 C64.757135,12.7548278 64.5775242,12.5431405 64.3193993,12.348646 C64.0431558,12.1616734 63.7251606,12.0483078 63.3740793,12.0115043 C63.2012958,11.9937742 63.0214224,11.9964605 62.8373476,12.0201008 L62.1362353,12.1826272 C61.9839337,12.2272213 61.8833622,12.3532128 61.8665565,12.5200375 C61.8544774,12.6419995 61.8894017,12.7647675 61.9705417,12.884849 L62.0435414,12.9872004 C61.8190279,13.3839798 61.6341653,13.7251511 61.4952558,13.9980881 L61.2431704,14.4773397 C60.7119531,15.4933315 60.5767198,15.7721786 60.534443,15.8713063 C60.4052493,16.0862173 60.3167568,16.2791 60.2645017,16.459088 L60.1781099,16.6140925 C60.0418263,16.8577479 60.0095278,16.952846 60.0019128,17.0296767 C59.995348,17.0971051 60.0058516,17.1621156 60.0307975,17.216918 C60.0481284,17.2572138 60.0730744,17.2980469 60.1111497,17.3455959 L60.1715452,17.4197402 C60.2878721,17.5392845 60.4341341,17.6088619 60.6069176,17.6268607 C60.6851691,17.6349199 60.7600069,17.6290098 60.8298555,17.6088619 C60.9724413,17.5666856 61.0346749,17.4748112 61.0619841,17.408726 C61.2780948,16.9657407 61.4582307,16.5831991 61.6008165,16.2632503 C61.6302265,16.3185899 61.664363,16.3752727 61.7040139,16.4343732 C61.9232757,16.7532474 62.1330842,17.0200057 62.3271374,17.2276635 C62.5225035,17.4363958 62.7309991,17.6249803 62.9376565,17.7815967 C63.0902207,17.9078569 63.2519754,17.980658 63.418982,17.9978509 C63.4326366,17.9991941 63.447079,18 63.4623091,18 C63.4998594,18 63.5444995,17.9957018 63.6027942,17.987374 L63.6589882,17.9723302 C63.7598224,17.9328403 63.8210056,17.8471445 63.8866528,17.7211529 C63.9441598,17.6112797 63.9767208,17.5100029 63.9859114,17.4138302 C64.0000912,17.2746753 63.9515122,17.181189 63.9084477,17.1274612 L63.8806132,17.0933441 L63.8441134,17.0699725 C63.6920744,16.9737999 63.507737,16.8088557 63.2966156,16.58105 C63.0776164,16.3443792 62.9066711,16.1367214 62.7858802,15.9599571 C62.6926611,15.8283241 62.6091578,15.6905124 62.5374711,15.5481339 C62.7656608,15.4919884 62.9859729,15.4234855 63.1892167,15.3461175 C63.484104,15.2515566 63.8086639,15.0817769 64.1542309,14.8413452 C64.520805,14.5866757 64.7542465,14.3543031 64.8692604,14.1291838 C64.9367458,13.9948644 64.9784974,13.8476504 64.9939901,13.6918399 C65.017098,13.4586614 64.9735082,13.2209161 64.8642712,12.9855885" id="Fill-21" fill="#1286C9"></path>
            </g>
        </g>
    </g>
</svg>